<ttFont>
    <TTGlyph name="A" xMin="15" yMin="0" xMax="659" yMax="700">
      <contour>
        <pt x="409" y="700" on="1"/>
        <pt x="659" y="0" on="1"/>
        <pt x="521" y="0" on="1"/>
        <pt x="468" y="151" on="1"/>
        <pt x="206" y="151" on="1"/>
        <pt x="153" y="0" on="1"/>
        <pt x="15" y="0" on="1"/>
        <pt x="265" y="700" on="1"/>
      </contour>
      <contour>
        <pt x="336" y="524" on="1"/>
        <pt x="248" y="271" on="1"/>
        <pt x="425" y="271" on="1"/>
        <pt x="338" y="524" on="1"/>
      </contour>
    </TTGlyph>
    <TTGlyph name="AE" xMin="-25" yMin="0" xMax="907" yMax="700">
      <contour>
        <pt x="628" y="300" on="1"/>
        <pt x="628" y="120" on="1"/>
        <pt x="907" y="120" on="1"/>
        <pt x="907" y="0" on="1"/>
        <pt x="488" y="0" on="1"/>
        <pt x="488" y="151" on="1"/>
        <pt x="228" y="151" on="1"/>
        <pt x="123" y="0" on="1"/>
        <pt x="-25" y="0" on="1"/>
        <pt x="466" y="700" on="1"/>
        <pt x="907" y="700" on="1"/>
        <pt x="907" y="580" on="1"/>
        <pt x="628" y="580" on="1"/>
        <pt x="628" y="420" on="1"/>
        <pt x="847" y="420" on="1"/>
        <pt x="847" y="300" on="1"/>
      </contour>
      <contour>
        <pt x="486" y="524" on="1"/>
        <pt x="311" y="271" on="1"/>
        <pt x="488" y="271" on="1"/>
        <pt x="488" y="524" on="1"/>
      </contour>
    </TTGlyph>
    <TTGlyph name="Aacute" xMin="15" yMin="0" xMax="659" yMax="913">
      <contour>
        <pt x="409" y="700" on="1"/>
        <pt x="659" y="0" on="1"/>
        <pt x="521" y="0" on="1"/>
        <pt x="468" y="151" on="1"/>
        <pt x="206" y="151" on="1"/>
        <pt x="153" y="0" on="1"/>
        <pt x="15" y="0" on="1"/>
        <pt x="265" y="700" on="1"/>
      </contour>
      <contour>
        <pt x="336" y="524" on="1"/>
        <pt x="248" y="271" on="1"/>
        <pt x="425" y="271" on="1"/>
        <pt x="338" y="524" on="1"/>
      </contour>
      <contour>
        <pt x="265" y="785" on="1"/>
        <pt x="359" y="913" on="1"/>
        <pt x="529" y="913" on="1"/>
        <pt x="385" y="785" on="1"/>
      </contour>
    </TTGlyph>
    <TTGlyph name="Acircumflex" xMin="15" yMin="0" xMax="659" yMax="933">
      <contour>
        <pt x="409" y="700" on="1"/>
        <pt x="659" y="0" on="1"/>
        <pt x="521" y="0" on="1"/>
        <pt x="468" y="151" on="1"/>
        <pt x="206" y="151" on="1"/>
        <pt x="153" y="0" on="1"/>
        <pt x="15" y="0" on="1"/>
        <pt x="265" y="700" on="1"/>
      </contour>
      <contour>
        <pt x="336" y="524" on="1"/>
        <pt x="248" y="271" on="1"/>
        <pt x="425" y="271" on="1"/>
        <pt x="338" y="524" on="1"/>
      </contour>
      <contour>
        <pt x="247" y="933" on="1"/>
        <pt x="437" y="933" on="1"/>
        <pt x="538" y="785" on="1"/>
        <pt x="423" y="785" on="1"/>
        <pt x="342" y="865" on="1"/>
        <pt x="262" y="785" on="1"/>
        <pt x="147" y="785" on="1"/>
      </contour>
    </TTGlyph>
    <TTGlyph name="Adieresis" xMin="15" yMin="0" xMax="659" yMax="920">
      <contour>
        <pt x="409" y="700" on="1"/>
        <pt x="659" y="0" on="1"/>
        <pt x="521" y="0" on="1"/>
        <pt x="468" y="151" on="1"/>
        <pt x="206" y="151" on="1"/>
        <pt x="153" y="0" on="1"/>
        <pt x="15" y="0" on="1"/>
        <pt x="265" y="700" on="1"/>
      </contour>
      <contour>
        <pt x="336" y="524" on="1"/>
        <pt x="248" y="271" on="1"/>
        <pt x="425" y="271" on="1"/>
        <pt x="338" y="524" on="1"/>
      </contour>
      <contour>
        <pt x="155" y="785" on="1"/>
        <pt x="155" y="920" on="1"/>
        <pt x="290" y="920" on="1"/>
        <pt x="290" y="785" on="1"/>
      </contour>
      <contour>
        <pt x="394" y="785" on="1"/>
        <pt x="394" y="920" on="1"/>
        <pt x="529" y="920" on="1"/>
        <pt x="529" y="785" on="1"/>
      </contour>
    </TTGlyph>
    <TTGlyph name="Agrave" xMin="15" yMin="0" xMax="659" yMax="913">
      <contour>
        <pt x="409" y="700" on="1"/>
        <pt x="659" y="0" on="1"/>
        <pt x="521" y="0" on="1"/>
        <pt x="468" y="151" on="1"/>
        <pt x="206" y="151" on="1"/>
        <pt x="153" y="0" on="1"/>
        <pt x="15" y="0" on="1"/>
        <pt x="265" y="700" on="1"/>
      </contour>
      <contour>
        <pt x="336" y="524" on="1"/>
        <pt x="248" y="271" on="1"/>
        <pt x="425" y="271" on="1"/>
        <pt x="338" y="524" on="1"/>
      </contour>
      <contour>
        <pt x="335" y="913" on="1"/>
        <pt x="429" y="785" on="1"/>
        <pt x="309" y="785" on="1"/>
        <pt x="165" y="913" on="1"/>
      </contour>
    </TTGlyph>
    <TTGlyph name="Aring" xMin="15" yMin="0" xMax="659" yMax="913">
      <contour>
        <pt x="498" y="657" on="1"/>
        <pt x="437" y="622" on="1"/>
        <pt x="659" y="0" on="1"/>
        <pt x="521" y="0" on="1"/>
        <pt x="468" y="151" on="1"/>
        <pt x="206" y="151" on="1"/>
        <pt x="153" y="0" on="1"/>
        <pt x="15" y="0" on="1"/>
        <pt x="236" y="620" on="1"/>
        <pt x="173" y="657" on="1"/>
        <pt x="173" y="866" on="1"/>
        <pt x="255" y="913" on="1"/>
        <pt x="416" y="913" on="1"/>
        <pt x="498" y="866" on="1"/>
      </contour>
      <contour>
        <pt x="336" y="524" on="1"/>
        <pt x="248" y="271" on="1"/>
        <pt x="425" y="271" on="1"/>
        <pt x="338" y="524" on="1"/>
      </contour>
      <contour>
        <pt x="278" y="818" on="1"/>
        <pt x="278" y="705" on="1"/>
        <pt x="393" y="705" on="1"/>
        <pt x="393" y="818" on="1"/>
      </contour>
    </TTGlyph>
    <TTGlyph name="Atilde" xMin="15" yMin="0" xMax="659" yMax="964">
      <contour>
        <pt x="409" y="700" on="1"/>
        <pt x="659" y="0" on="1"/>
        <pt x="521" y="0" on="1"/>
        <pt x="468" y="151" on="1"/>
        <pt x="206" y="151" on="1"/>
        <pt x="153" y="0" on="1"/>
        <pt x="15" y="0" on="1"/>
        <pt x="265" y="700" on="1"/>
      </contour>
      <contour>
        <pt x="336" y="524" on="1"/>
        <pt x="248" y="271" on="1"/>
        <pt x="425" y="271" on="1"/>
        <pt x="338" y="524" on="1"/>
      </contour>
      <contour>
        <pt x="261" y="867" on="1"/>
        <pt x="257" y="867" on="1"/>
        <pt x="257" y="785" on="1"/>
        <pt x="159" y="785" on="1"/>
        <pt x="159" y="909" on="1"/>
        <pt x="253" y="964" on="1"/>
        <pt x="281" y="964" on="1"/>
        <pt x="423" y="882" on="1"/>
        <pt x="427" y="882" on="1"/>
        <pt x="427" y="964" on="1"/>
        <pt x="525" y="964" on="1"/>
        <pt x="525" y="840" on="1"/>
        <pt x="431" y="785" on="1"/>
        <pt x="403" y="785" on="1"/>
      </contour>
    </TTGlyph>
    <TTGlyph name="B" xMin="85" yMin="0" xMax="580" yMax="700">
      <contour>
        <pt x="580" y="413" on="1"/>
        <pt x="493" y="363" on="1"/>
        <pt x="493" y="361" on="1"/>
        <pt x="580" y="311" on="1"/>
        <pt x="580" y="67" on="1"/>
        <pt x="464" y="0" on="1"/>
        <pt x="85" y="0" on="1"/>
        <pt x="85" y="700" on="1"/>
        <pt x="464" y="700" on="1"/>
        <pt x="580" y="633" on="1"/>
      </contour>
      <contour>
        <pt x="225" y="302" on="1"/>
        <pt x="225" y="120" on="1"/>
        <pt x="440" y="120" on="1"/>
        <pt x="440" y="302" on="1"/>
      </contour>
      <contour>
        <pt x="225" y="580" on="1"/>
        <pt x="225" y="422" on="1"/>
        <pt x="440" y="422" on="1"/>
        <pt x="440" y="580" on="1"/>
      </contour>
    </TTGlyph>
    <TTGlyph name="C" xMin="85" yMin="-5" xMax="600" yMax="705">
      <contour>
        <pt x="460" y="205" on="1"/>
        <pt x="600" y="205" on="1"/>
        <pt x="600" y="62" on="1"/>
        <pt x="484" y="-5" on="1"/>
        <pt x="201" y="-5" on="1"/>
        <pt x="85" y="62" on="1"/>
        <pt x="85" y="638" on="1"/>
        <pt x="201" y="705" on="1"/>
        <pt x="484" y="705" on="1"/>
        <pt x="600" y="638" on="1"/>
        <pt x="600" y="495" on="1"/>
        <pt x="460" y="495" on="1"/>
        <pt x="460" y="585" on="1"/>
        <pt x="225" y="585" on="1"/>
        <pt x="225" y="115" on="1"/>
        <pt x="460" y="115" on="1"/>
      </contour>
    </TTGlyph>
    <TTGlyph name="Ccedilla" xMin="85" yMin="-229" xMax="600" yMax="705">
      <contour>
        <pt x="460" y="205" on="1"/>
        <pt x="600" y="205" on="1"/>
        <pt x="600" y="62" on="1"/>
        <pt x="484" y="-5" on="1"/>
        <pt x="387" y="-5" on="1"/>
        <pt x="363" y="-47" on="1"/>
        <pt x="429" y="-85" on="1"/>
        <pt x="429" y="-179" on="1"/>
        <pt x="343" y="-229" on="1"/>
        <pt x="233" y="-229" on="1"/>
        <pt x="233" y="-149" on="1"/>
        <pt x="332" y="-149" on="1"/>
        <pt x="332" y="-104" on="1"/>
        <pt x="237" y="-104" on="1"/>
        <pt x="294" y="-5" on="1"/>
        <pt x="201" y="-5" on="1"/>
        <pt x="85" y="62" on="1"/>
        <pt x="85" y="638" on="1"/>
        <pt x="201" y="705" on="1"/>
        <pt x="484" y="705" on="1"/>
        <pt x="600" y="638" on="1"/>
        <pt x="600" y="495" on="1"/>
        <pt x="460" y="495" on="1"/>
        <pt x="460" y="585" on="1"/>
        <pt x="225" y="585" on="1"/>
        <pt x="225" y="115" on="1"/>
        <pt x="460" y="115" on="1"/>
      </contour>
    </TTGlyph>
    <TTGlyph name="D" xMin="85" yMin="0" xMax="630" yMax="700">
      <contour>
        <pt x="630" y="67" on="1"/>
        <pt x="514" y="0" on="1"/>
        <pt x="85" y="0" on="1"/>
        <pt x="85" y="700" on="1"/>
        <pt x="514" y="700" on="1"/>
        <pt x="630" y="633" on="1"/>
      </contour>
      <contour>
        <pt x="225" y="580" on="1"/>
        <pt x="225" y="120" on="1"/>
        <pt x="490" y="120" on="1"/>
        <pt x="490" y="580" on="1"/>
      </contour>
    </TTGlyph>
    <TTGlyph name="E" xMin="85" yMin="0" xMax="504" yMax="700">
      <contour>
        <pt x="225" y="300" on="1"/>
        <pt x="225" y="120" on="1"/>
        <pt x="504" y="120" on="1"/>
        <pt x="504" y="0" on="1"/>
        <pt x="85" y="0" on="1"/>
        <pt x="85" y="700" on="1"/>
        <pt x="504" y="700" on="1"/>
        <pt x="504" y="580" on="1"/>
        <pt x="225" y="580" on="1"/>
        <pt x="225" y="420" on="1"/>
        <pt x="444" y="420" on="1"/>
        <pt x="444" y="300" on="1"/>
      </contour>
    </TTGlyph>
    <TTGlyph name="Eacute" xMin="85" yMin="0" xMax="504" yMax="913">
      <contour>
        <pt x="225" y="300" on="1"/>
        <pt x="225" y="120" on="1"/>
        <pt x="504" y="120" on="1"/>
        <pt x="504" y="0" on="1"/>
        <pt x="85" y="0" on="1"/>
        <pt x="85" y="700" on="1"/>
        <pt x="504" y="700" on="1"/>
        <pt x="504" y="580" on="1"/>
        <pt x="225" y="580" on="1"/>
        <pt x="225" y="420" on="1"/>
        <pt x="444" y="420" on="1"/>
        <pt x="444" y="300" on="1"/>
      </contour>
      <contour>
        <pt x="205" y="785" on="1"/>
        <pt x="299" y="913" on="1"/>
        <pt x="469" y="913" on="1"/>
        <pt x="325" y="785" on="1"/>
      </contour>
    </TTGlyph>
    <TTGlyph name="Ecircumflex" xMin="85" yMin="0" xMax="504" yMax="933">
      <contour>
        <pt x="225" y="300" on="1"/>
        <pt x="225" y="120" on="1"/>
        <pt x="504" y="120" on="1"/>
        <pt x="504" y="0" on="1"/>
        <pt x="85" y="0" on="1"/>
        <pt x="85" y="700" on="1"/>
        <pt x="504" y="700" on="1"/>
        <pt x="504" y="580" on="1"/>
        <pt x="225" y="580" on="1"/>
        <pt x="225" y="420" on="1"/>
        <pt x="444" y="420" on="1"/>
        <pt x="444" y="300" on="1"/>
      </contour>
      <contour>
        <pt x="204" y="933" on="1"/>
        <pt x="394" y="933" on="1"/>
        <pt x="495" y="785" on="1"/>
        <pt x="380" y="785" on="1"/>
        <pt x="299" y="865" on="1"/>
        <pt x="219" y="785" on="1"/>
        <pt x="104" y="785" on="1"/>
      </contour>
    </TTGlyph>
    <TTGlyph name="Edieresis" xMin="85" yMin="0" xMax="504" yMax="920">
      <contour>
        <pt x="225" y="300" on="1"/>
        <pt x="225" y="120" on="1"/>
        <pt x="504" y="120" on="1"/>
        <pt x="504" y="0" on="1"/>
        <pt x="85" y="0" on="1"/>
        <pt x="85" y="700" on="1"/>
        <pt x="504" y="700" on="1"/>
        <pt x="504" y="580" on="1"/>
        <pt x="225" y="580" on="1"/>
        <pt x="225" y="420" on="1"/>
        <pt x="444" y="420" on="1"/>
        <pt x="444" y="300" on="1"/>
      </contour>
      <contour>
        <pt x="110" y="785" on="1"/>
        <pt x="110" y="920" on="1"/>
        <pt x="245" y="920" on="1"/>
        <pt x="245" y="785" on="1"/>
      </contour>
      <contour>
        <pt x="349" y="785" on="1"/>
        <pt x="349" y="920" on="1"/>
        <pt x="484" y="920" on="1"/>
        <pt x="484" y="785" on="1"/>
      </contour>
    </TTGlyph>
    <TTGlyph name="Egrave" xMin="85" yMin="0" xMax="504" yMax="913">
      <contour>
        <pt x="225" y="300" on="1"/>
        <pt x="225" y="120" on="1"/>
        <pt x="504" y="120" on="1"/>
        <pt x="504" y="0" on="1"/>
        <pt x="85" y="0" on="1"/>
        <pt x="85" y="700" on="1"/>
        <pt x="504" y="700" on="1"/>
        <pt x="504" y="580" on="1"/>
        <pt x="225" y="580" on="1"/>
        <pt x="225" y="420" on="1"/>
        <pt x="444" y="420" on="1"/>
        <pt x="444" y="300" on="1"/>
      </contour>
      <contour>
        <pt x="305" y="913" on="1"/>
        <pt x="399" y="785" on="1"/>
        <pt x="279" y="785" on="1"/>
        <pt x="135" y="913" on="1"/>
      </contour>
    </TTGlyph>
    <TTGlyph name="Eth" xMin="15" yMin="0" xMax="630" yMax="700">
      <contour>
        <pt x="15" y="375" on="1"/>
        <pt x="85" y="375" on="1"/>
        <pt x="85" y="700" on="1"/>
        <pt x="514" y="700" on="1"/>
        <pt x="630" y="633" on="1"/>
        <pt x="630" y="67" on="1"/>
        <pt x="514" y="0" on="1"/>
        <pt x="85" y="0" on="1"/>
        <pt x="85" y="281" on="1"/>
        <pt x="15" y="281" on="1"/>
      </contour>
      <contour>
        <pt x="225" y="580" on="1"/>
        <pt x="225" y="375" on="1"/>
        <pt x="321" y="375" on="1"/>
        <pt x="321" y="281" on="1"/>
        <pt x="225" y="281" on="1"/>
        <pt x="225" y="120" on="1"/>
        <pt x="490" y="120" on="1"/>
        <pt x="490" y="580" on="1"/>
      </contour>
    </TTGlyph>
    <TTGlyph name="Euro" xMin="25" yMin="-5" xMax="609" yMax="705">
      <contour>
        <pt x="455" y="471" on="1"/>
        <pt x="401" y="377" on="1"/>
        <pt x="242" y="377" on="1"/>
        <pt x="242" y="323" on="1"/>
        <pt x="370" y="323" on="1"/>
        <pt x="316" y="229" on="1"/>
        <pt x="242" y="229" on="1"/>
        <pt x="242" y="115" on="1"/>
        <pt x="469" y="115" on="1"/>
        <pt x="469" y="205" on="1"/>
        <pt x="609" y="205" on="1"/>
        <pt x="609" y="62" on="1"/>
        <pt x="493" y="-5" on="1"/>
        <pt x="218" y="-5" on="1"/>
        <pt x="102" y="62" on="1"/>
        <pt x="102" y="229" on="1"/>
        <pt x="25" y="229" on="1"/>
        <pt x="25" y="323" on="1"/>
        <pt x="102" y="323" on="1"/>
        <pt x="102" y="377" on="1"/>
        <pt x="25" y="377" on="1"/>
        <pt x="25" y="471" on="1"/>
        <pt x="102" y="471" on="1"/>
        <pt x="102" y="638" on="1"/>
        <pt x="218" y="705" on="1"/>
        <pt x="493" y="705" on="1"/>
        <pt x="609" y="638" on="1"/>
        <pt x="609" y="495" on="1"/>
        <pt x="469" y="495" on="1"/>
        <pt x="469" y="585" on="1"/>
        <pt x="242" y="585" on="1"/>
        <pt x="242" y="471" on="1"/>
      </contour>
    </TTGlyph>
    <TTGlyph name="F" xMin="85" yMin="0" xMax="514" yMax="700">
      <contour>
        <pt x="225" y="300" on="1"/>
        <pt x="225" y="0" on="1"/>
        <pt x="85" y="0" on="1"/>
        <pt x="85" y="700" on="1"/>
        <pt x="514" y="700" on="1"/>
        <pt x="514" y="580" on="1"/>
        <pt x="225" y="580" on="1"/>
        <pt x="225" y="420" on="1"/>
        <pt x="454" y="420" on="1"/>
        <pt x="454" y="300" on="1"/>
      </contour>
    </TTGlyph>
    <TTGlyph name="G" xMin="75" yMin="-5" xMax="590" yMax="705">
      <contour>
        <pt x="335" y="245" on="1"/>
        <pt x="335" y="365" on="1"/>
        <pt x="590" y="365" on="1"/>
        <pt x="590" y="62" on="1"/>
        <pt x="474" y="-5" on="1"/>
        <pt x="191" y="-5" on="1"/>
        <pt x="75" y="62" on="1"/>
        <pt x="75" y="638" on="1"/>
        <pt x="191" y="705" on="1"/>
        <pt x="474" y="705" on="1"/>
        <pt x="590" y="638" on="1"/>
        <pt x="590" y="495" on="1"/>
        <pt x="450" y="495" on="1"/>
        <pt x="450" y="585" on="1"/>
        <pt x="215" y="585" on="1"/>
        <pt x="215" y="115" on="1"/>
        <pt x="450" y="115" on="1"/>
        <pt x="450" y="245" on="1"/>
      </contour>
    </TTGlyph>
    <TTGlyph name="H" xMin="85" yMin="0" xMax="640" yMax="700">
      <contour>
        <pt x="225" y="300" on="1"/>
        <pt x="225" y="0" on="1"/>
        <pt x="85" y="0" on="1"/>
        <pt x="85" y="700" on="1"/>
        <pt x="225" y="700" on="1"/>
        <pt x="225" y="420" on="1"/>
        <pt x="500" y="420" on="1"/>
        <pt x="500" y="700" on="1"/>
        <pt x="640" y="700" on="1"/>
        <pt x="640" y="0" on="1"/>
        <pt x="500" y="0" on="1"/>
        <pt x="500" y="300" on="1"/>
      </contour>
    </TTGlyph>
    <TTGlyph name="I" xMin="85" yMin="0" xMax="225" yMax="700">
      <contour>
        <pt x="85" y="0" on="1"/>
        <pt x="85" y="700" on="1"/>
        <pt x="225" y="700" on="1"/>
        <pt x="225" y="0" on="1"/>
      </contour>
    </TTGlyph>
    <TTGlyph name="IJ" xMin="85" yMin="-5" xMax="770" yMax="700">
      <contour>
        <pt x="85" y="0" on="1"/>
        <pt x="85" y="700" on="1"/>
        <pt x="225" y="700" on="1"/>
        <pt x="225" y="0" on="1"/>
      </contour>
      <contour>
        <pt x="630" y="115" on="1"/>
        <pt x="630" y="700" on="1"/>
        <pt x="770" y="700" on="1"/>
        <pt x="770" y="62" on="1"/>
        <pt x="654" y="-5" on="1"/>
        <pt x="441" y="-5" on="1"/>
        <pt x="325" y="62" on="1"/>
        <pt x="325" y="255" on="1"/>
        <pt x="465" y="255" on="1"/>
        <pt x="465" y="115" on="1"/>
      </contour>
    </TTGlyph>
    <TTGlyph name="Iacute" xMin="65" yMin="0" xMax="329" yMax="913">
      <contour>
        <pt x="85" y="0" on="1"/>
        <pt x="85" y="700" on="1"/>
        <pt x="225" y="700" on="1"/>
        <pt x="225" y="0" on="1"/>
      </contour>
      <contour>
        <pt x="65" y="785" on="1"/>
        <pt x="159" y="913" on="1"/>
        <pt x="329" y="913" on="1"/>
        <pt x="185" y="785" on="1"/>
      </contour>
    </TTGlyph>
    <TTGlyph name="Icircumflex" xMin="-40" yMin="0" xMax="351" yMax="933">
      <contour>
        <pt x="85" y="0" on="1"/>
        <pt x="85" y="700" on="1"/>
        <pt x="225" y="700" on="1"/>
        <pt x="225" y="0" on="1"/>
      </contour>
      <contour>
        <pt x="60" y="933" on="1"/>
        <pt x="250" y="933" on="1"/>
        <pt x="351" y="785" on="1"/>
        <pt x="236" y="785" on="1"/>
        <pt x="155" y="865" on="1"/>
        <pt x="75" y="785" on="1"/>
        <pt x="-40" y="785" on="1"/>
      </contour>
    </TTGlyph>
    <TTGlyph name="Idieresis" xMin="-32" yMin="0" xMax="342" yMax="920">
      <contour>
        <pt x="85" y="0" on="1"/>
        <pt x="85" y="700" on="1"/>
        <pt x="225" y="700" on="1"/>
        <pt x="225" y="0" on="1"/>
      </contour>
      <contour>
        <pt x="-32" y="785" on="1"/>
        <pt x="-32" y="920" on="1"/>
        <pt x="103" y="920" on="1"/>
        <pt x="103" y="785" on="1"/>
      </contour>
      <contour>
        <pt x="207" y="785" on="1"/>
        <pt x="207" y="920" on="1"/>
        <pt x="342" y="920" on="1"/>
        <pt x="342" y="785" on="1"/>
      </contour>
    </TTGlyph>
    <TTGlyph name="Igrave" xMin="-20" yMin="0" xMax="244" yMax="913">
      <contour>
        <pt x="85" y="0" on="1"/>
        <pt x="85" y="700" on="1"/>
        <pt x="225" y="700" on="1"/>
        <pt x="225" y="0" on="1"/>
      </contour>
      <contour>
        <pt x="150" y="913" on="1"/>
        <pt x="244" y="785" on="1"/>
        <pt x="124" y="785" on="1"/>
        <pt x="-20" y="913" on="1"/>
      </contour>
    </TTGlyph>
    <TTGlyph name="Itilde" xMin="-28" yMin="0" xMax="338" yMax="964">
      <component glyphName="I" x="0" y="0" flags="0x1004"/>
      <component glyphName="tilde" x="-98" y="200" flags="0x1004"/>
    </TTGlyph>
    <TTGlyph name="J" xMin="15" yMin="-5" xMax="460" yMax="700">
      <contour>
        <pt x="320" y="115" on="1"/>
        <pt x="320" y="700" on="1"/>
        <pt x="460" y="700" on="1"/>
        <pt x="460" y="62" on="1"/>
        <pt x="344" y="-5" on="1"/>
        <pt x="131" y="-5" on="1"/>
        <pt x="15" y="62" on="1"/>
        <pt x="15" y="255" on="1"/>
        <pt x="155" y="255" on="1"/>
        <pt x="155" y="115" on="1"/>
      </contour>
    </TTGlyph>
    <TTGlyph name="Jcircumflex" xMin="15" yMin="-5" xMax="588" yMax="938">
      <component glyphName="J" x="0" y="0" flags="0x1004"/>
      <component glyphName="circumflex" x="127" y="200" flags="0x1004"/>
    </TTGlyph>
    <TTGlyph name="K" xMin="85" yMin="0" xMax="685" yMax="700">
      <contour>
        <pt x="85" y="0" on="1"/>
        <pt x="85" y="700" on="1"/>
        <pt x="225" y="700" on="1"/>
        <pt x="225" y="385" on="1"/>
        <pt x="227" y="385" on="1"/>
        <pt x="488" y="700" on="1"/>
        <pt x="654" y="700" on="1"/>
        <pt x="378" y="372" on="1"/>
        <pt x="685" y="0" on="1"/>
        <pt x="517" y="0" on="1"/>
        <pt x="294" y="272" on="1"/>
        <pt x="225" y="191" on="1"/>
        <pt x="225" y="0" on="1"/>
      </contour>
    </TTGlyph>
    <TTGlyph name="L" xMin="85" yMin="0" xMax="464" yMax="700">
      <contour>
        <pt x="85" y="0" on="1"/>
        <pt x="85" y="700" on="1"/>
        <pt x="225" y="700" on="1"/>
        <pt x="225" y="120" on="1"/>
        <pt x="464" y="120" on="1"/>
        <pt x="464" y="0" on="1"/>
      </contour>
    </TTGlyph>
    <TTGlyph name="Ldotaccent" xMin="85" yMin="0" xMax="464" yMax="700">
      <contour>
        <pt x="85" y="0" on="1"/>
        <pt x="85" y="700" on="1"/>
        <pt x="225" y="700" on="1"/>
        <pt x="225" y="120" on="1"/>
        <pt x="464" y="120" on="1"/>
        <pt x="464" y="0" on="1"/>
      </contour>
      <contour>
        <pt x="319" y="234" on="1"/>
        <pt x="319" y="368" on="1"/>
        <pt x="453" y="368" on="1"/>
        <pt x="453" y="234" on="1"/>
      </contour>
    </TTGlyph>
    <TTGlyph name="Lslash" xMin="15" yMin="0" xMax="464" yMax="700">
      <contour>
        <pt x="15" y="378" on="1"/>
        <pt x="85" y="396" on="1"/>
        <pt x="85" y="700" on="1"/>
        <pt x="225" y="700" on="1"/>
        <pt x="225" y="433" on="1"/>
        <pt x="321" y="458" on="1"/>
        <pt x="321" y="358" on="1"/>
        <pt x="225" y="333" on="1"/>
        <pt x="225" y="120" on="1"/>
        <pt x="464" y="120" on="1"/>
        <pt x="464" y="0" on="1"/>
        <pt x="85" y="0" on="1"/>
        <pt x="85" y="296" on="1"/>
        <pt x="15" y="278" on="1"/>
      </contour>
    </TTGlyph>
    <TTGlyph name="M" xMin="85" yMin="0" xMax="809" yMax="700">
      <contour>
        <pt x="674" y="0" on="1"/>
        <pt x="674" y="462" on="1"/>
        <pt x="672" y="462" on="1"/>
        <pt x="514" y="0" on="1"/>
        <pt x="381" y="0" on="1"/>
        <pt x="222" y="468" on="1"/>
        <pt x="220" y="468" on="1"/>
        <pt x="220" y="0" on="1"/>
        <pt x="85" y="0" on="1"/>
        <pt x="85" y="700" on="1"/>
        <pt x="271" y="700" on="1"/>
        <pt x="447" y="185" on="1"/>
        <pt x="449" y="185" on="1"/>
        <pt x="624" y="700" on="1"/>
        <pt x="809" y="700" on="1"/>
        <pt x="809" y="0" on="1"/>
      </contour>
    </TTGlyph>
    <TTGlyph name="N" xMin="85" yMin="0" xMax="660" yMax="700">
      <contour>
        <pt x="225" y="453" on="1"/>
        <pt x="225" y="0" on="1"/>
        <pt x="85" y="0" on="1"/>
        <pt x="85" y="700" on="1"/>
        <pt x="216" y="700" on="1"/>
        <pt x="518" y="247" on="1"/>
        <pt x="520" y="247" on="1"/>
        <pt x="520" y="700" on="1"/>
        <pt x="660" y="700" on="1"/>
        <pt x="660" y="0" on="1"/>
        <pt x="529" y="0" on="1"/>
        <pt x="227" y="453" on="1"/>
      </contour>
    </TTGlyph>
    <TTGlyph name="Nacute" xMin="85" yMin="0" xMax="660" yMax="918">
      <component glyphName="N" x="0" y="0" flags="0x1004"/>
      <component glyphName="acute" x="115" y="200" flags="0x1004"/>
    </TTGlyph>
    <TTGlyph name="Ntilde" xMin="85" yMin="0" xMax="660" yMax="964">
      <contour>
        <pt x="225" y="453" on="1"/>
        <pt x="225" y="0" on="1"/>
        <pt x="85" y="0" on="1"/>
        <pt x="85" y="700" on="1"/>
        <pt x="216" y="700" on="1"/>
        <pt x="518" y="247" on="1"/>
        <pt x="520" y="247" on="1"/>
        <pt x="520" y="700" on="1"/>
        <pt x="660" y="700" on="1"/>
        <pt x="660" y="0" on="1"/>
        <pt x="529" y="0" on="1"/>
        <pt x="227" y="453" on="1"/>
      </contour>
      <contour>
        <pt x="292" y="867" on="1"/>
        <pt x="288" y="867" on="1"/>
        <pt x="288" y="785" on="1"/>
        <pt x="190" y="785" on="1"/>
        <pt x="190" y="909" on="1"/>
        <pt x="284" y="964" on="1"/>
        <pt x="312" y="964" on="1"/>
        <pt x="454" y="882" on="1"/>
        <pt x="458" y="882" on="1"/>
        <pt x="458" y="964" on="1"/>
        <pt x="556" y="964" on="1"/>
        <pt x="556" y="840" on="1"/>
        <pt x="462" y="785" on="1"/>
        <pt x="434" y="785" on="1"/>
      </contour>
    </TTGlyph>
    <TTGlyph name="O" xMin="85" yMin="-5" xMax="630" yMax="705">
      <contour>
        <pt x="630" y="62" on="1"/>
        <pt x="514" y="-5" on="1"/>
        <pt x="201" y="-5" on="1"/>
        <pt x="85" y="62" on="1"/>
        <pt x="85" y="638" on="1"/>
        <pt x="201" y="705" on="1"/>
        <pt x="514" y="705" on="1"/>
        <pt x="630" y="638" on="1"/>
      </contour>
      <contour>
        <pt x="225" y="585" on="1"/>
        <pt x="225" y="115" on="1"/>
        <pt x="490" y="115" on="1"/>
        <pt x="490" y="585" on="1"/>
      </contour>
    </TTGlyph>
    <TTGlyph name="OE" xMin="85" yMin="0" xMax="909" yMax="700">
      <contour>
        <pt x="630" y="300" on="1"/>
        <pt x="630" y="120" on="1"/>
        <pt x="909" y="120" on="1"/>
        <pt x="909" y="0" on="1"/>
        <pt x="201" y="0" on="1"/>
        <pt x="85" y="67" on="1"/>
        <pt x="85" y="633" on="1"/>
        <pt x="201" y="700" on="1"/>
        <pt x="909" y="700" on="1"/>
        <pt x="909" y="580" on="1"/>
        <pt x="630" y="580" on="1"/>
        <pt x="630" y="420" on="1"/>
        <pt x="849" y="420" on="1"/>
        <pt x="849" y="300" on="1"/>
      </contour>
      <contour>
        <pt x="225" y="580" on="1"/>
        <pt x="225" y="120" on="1"/>
        <pt x="490" y="120" on="1"/>
        <pt x="490" y="580" on="1"/>
      </contour>
    </TTGlyph>
    <TTGlyph name="Oacute" xMin="85" yMin="-5" xMax="630" yMax="913">
      <contour>
        <pt x="630" y="62" on="1"/>
        <pt x="514" y="-5" on="1"/>
        <pt x="201" y="-5" on="1"/>
        <pt x="85" y="62" on="1"/>
        <pt x="85" y="638" on="1"/>
        <pt x="201" y="705" on="1"/>
        <pt x="514" y="705" on="1"/>
        <pt x="630" y="638" on="1"/>
      </contour>
      <contour>
        <pt x="225" y="585" on="1"/>
        <pt x="225" y="115" on="1"/>
        <pt x="490" y="115" on="1"/>
        <pt x="490" y="585" on="1"/>
      </contour>
      <contour>
        <pt x="265" y="785" on="1"/>
        <pt x="359" y="913" on="1"/>
        <pt x="529" y="913" on="1"/>
        <pt x="385" y="785" on="1"/>
      </contour>
    </TTGlyph>
    <TTGlyph name="Ocircumflex" xMin="85" yMin="-5" xMax="630" yMax="933">
      <contour>
        <pt x="630" y="62" on="1"/>
        <pt x="514" y="-5" on="1"/>
        <pt x="201" y="-5" on="1"/>
        <pt x="85" y="62" on="1"/>
        <pt x="85" y="638" on="1"/>
        <pt x="201" y="705" on="1"/>
        <pt x="514" y="705" on="1"/>
        <pt x="630" y="638" on="1"/>
      </contour>
      <contour>
        <pt x="225" y="585" on="1"/>
        <pt x="225" y="115" on="1"/>
        <pt x="490" y="115" on="1"/>
        <pt x="490" y="585" on="1"/>
      </contour>
      <contour>
        <pt x="272" y="933" on="1"/>
        <pt x="462" y="933" on="1"/>
        <pt x="563" y="785" on="1"/>
        <pt x="448" y="785" on="1"/>
        <pt x="367" y="865" on="1"/>
        <pt x="287" y="785" on="1"/>
        <pt x="172" y="785" on="1"/>
      </contour>
    </TTGlyph>
    <TTGlyph name="Odieresis" xMin="85" yMin="-5" xMax="630" yMax="920">
      <contour>
        <pt x="630" y="62" on="1"/>
        <pt x="514" y="-5" on="1"/>
        <pt x="201" y="-5" on="1"/>
        <pt x="85" y="62" on="1"/>
        <pt x="85" y="638" on="1"/>
        <pt x="201" y="705" on="1"/>
        <pt x="514" y="705" on="1"/>
        <pt x="630" y="638" on="1"/>
      </contour>
      <contour>
        <pt x="225" y="585" on="1"/>
        <pt x="225" y="115" on="1"/>
        <pt x="490" y="115" on="1"/>
        <pt x="490" y="585" on="1"/>
      </contour>
      <contour>
        <pt x="175" y="785" on="1"/>
        <pt x="175" y="920" on="1"/>
        <pt x="310" y="920" on="1"/>
        <pt x="310" y="785" on="1"/>
      </contour>
      <contour>
        <pt x="414" y="785" on="1"/>
        <pt x="414" y="920" on="1"/>
        <pt x="549" y="920" on="1"/>
        <pt x="549" y="785" on="1"/>
      </contour>
    </TTGlyph>
    <TTGlyph name="Ograve" xMin="85" yMin="-5" xMax="630" yMax="913">
      <contour>
        <pt x="630" y="62" on="1"/>
        <pt x="514" y="-5" on="1"/>
        <pt x="201" y="-5" on="1"/>
        <pt x="85" y="62" on="1"/>
        <pt x="85" y="638" on="1"/>
        <pt x="201" y="705" on="1"/>
        <pt x="514" y="705" on="1"/>
        <pt x="630" y="638" on="1"/>
      </contour>
      <contour>
        <pt x="225" y="585" on="1"/>
        <pt x="225" y="115" on="1"/>
        <pt x="490" y="115" on="1"/>
        <pt x="490" y="585" on="1"/>
      </contour>
      <contour>
        <pt x="355" y="913" on="1"/>
        <pt x="449" y="785" on="1"/>
        <pt x="329" y="785" on="1"/>
        <pt x="185" y="913" on="1"/>
      </contour>
    </TTGlyph>
    <TTGlyph name="Oslash" xMin="85" yMin="-5" xMax="630" yMax="705">
      <contour>
        <pt x="630" y="62" on="1"/>
        <pt x="514" y="-5" on="1"/>
        <pt x="201" y="-5" on="1"/>
        <pt x="85" y="62" on="1"/>
        <pt x="85" y="638" on="1"/>
        <pt x="201" y="705" on="1"/>
        <pt x="514" y="705" on="1"/>
        <pt x="630" y="638" on="1"/>
      </contour>
      <contour>
        <pt x="274" y="115" on="1"/>
        <pt x="490" y="115" on="1"/>
        <pt x="490" y="475" on="1"/>
      </contour>
      <contour>
        <pt x="225" y="585" on="1"/>
        <pt x="225" y="225" on="1"/>
        <pt x="440" y="585" on="1"/>
      </contour>
    </TTGlyph>
    <TTGlyph name="Otilde" xMin="85" yMin="-5" xMax="630" yMax="964">
      <contour>
        <pt x="630" y="62" on="1"/>
        <pt x="514" y="-5" on="1"/>
        <pt x="201" y="-5" on="1"/>
        <pt x="85" y="62" on="1"/>
        <pt x="85" y="638" on="1"/>
        <pt x="201" y="705" on="1"/>
        <pt x="514" y="705" on="1"/>
        <pt x="630" y="638" on="1"/>
      </contour>
      <contour>
        <pt x="225" y="585" on="1"/>
        <pt x="225" y="115" on="1"/>
        <pt x="490" y="115" on="1"/>
        <pt x="490" y="585" on="1"/>
      </contour>
      <contour>
        <pt x="281" y="867" on="1"/>
        <pt x="277" y="867" on="1"/>
        <pt x="277" y="785" on="1"/>
        <pt x="179" y="785" on="1"/>
        <pt x="179" y="909" on="1"/>
        <pt x="273" y="964" on="1"/>
        <pt x="301" y="964" on="1"/>
        <pt x="443" y="882" on="1"/>
        <pt x="447" y="882" on="1"/>
        <pt x="447" y="964" on="1"/>
        <pt x="545" y="964" on="1"/>
        <pt x="545" y="840" on="1"/>
        <pt x="451" y="785" on="1"/>
        <pt x="423" y="785" on="1"/>
      </contour>
    </TTGlyph>
    <TTGlyph name="P" xMin="85" yMin="0" xMax="570" yMax="700">
      <contour>
        <pt x="85" y="0" on="1"/>
        <pt x="85" y="700" on="1"/>
        <pt x="454" y="700" on="1"/>
        <pt x="570" y="633" on="1"/>
        <pt x="570" y="321" on="1"/>
        <pt x="454" y="254" on="1"/>
        <pt x="225" y="254" on="1"/>
        <pt x="225" y="0" on="1"/>
      </contour>
      <contour>
        <pt x="225" y="580" on="1"/>
        <pt x="225" y="374" on="1"/>
        <pt x="430" y="374" on="1"/>
        <pt x="430" y="580" on="1"/>
      </contour>
    </TTGlyph>
    <TTGlyph name="Q" xMin="85" yMin="-200" xMax="630" yMax="705">
      <contour>
        <pt x="225" y="585" on="1"/>
        <pt x="225" y="115" on="1"/>
        <pt x="490" y="115" on="1"/>
        <pt x="490" y="585" on="1"/>
      </contour>
      <contour>
        <pt x="364" y="-5" on="1"/>
        <pt x="201" y="-5" on="1"/>
        <pt x="85" y="62" on="1"/>
        <pt x="85" y="638" on="1"/>
        <pt x="201" y="705" on="1"/>
        <pt x="514" y="705" on="1"/>
        <pt x="630" y="638" on="1"/>
        <pt x="630" y="62" on="1"/>
        <pt x="514" y="-5" on="1"/>
        <pt x="627" y="-200" on="1"/>
        <pt x="474" y="-200" on="1"/>
      </contour>
    </TTGlyph>
    <TTGlyph name="R" xMin="85" yMin="0" xMax="616" yMax="700">
      <contour>
        <pt x="616" y="0" on="1"/>
        <pt x="462" y="0" on="1"/>
        <pt x="312" y="264" on="1"/>
        <pt x="225" y="264" on="1"/>
        <pt x="225" y="0" on="1"/>
        <pt x="85" y="0" on="1"/>
        <pt x="85" y="700" on="1"/>
        <pt x="464" y="700" on="1"/>
        <pt x="580" y="633" on="1"/>
        <pt x="580" y="331" on="1"/>
        <pt x="464" y="264" on="1"/>
      </contour>
      <contour>
        <pt x="225" y="580" on="1"/>
        <pt x="225" y="384" on="1"/>
        <pt x="440" y="384" on="1"/>
        <pt x="440" y="580" on="1"/>
      </contour>
    </TTGlyph>
    <TTGlyph name="Racute" xMin="85" yMin="0" xMax="616" yMax="918">
      <component glyphName="R" x="0" y="0" flags="0x1004"/>
      <component glyphName="acute" x="55" y="200" flags="0x1004"/>
    </TTGlyph>
    <TTGlyph name="Rcaron" xMin="85" yMin="0" xMax="616" yMax="938">
      <component glyphName="R" x="0" y="0" flags="0x1004"/>
      <component glyphName="caron" x="66" y="200" flags="0x1004"/>
    </TTGlyph>
    <TTGlyph name="Rcommaaccent" xMin="85" yMin="-367" xMax="616" yMax="700">
      <contour>
        <pt x="616" y="0" on="1"/>
        <pt x="462" y="0" on="1"/>
        <pt x="312" y="264" on="1"/>
        <pt x="225" y="264" on="1"/>
        <pt x="225" y="0" on="1"/>
        <pt x="85" y="0" on="1"/>
        <pt x="85" y="700" on="1"/>
        <pt x="464" y="700" on="1"/>
        <pt x="580" y="633" on="1"/>
        <pt x="580" y="331" on="1"/>
        <pt x="464" y="264" on="1"/>
      </contour>
      <contour>
        <pt x="225" y="580" on="1"/>
        <pt x="225" y="384" on="1"/>
        <pt x="440" y="384" on="1"/>
        <pt x="440" y="580" on="1"/>
      </contour>
      <contour>
        <pt x="256" y="-367" on="1"/>
        <pt x="256" y="-55" on="1"/>
        <pt x="408" y="-55" on="1"/>
        <pt x="408" y="-121" on="1"/>
        <pt x="322" y="-367" on="1"/>
      </contour>
    </TTGlyph>
    <TTGlyph name="S" xMin="75" yMin="-5" xMax="570" yMax="705">
      <contour>
        <pt x="85" y="355" on="1"/>
        <pt x="85" y="638" on="1"/>
        <pt x="201" y="705" on="1"/>
        <pt x="454" y="705" on="1"/>
        <pt x="570" y="638" on="1"/>
        <pt x="570" y="505" on="1"/>
        <pt x="430" y="505" on="1"/>
        <pt x="430" y="585" on="1"/>
        <pt x="225" y="585" on="1"/>
        <pt x="225" y="418" on="1"/>
        <pt x="454" y="418" on="1"/>
        <pt x="570" y="351" on="1"/>
        <pt x="570" y="62" on="1"/>
        <pt x="454" y="-5" on="1"/>
        <pt x="191" y="-5" on="1"/>
        <pt x="75" y="62" on="1"/>
        <pt x="75" y="195" on="1"/>
        <pt x="215" y="195" on="1"/>
        <pt x="215" y="115" on="1"/>
        <pt x="430" y="115" on="1"/>
        <pt x="430" y="288" on="1"/>
        <pt x="201" y="288" on="1"/>
      </contour>
    </TTGlyph>
    <TTGlyph name="Scaron" xMin="75" yMin="-5" xMax="570" yMax="933">
      <contour>
        <pt x="85" y="355" on="1"/>
        <pt x="85" y="638" on="1"/>
        <pt x="201" y="705" on="1"/>
        <pt x="454" y="705" on="1"/>
        <pt x="570" y="638" on="1"/>
        <pt x="570" y="505" on="1"/>
        <pt x="430" y="505" on="1"/>
        <pt x="430" y="585" on="1"/>
        <pt x="225" y="585" on="1"/>
        <pt x="225" y="418" on="1"/>
        <pt x="454" y="418" on="1"/>
        <pt x="570" y="351" on="1"/>
        <pt x="570" y="62" on="1"/>
        <pt x="454" y="-5" on="1"/>
        <pt x="191" y="-5" on="1"/>
        <pt x="75" y="62" on="1"/>
        <pt x="75" y="195" on="1"/>
        <pt x="215" y="195" on="1"/>
        <pt x="215" y="115" on="1"/>
        <pt x="430" y="115" on="1"/>
        <pt x="430" y="288" on="1"/>
        <pt x="201" y="288" on="1"/>
      </contour>
      <contour>
        <pt x="422" y="785" on="1"/>
        <pt x="232" y="785" on="1"/>
        <pt x="131" y="933" on="1"/>
        <pt x="246" y="933" on="1"/>
        <pt x="327" y="853" on="1"/>
        <pt x="407" y="933" on="1"/>
        <pt x="522" y="933" on="1"/>
      </contour>
    </TTGlyph>
    <TTGlyph name="T" xMin="25" yMin="0" xMax="543" yMax="700">
      <contour>
        <pt x="354" y="580" on="1"/>
        <pt x="354" y="0" on="1"/>
        <pt x="214" y="0" on="1"/>
        <pt x="214" y="580" on="1"/>
        <pt x="25" y="580" on="1"/>
        <pt x="25" y="700" on="1"/>
        <pt x="543" y="700" on="1"/>
        <pt x="543" y="580" on="1"/>
      </contour>
    </TTGlyph>
    <TTGlyph name="Thorn" xMin="85" yMin="0" xMax="570" yMax="730">
      <contour>
        <pt x="85" y="0" on="1"/>
        <pt x="85" y="730" on="1"/>
        <pt x="225" y="730" on="1"/>
        <pt x="225" y="602" on="1"/>
        <pt x="454" y="602" on="1"/>
        <pt x="570" y="535" on="1"/>
        <pt x="570" y="208" on="1"/>
        <pt x="454" y="141" on="1"/>
        <pt x="225" y="141" on="1"/>
        <pt x="225" y="0" on="1"/>
      </contour>
      <contour>
        <pt x="225" y="482" on="1"/>
        <pt x="225" y="261" on="1"/>
        <pt x="430" y="261" on="1"/>
        <pt x="430" y="482" on="1"/>
      </contour>
    </TTGlyph>
    <TTGlyph name="U" xMin="85" yMin="-5" xMax="630" yMax="700">
      <contour>
        <pt x="490" y="700" on="1"/>
        <pt x="630" y="700" on="1"/>
        <pt x="630" y="62" on="1"/>
        <pt x="514" y="-5" on="1"/>
        <pt x="201" y="-5" on="1"/>
        <pt x="85" y="62" on="1"/>
        <pt x="85" y="700" on="1"/>
        <pt x="225" y="700" on="1"/>
        <pt x="225" y="125" on="1"/>
        <pt x="490" y="125" on="1"/>
      </contour>
    </TTGlyph>
    <TTGlyph name="Uacute" xMin="85" yMin="-5" xMax="630" yMax="913">
      <contour>
        <pt x="490" y="700" on="1"/>
        <pt x="630" y="700" on="1"/>
        <pt x="630" y="62" on="1"/>
        <pt x="514" y="-5" on="1"/>
        <pt x="201" y="-5" on="1"/>
        <pt x="85" y="62" on="1"/>
        <pt x="85" y="700" on="1"/>
        <pt x="225" y="700" on="1"/>
        <pt x="225" y="125" on="1"/>
        <pt x="490" y="125" on="1"/>
      </contour>
      <contour>
        <pt x="280" y="785" on="1"/>
        <pt x="374" y="913" on="1"/>
        <pt x="544" y="913" on="1"/>
        <pt x="400" y="785" on="1"/>
      </contour>
    </TTGlyph>
    <TTGlyph name="Ucircumflex" xMin="85" yMin="-5" xMax="630" yMax="933">
      <contour>
        <pt x="490" y="700" on="1"/>
        <pt x="630" y="700" on="1"/>
        <pt x="630" y="62" on="1"/>
        <pt x="514" y="-5" on="1"/>
        <pt x="201" y="-5" on="1"/>
        <pt x="85" y="62" on="1"/>
        <pt x="85" y="700" on="1"/>
        <pt x="225" y="700" on="1"/>
        <pt x="225" y="125" on="1"/>
        <pt x="490" y="125" on="1"/>
      </contour>
      <contour>
        <pt x="270" y="933" on="1"/>
        <pt x="460" y="933" on="1"/>
        <pt x="561" y="785" on="1"/>
        <pt x="446" y="785" on="1"/>
        <pt x="365" y="865" on="1"/>
        <pt x="285" y="785" on="1"/>
        <pt x="170" y="785" on="1"/>
      </contour>
    </TTGlyph>
    <TTGlyph name="Udieresis" xMin="85" yMin="-5" xMax="630" yMax="920">
      <contour>
        <pt x="490" y="700" on="1"/>
        <pt x="630" y="700" on="1"/>
        <pt x="630" y="62" on="1"/>
        <pt x="514" y="-5" on="1"/>
        <pt x="201" y="-5" on="1"/>
        <pt x="85" y="62" on="1"/>
        <pt x="85" y="700" on="1"/>
        <pt x="225" y="700" on="1"/>
        <pt x="225" y="125" on="1"/>
        <pt x="490" y="125" on="1"/>
      </contour>
      <contour>
        <pt x="175" y="785" on="1"/>
        <pt x="175" y="920" on="1"/>
        <pt x="310" y="920" on="1"/>
        <pt x="310" y="785" on="1"/>
      </contour>
      <contour>
        <pt x="414" y="785" on="1"/>
        <pt x="414" y="920" on="1"/>
        <pt x="549" y="920" on="1"/>
        <pt x="549" y="785" on="1"/>
      </contour>
    </TTGlyph>
    <TTGlyph name="Ugrave" xMin="85" yMin="-5" xMax="630" yMax="913">
      <contour>
        <pt x="490" y="700" on="1"/>
        <pt x="630" y="700" on="1"/>
        <pt x="630" y="62" on="1"/>
        <pt x="514" y="-5" on="1"/>
        <pt x="201" y="-5" on="1"/>
        <pt x="85" y="62" on="1"/>
        <pt x="85" y="700" on="1"/>
        <pt x="225" y="700" on="1"/>
        <pt x="225" y="125" on="1"/>
        <pt x="490" y="125" on="1"/>
      </contour>
      <contour>
        <pt x="345" y="913" on="1"/>
        <pt x="439" y="785" on="1"/>
        <pt x="319" y="785" on="1"/>
        <pt x="175" y="913" on="1"/>
      </contour>
    </TTGlyph>
    <TTGlyph name="V" xMin="15" yMin="0" xMax="669" yMax="700">
      <contour>
        <pt x="669" y="700" on="1"/>
        <pt x="419" y="0" on="1"/>
        <pt x="265" y="0" on="1"/>
        <pt x="15" y="700" on="1"/>
        <pt x="157" y="700" on="1"/>
        <pt x="342" y="171" on="1"/>
        <pt x="344" y="171" on="1"/>
        <pt x="527" y="700" on="1"/>
      </contour>
    </TTGlyph>
    <TTGlyph name="W" xMin="25" yMin="0" xMax="935" yMax="700">
      <contour>
        <pt x="935" y="700" on="1"/>
        <pt x="757" y="0" on="1"/>
        <pt x="607" y="0" on="1"/>
        <pt x="481" y="473" on="1"/>
        <pt x="479" y="473" on="1"/>
        <pt x="353" y="0" on="1"/>
        <pt x="203" y="0" on="1"/>
        <pt x="25" y="700" on="1"/>
        <pt x="161" y="700" on="1"/>
        <pt x="279" y="220" on="1"/>
        <pt x="281" y="220" on="1"/>
        <pt x="409" y="700" on="1"/>
        <pt x="551" y="700" on="1"/>
        <pt x="679" y="222" on="1"/>
        <pt x="681" y="222" on="1"/>
        <pt x="799" y="700" on="1"/>
      </contour>
    </TTGlyph>
    <TTGlyph name="X" xMin="25" yMin="0" xMax="636" yMax="700">
      <contour>
        <pt x="25" y="0" on="1"/>
        <pt x="251" y="358" on="1"/>
        <pt x="35" y="700" on="1"/>
        <pt x="193" y="700" on="1"/>
        <pt x="330" y="483" on="1"/>
        <pt x="468" y="700" on="1"/>
        <pt x="626" y="700" on="1"/>
        <pt x="409" y="358" on="1"/>
        <pt x="636" y="0" on="1"/>
        <pt x="478" y="0" on="1"/>
        <pt x="330" y="233" on="1"/>
        <pt x="183" y="0" on="1"/>
      </contour>
    </TTGlyph>
    <TTGlyph name="Y" xMin="15" yMin="0" xMax="606" yMax="700">
      <contour>
        <pt x="240" y="0" on="1"/>
        <pt x="240" y="299" on="1"/>
        <pt x="15" y="700" on="1"/>
        <pt x="167" y="700" on="1"/>
        <pt x="309" y="438" on="1"/>
        <pt x="311" y="438" on="1"/>
        <pt x="454" y="700" on="1"/>
        <pt x="606" y="700" on="1"/>
        <pt x="380" y="298" on="1"/>
        <pt x="380" y="0" on="1"/>
      </contour>
    </TTGlyph>
    <TTGlyph name="Yacute" xMin="15" yMin="0" xMax="606" yMax="913">
      <contour>
        <pt x="240" y="0" on="1"/>
        <pt x="240" y="299" on="1"/>
        <pt x="15" y="700" on="1"/>
        <pt x="167" y="700" on="1"/>
        <pt x="309" y="438" on="1"/>
        <pt x="311" y="438" on="1"/>
        <pt x="454" y="700" on="1"/>
        <pt x="606" y="700" on="1"/>
        <pt x="380" y="298" on="1"/>
        <pt x="380" y="0" on="1"/>
      </contour>
      <contour>
        <pt x="225" y="785" on="1"/>
        <pt x="319" y="913" on="1"/>
        <pt x="489" y="913" on="1"/>
        <pt x="345" y="785" on="1"/>
      </contour>
    </TTGlyph>
    <TTGlyph name="Ydieresis" xMin="15" yMin="0" xMax="606" yMax="920">
      <contour>
        <pt x="240" y="0" on="1"/>
        <pt x="240" y="299" on="1"/>
        <pt x="15" y="700" on="1"/>
        <pt x="167" y="700" on="1"/>
        <pt x="309" y="438" on="1"/>
        <pt x="311" y="438" on="1"/>
        <pt x="454" y="700" on="1"/>
        <pt x="606" y="700" on="1"/>
        <pt x="380" y="298" on="1"/>
        <pt x="380" y="0" on="1"/>
      </contour>
      <contour>
        <pt x="128" y="785" on="1"/>
        <pt x="128" y="920" on="1"/>
        <pt x="263" y="920" on="1"/>
        <pt x="263" y="785" on="1"/>
      </contour>
      <contour>
        <pt x="367" y="785" on="1"/>
        <pt x="367" y="920" on="1"/>
        <pt x="502" y="920" on="1"/>
        <pt x="502" y="785" on="1"/>
      </contour>
    </TTGlyph>
    <TTGlyph name="Z" xMin="45" yMin="0" xMax="540" yMax="700">
      <contour>
        <pt x="65" y="580" on="1"/>
        <pt x="65" y="700" on="1"/>
        <pt x="540" y="700" on="1"/>
        <pt x="540" y="610" on="1"/>
        <pt x="225" y="122" on="1"/>
        <pt x="225" y="120" on="1"/>
        <pt x="540" y="120" on="1"/>
        <pt x="540" y="0" on="1"/>
        <pt x="45" y="0" on="1"/>
        <pt x="45" y="90" on="1"/>
        <pt x="360" y="578" on="1"/>
        <pt x="360" y="580" on="1"/>
      </contour>
    </TTGlyph>
    <TTGlyph name="Zcaron" xMin="45" yMin="0" xMax="540" yMax="933">
      <contour>
        <pt x="65" y="580" on="1"/>
        <pt x="65" y="700" on="1"/>
        <pt x="540" y="700" on="1"/>
        <pt x="540" y="610" on="1"/>
        <pt x="225" y="122" on="1"/>
        <pt x="225" y="120" on="1"/>
        <pt x="540" y="120" on="1"/>
        <pt x="540" y="0" on="1"/>
        <pt x="45" y="0" on="1"/>
        <pt x="45" y="90" on="1"/>
        <pt x="360" y="578" on="1"/>
        <pt x="360" y="580" on="1"/>
      </contour>
      <contour>
        <pt x="412" y="785" on="1"/>
        <pt x="222" y="785" on="1"/>
        <pt x="121" y="933" on="1"/>
        <pt x="236" y="933" on="1"/>
        <pt x="317" y="853" on="1"/>
        <pt x="397" y="933" on="1"/>
        <pt x="512" y="933" on="1"/>
      </contour>
    </TTGlyph>
    <TTGlyph name="a" xMin="55" yMin="-5" xMax="470" yMax="500">
      <contour>
        <pt x="192" y="197" on="1"/>
        <pt x="192" y="110" on="1"/>
        <pt x="333" y="110" on="1"/>
        <pt x="333" y="197" on="1"/>
      </contour>
      <contour>
        <pt x="171" y="-5" on="1"/>
        <pt x="55" y="62" on="1"/>
        <pt x="55" y="235" on="1"/>
        <pt x="171" y="302" on="1"/>
        <pt x="333" y="302" on="1"/>
        <pt x="333" y="383" on="1"/>
        <pt x="105" y="383" on="1"/>
        <pt x="105" y="500" on="1"/>
        <pt x="354" y="500" on="1"/>
        <pt x="470" y="433" on="1"/>
        <pt x="470" y="-5" on="1"/>
        <pt x="404" y="-5" on="1"/>
        <pt x="333" y="36" on="1"/>
        <pt x="262" y="-5" on="1"/>
      </contour>
    </TTGlyph>
    <TTGlyph name="a.alt" xMin="75" yMin="-5" xMax="520" yMax="505">
      <contour>
        <pt x="383" y="112" on="1"/>
        <pt x="383" y="388" on="1"/>
        <pt x="212" y="388" on="1"/>
        <pt x="212" y="112" on="1"/>
      </contour>
      <contour>
        <pt x="520" y="505" on="1"/>
        <pt x="520" y="-5" on="1"/>
        <pt x="454" y="-5" on="1"/>
        <pt x="383" y="36" on="1"/>
        <pt x="312" y="-5" on="1"/>
        <pt x="191" y="-5" on="1"/>
        <pt x="75" y="62" on="1"/>
        <pt x="75" y="438" on="1"/>
        <pt x="191" y="505" on="1"/>
        <pt x="312" y="505" on="1"/>
        <pt x="383" y="464" on="1"/>
        <pt x="454" y="505" on="1"/>
      </contour>
    </TTGlyph>
    <TTGlyph name="aacute" xMin="55" yMin="-5" xMax="470" yMax="718">
      <contour>
        <pt x="192" y="197" on="1"/>
        <pt x="192" y="110" on="1"/>
        <pt x="333" y="110" on="1"/>
        <pt x="333" y="197" on="1"/>
      </contour>
      <contour>
        <pt x="171" y="-5" on="1"/>
        <pt x="55" y="62" on="1"/>
        <pt x="55" y="235" on="1"/>
        <pt x="171" y="302" on="1"/>
        <pt x="333" y="302" on="1"/>
        <pt x="333" y="383" on="1"/>
        <pt x="105" y="383" on="1"/>
        <pt x="105" y="500" on="1"/>
        <pt x="354" y="500" on="1"/>
        <pt x="470" y="433" on="1"/>
        <pt x="470" y="-5" on="1"/>
        <pt x="404" y="-5" on="1"/>
        <pt x="333" y="36" on="1"/>
        <pt x="262" y="-5" on="1"/>
      </contour>
      <contour>
        <pt x="165" y="590" on="1"/>
        <pt x="259" y="718" on="1"/>
        <pt x="429" y="718" on="1"/>
        <pt x="285" y="590" on="1"/>
      </contour>
    </TTGlyph>
    <TTGlyph name="acircumflex" xMin="55" yMin="-5" xMax="481" yMax="738">
      <contour>
        <pt x="192" y="197" on="1"/>
        <pt x="192" y="110" on="1"/>
        <pt x="333" y="110" on="1"/>
        <pt x="333" y="197" on="1"/>
      </contour>
      <contour>
        <pt x="171" y="-5" on="1"/>
        <pt x="55" y="62" on="1"/>
        <pt x="55" y="235" on="1"/>
        <pt x="171" y="302" on="1"/>
        <pt x="333" y="302" on="1"/>
        <pt x="333" y="383" on="1"/>
        <pt x="105" y="383" on="1"/>
        <pt x="105" y="500" on="1"/>
        <pt x="354" y="500" on="1"/>
        <pt x="470" y="433" on="1"/>
        <pt x="470" y="-5" on="1"/>
        <pt x="404" y="-5" on="1"/>
        <pt x="333" y="36" on="1"/>
        <pt x="262" y="-5" on="1"/>
      </contour>
      <contour>
        <pt x="190" y="738" on="1"/>
        <pt x="380" y="738" on="1"/>
        <pt x="481" y="590" on="1"/>
        <pt x="366" y="590" on="1"/>
        <pt x="285" y="670" on="1"/>
        <pt x="205" y="590" on="1"/>
        <pt x="90" y="590" on="1"/>
      </contour>
    </TTGlyph>
    <TTGlyph name="acute" xMin="165" yMin="590" xMax="429" yMax="718">
      <contour>
        <pt x="165" y="590" on="1"/>
        <pt x="259" y="718" on="1"/>
        <pt x="429" y="718" on="1"/>
        <pt x="285" y="590" on="1"/>
      </contour>
    </TTGlyph>
    <TTGlyph name="acute.cap" xMin="165" yMin="780" xMax="429" yMax="908">
      <contour>
        <pt x="165" y="780" on="1"/>
        <pt x="259" y="908" on="1"/>
        <pt x="429" y="908" on="1"/>
        <pt x="285" y="780" on="1"/>
      </contour>
    </TTGlyph>
    <TTGlyph name="adieresis" xMin="55" yMin="-5" xMax="471" yMax="730">
      <contour>
        <pt x="192" y="197" on="1"/>
        <pt x="192" y="110" on="1"/>
        <pt x="333" y="110" on="1"/>
        <pt x="333" y="197" on="1"/>
      </contour>
      <contour>
        <pt x="171" y="-5" on="1"/>
        <pt x="55" y="62" on="1"/>
        <pt x="55" y="235" on="1"/>
        <pt x="171" y="302" on="1"/>
        <pt x="333" y="302" on="1"/>
        <pt x="333" y="383" on="1"/>
        <pt x="105" y="383" on="1"/>
        <pt x="105" y="500" on="1"/>
        <pt x="354" y="500" on="1"/>
        <pt x="470" y="433" on="1"/>
        <pt x="470" y="-5" on="1"/>
        <pt x="404" y="-5" on="1"/>
        <pt x="333" y="36" on="1"/>
        <pt x="262" y="-5" on="1"/>
      </contour>
      <contour>
        <pt x="97" y="595" on="1"/>
        <pt x="97" y="730" on="1"/>
        <pt x="232" y="730" on="1"/>
        <pt x="232" y="595" on="1"/>
      </contour>
      <contour>
        <pt x="336" y="595" on="1"/>
        <pt x="336" y="730" on="1"/>
        <pt x="471" y="730" on="1"/>
        <pt x="471" y="595" on="1"/>
      </contour>
    </TTGlyph>
    <TTGlyph name="ae" xMin="55" yMin="-5" xMax="748" yMax="505">
      <contour>
        <pt x="748" y="117" on="1"/>
        <pt x="748" y="0" on="1"/>
        <pt x="449" y="0" on="1"/>
        <pt x="360" y="51" on="1"/>
        <pt x="262" y="-5" on="1"/>
        <pt x="171" y="-5" on="1"/>
        <pt x="55" y="62" on="1"/>
        <pt x="55" y="235" on="1"/>
        <pt x="171" y="302" on="1"/>
        <pt x="333" y="302" on="1"/>
        <pt x="333" y="383" on="1"/>
        <pt x="105" y="383" on="1"/>
        <pt x="105" y="500" on="1"/>
        <pt x="334" y="500" on="1"/>
        <pt x="397" y="463" on="1"/>
        <pt x="469" y="505" on="1"/>
        <pt x="632" y="505" on="1"/>
        <pt x="748" y="438" on="1"/>
        <pt x="748" y="199" on="1"/>
        <pt x="470" y="199" on="1"/>
        <pt x="470" y="117" on="1"/>
      </contour>
      <contour>
        <pt x="192" y="197" on="1"/>
        <pt x="192" y="110" on="1"/>
        <pt x="333" y="110" on="1"/>
        <pt x="333" y="197" on="1"/>
      </contour>
      <contour>
        <pt x="470" y="388" on="1"/>
        <pt x="470" y="302" on="1"/>
        <pt x="611" y="302" on="1"/>
        <pt x="611" y="388" on="1"/>
      </contour>
    </TTGlyph>
    <TTGlyph name="agrave" xMin="55" yMin="-5" xMax="470" yMax="718">
      <contour>
        <pt x="192" y="197" on="1"/>
        <pt x="192" y="110" on="1"/>
        <pt x="333" y="110" on="1"/>
        <pt x="333" y="197" on="1"/>
      </contour>
      <contour>
        <pt x="171" y="-5" on="1"/>
        <pt x="55" y="62" on="1"/>
        <pt x="55" y="235" on="1"/>
        <pt x="171" y="302" on="1"/>
        <pt x="333" y="302" on="1"/>
        <pt x="333" y="383" on="1"/>
        <pt x="105" y="383" on="1"/>
        <pt x="105" y="500" on="1"/>
        <pt x="354" y="500" on="1"/>
        <pt x="470" y="433" on="1"/>
        <pt x="470" y="-5" on="1"/>
        <pt x="404" y="-5" on="1"/>
        <pt x="333" y="36" on="1"/>
        <pt x="262" y="-5" on="1"/>
      </contour>
      <contour>
        <pt x="294" y="718" on="1"/>
        <pt x="388" y="590" on="1"/>
        <pt x="268" y="590" on="1"/>
        <pt x="124" y="718" on="1"/>
      </contour>
    </TTGlyph>
    <TTGlyph name="ampersand" xMin="85" yMin="-5" xMax="640" yMax="705">
      <contour>
        <pt x="640" y="422" on="1"/>
        <pt x="640" y="302" on="1"/>
        <pt x="566" y="302" on="1"/>
        <pt x="566" y="62" on="1"/>
        <pt x="450" y="-5" on="1"/>
        <pt x="201" y="-5" on="1"/>
        <pt x="85" y="62" on="1"/>
        <pt x="85" y="311" on="1"/>
        <pt x="172" y="361" on="1"/>
        <pt x="172" y="363" on="1"/>
        <pt x="85" y="413" on="1"/>
        <pt x="85" y="638" on="1"/>
        <pt x="201" y="705" on="1"/>
        <pt x="410" y="705" on="1"/>
        <pt x="526" y="638" on="1"/>
        <pt x="526" y="495" on="1"/>
        <pt x="386" y="495" on="1"/>
        <pt x="386" y="585" on="1"/>
        <pt x="225" y="585" on="1"/>
        <pt x="225" y="422" on="1"/>
        <pt x="370" y="422" on="1"/>
        <pt x="370" y="302" on="1"/>
        <pt x="225" y="302" on="1"/>
        <pt x="225" y="115" on="1"/>
        <pt x="426" y="115" on="1"/>
        <pt x="426" y="355" on="1"/>
        <pt x="542" y="422" on="1"/>
      </contour>
    </TTGlyph>
    <TTGlyph name="apple" xMin="80" yMin="-23" xMax="778" yMax="811">
      <contour>
        <pt x="154" y="107" on="1"/>
        <pt x="80" y="235" on="0"/>
        <pt x="80" y="467" on="0"/>
        <pt x="187" y="618" on="0"/>
        <pt x="279" y="618" on="1"/>
        <pt x="314" y="618" on="0"/>
        <pt x="420" y="588" on="0"/>
        <pt x="457" y="588" on="0"/>
        <pt x="559" y="622" on="0"/>
        <pt x="595" y="622" on="1"/>
        <pt x="655" y="622" on="0"/>
        <pt x="702" y="590" on="1"/>
        <pt x="732" y="567" on="0"/>
        <pt x="754" y="540" on="1"/>
        <pt x="709" y="501" on="0"/>
        <pt x="664" y="429" on="0"/>
        <pt x="664" y="314" on="0"/>
        <pt x="732" y="216" on="0"/>
        <pt x="778" y="202" on="1"/>
        <pt x="757" y="138" on="0"/>
        <pt x="716" y="77" on="1"/>
        <pt x="651" y="-21" on="0"/>
        <pt x="587" y="-21" on="1"/>
        <pt x="561" y="-21" on="0"/>
        <pt x="475" y="11" on="0"/>
        <pt x="412" y="11" on="0"/>
        <pt x="328" y="-23" on="0"/>
        <pt x="304" y="-23" on="1"/>
        <pt x="227" y="-23" on="0"/>
      </contour>
      <contour>
        <pt x="589" y="790" on="1"/>
        <pt x="589" y="713" on="0"/>
        <pt x="528" y="652" on="1"/>
        <pt x="504" y="628" on="0"/>
        <pt x="465" y="612" on="0"/>
        <pt x="422" y="608" on="1"/>
        <pt x="424" y="773" on="0"/>
        <pt x="586" y="811" on="1"/>
        <pt x="589" y="802" on="0"/>
      </contour>
    </TTGlyph>
    <TTGlyph name="approxequal" xMin="85" yMin="30" xMax="647" yMax="465">
      <contour>
        <pt x="277" y="112" on="1"/>
        <pt x="202" y="112" on="1"/>
        <pt x="202" y="30" on="1"/>
        <pt x="85" y="30" on="1"/>
        <pt x="85" y="162" on="1"/>
        <pt x="201" y="229" on="1"/>
        <pt x="314" y="229" on="1"/>
        <pt x="455" y="147" on="1"/>
        <pt x="530" y="147" on="1"/>
        <pt x="530" y="229" on="1"/>
        <pt x="647" y="229" on="1"/>
        <pt x="647" y="97" on="1"/>
        <pt x="531" y="30" on="1"/>
        <pt x="418" y="30" on="1"/>
      </contour>
      <contour>
        <pt x="277" y="348" on="1"/>
        <pt x="202" y="348" on="1"/>
        <pt x="202" y="266" on="1"/>
        <pt x="85" y="266" on="1"/>
        <pt x="85" y="398" on="1"/>
        <pt x="201" y="465" on="1"/>
        <pt x="314" y="465" on="1"/>
        <pt x="455" y="383" on="1"/>
        <pt x="530" y="383" on="1"/>
        <pt x="530" y="465" on="1"/>
        <pt x="647" y="465" on="1"/>
        <pt x="647" y="333" on="1"/>
        <pt x="531" y="266" on="1"/>
        <pt x="418" y="266" on="1"/>
      </contour>
    </TTGlyph>
    <TTGlyph name="aring" xMin="55" yMin="-5" xMax="470" yMax="873">
      <contour>
        <pt x="192" y="197" on="1"/>
        <pt x="192" y="110" on="1"/>
        <pt x="333" y="110" on="1"/>
        <pt x="333" y="197" on="1"/>
      </contour>
      <contour>
        <pt x="171" y="-5" on="1"/>
        <pt x="55" y="62" on="1"/>
        <pt x="55" y="235" on="1"/>
        <pt x="171" y="302" on="1"/>
        <pt x="333" y="302" on="1"/>
        <pt x="333" y="383" on="1"/>
        <pt x="105" y="383" on="1"/>
        <pt x="105" y="500" on="1"/>
        <pt x="354" y="500" on="1"/>
        <pt x="470" y="433" on="1"/>
        <pt x="470" y="-5" on="1"/>
        <pt x="404" y="-5" on="1"/>
        <pt x="333" y="36" on="1"/>
        <pt x="262" y="-5" on="1"/>
      </contour>
      <contour>
        <pt x="447" y="617" on="1"/>
        <pt x="365" y="570" on="1"/>
        <pt x="204" y="570" on="1"/>
        <pt x="122" y="617" on="1"/>
        <pt x="122" y="826" on="1"/>
        <pt x="204" y="873" on="1"/>
        <pt x="365" y="873" on="1"/>
        <pt x="447" y="826" on="1"/>
      </contour>
      <contour>
        <pt x="227" y="778" on="1"/>
        <pt x="227" y="665" on="1"/>
        <pt x="342" y="665" on="1"/>
        <pt x="342" y="778" on="1"/>
      </contour>
    </TTGlyph>
    <TTGlyph name="asciicircum" xMin="45" yMin="380" xMax="567" yMax="700">
      <contour>
        <pt x="192" y="380" on="1"/>
        <pt x="45" y="380" on="1"/>
        <pt x="245" y="700" on="1"/>
        <pt x="367" y="700" on="1"/>
        <pt x="567" y="380" on="1"/>
        <pt x="420" y="380" on="1"/>
        <pt x="307" y="573" on="1"/>
        <pt x="306" y="573" on="1"/>
      </contour>
    </TTGlyph>
    <TTGlyph name="asciitilde" xMin="55" yMin="173" xMax="617" yMax="372">
      <contour>
        <pt x="247" y="255" on="1"/>
        <pt x="172" y="255" on="1"/>
        <pt x="172" y="173" on="1"/>
        <pt x="55" y="173" on="1"/>
        <pt x="55" y="305" on="1"/>
        <pt x="171" y="372" on="1"/>
        <pt x="284" y="372" on="1"/>
        <pt x="425" y="290" on="1"/>
        <pt x="500" y="290" on="1"/>
        <pt x="500" y="372" on="1"/>
        <pt x="617" y="372" on="1"/>
        <pt x="617" y="240" on="1"/>
        <pt x="501" y="173" on="1"/>
        <pt x="388" y="173" on="1"/>
      </contour>
    </TTGlyph>
    <TTGlyph name="asterisk" xMin="75" yMin="236" xMax="574" yMax="710">
      <contour>
        <pt x="325" y="376" on="1"/>
        <pt x="324" y="376" on="1"/>
        <pt x="233" y="236" on="1"/>
        <pt x="130" y="310" on="1"/>
        <pt x="236" y="440" on="1"/>
        <pt x="75" y="483" on="1"/>
        <pt x="114" y="604" on="1"/>
        <pt x="270" y="543" on="1"/>
        <pt x="261" y="710" on="1"/>
        <pt x="388" y="710" on="1"/>
        <pt x="379" y="543" on="1"/>
        <pt x="535" y="604" on="1"/>
        <pt x="574" y="483" on="1"/>
        <pt x="413" y="440" on="1"/>
        <pt x="519" y="310" on="1"/>
        <pt x="416" y="236" on="1"/>
      </contour>
    </TTGlyph>
    <TTGlyph name="at" xMin="85" yMin="-141" xMax="935" yMax="705">
      <contour>
        <pt x="819" y="-141" on="1"/>
        <pt x="201" y="-141" on="1"/>
        <pt x="85" y="-74" on="1"/>
        <pt x="85" y="638" on="1"/>
        <pt x="201" y="705" on="1"/>
        <pt x="819" y="705" on="1"/>
        <pt x="935" y="638" on="1"/>
        <pt x="935" y="104" on="1"/>
        <pt x="819" y="37" on="1"/>
        <pt x="609" y="37" on="1"/>
        <pt x="543" y="78" on="1"/>
        <pt x="467" y="37" on="1"/>
        <pt x="386" y="37" on="1"/>
        <pt x="277" y="104" on="1"/>
        <pt x="316" y="470" on="1"/>
        <pt x="439" y="537" on="1"/>
        <pt x="520" y="537" on="1"/>
        <pt x="586" y="496" on="1"/>
        <pt x="662" y="537" on="1"/>
        <pt x="728" y="537" on="1"/>
        <pt x="687" y="147" on="1"/>
        <pt x="805" y="147" on="1"/>
        <pt x="805" y="595" on="1"/>
        <pt x="215" y="595" on="1"/>
        <pt x="215" y="-31" on="1"/>
        <pt x="819" y="-31" on="1"/>
      </contour>
      <contour>
        <pt x="447" y="420" on="1"/>
        <pt x="420" y="154" on="1"/>
        <pt x="551" y="154" on="1"/>
        <pt x="578" y="420" on="1"/>
      </contour>
    </TTGlyph>
    <TTGlyph name="atilde" xMin="55" yMin="-5" xMax="470" yMax="764">
      <contour>
        <pt x="192" y="197" on="1"/>
        <pt x="192" y="110" on="1"/>
        <pt x="333" y="110" on="1"/>
        <pt x="333" y="197" on="1"/>
      </contour>
      <contour>
        <pt x="171" y="-5" on="1"/>
        <pt x="55" y="62" on="1"/>
        <pt x="55" y="235" on="1"/>
        <pt x="171" y="302" on="1"/>
        <pt x="333" y="302" on="1"/>
        <pt x="333" y="383" on="1"/>
        <pt x="105" y="383" on="1"/>
        <pt x="105" y="500" on="1"/>
        <pt x="354" y="500" on="1"/>
        <pt x="470" y="433" on="1"/>
        <pt x="470" y="-5" on="1"/>
        <pt x="404" y="-5" on="1"/>
        <pt x="333" y="36" on="1"/>
        <pt x="262" y="-5" on="1"/>
      </contour>
      <contour>
        <pt x="192" y="667" on="1"/>
        <pt x="188" y="667" on="1"/>
        <pt x="188" y="585" on="1"/>
        <pt x="90" y="585" on="1"/>
        <pt x="90" y="709" on="1"/>
        <pt x="184" y="764" on="1"/>
        <pt x="212" y="764" on="1"/>
        <pt x="354" y="682" on="1"/>
        <pt x="358" y="682" on="1"/>
        <pt x="358" y="764" on="1"/>
        <pt x="456" y="764" on="1"/>
        <pt x="456" y="640" on="1"/>
        <pt x="362" y="585" on="1"/>
        <pt x="334" y="585" on="1"/>
      </contour>
    </TTGlyph>
    <TTGlyph name="b" xMin="75" yMin="-5" xMax="530" yMax="730">
      <contour>
        <pt x="283" y="505" on="1"/>
        <pt x="414" y="505" on="1"/>
        <pt x="530" y="438" on="1"/>
        <pt x="530" y="62" on="1"/>
        <pt x="414" y="-5" on="1"/>
        <pt x="283" y="-5" on="1"/>
        <pt x="212" y="36" on="1"/>
        <pt x="141" y="-5" on="1"/>
        <pt x="75" y="-5" on="1"/>
        <pt x="75" y="730" on="1"/>
        <pt x="212" y="730" on="1"/>
        <pt x="212" y="464" on="1"/>
      </contour>
      <contour>
        <pt x="212" y="388" on="1"/>
        <pt x="212" y="112" on="1"/>
        <pt x="393" y="112" on="1"/>
        <pt x="393" y="388" on="1"/>
      </contour>
    </TTGlyph>
    <TTGlyph name="backslash" xMin="25" yMin="-20" xMax="391" yMax="720">
      <contour>
        <pt x="155" y="720" on="1"/>
        <pt x="391" y="-20" on="1"/>
        <pt x="261" y="-20" on="1"/>
        <pt x="25" y="720" on="1"/>
      </contour>
    </TTGlyph>
    <TTGlyph name="bar" xMin="115" yMin="-200" xMax="245" yMax="730">
      <contour>
        <pt x="115" y="-200" on="1"/>
        <pt x="115" y="730" on="1"/>
        <pt x="245" y="730" on="1"/>
        <pt x="245" y="-200" on="1"/>
      </contour>
    </TTGlyph>
    <TTGlyph name="braceleft" xMin="35" yMin="-200" xMax="353" yMax="730">
      <contour>
        <pt x="250" y="225" on="1"/>
        <pt x="250" y="-100" on="1"/>
        <pt x="353" y="-100" on="1"/>
        <pt x="353" y="-200" on="1"/>
        <pt x="236" y="-200" on="1"/>
        <pt x="120" y="-133" on="1"/>
        <pt x="120" y="215" on="1"/>
        <pt x="35" y="215" on="1"/>
        <pt x="35" y="315" on="1"/>
        <pt x="120" y="315" on="1"/>
        <pt x="120" y="663" on="1"/>
        <pt x="236" y="730" on="1"/>
        <pt x="353" y="730" on="1"/>
        <pt x="353" y="630" on="1"/>
        <pt x="250" y="630" on="1"/>
        <pt x="250" y="305" on="1"/>
        <pt x="183" y="266" on="1"/>
        <pt x="183" y="264" on="1"/>
      </contour>
    </TTGlyph>
    <TTGlyph name="braceright" xMin="55" yMin="-200" xMax="373" yMax="730">
      <contour>
        <pt x="158" y="-100" on="1"/>
        <pt x="158" y="225" on="1"/>
        <pt x="225" y="264" on="1"/>
        <pt x="225" y="266" on="1"/>
        <pt x="158" y="305" on="1"/>
        <pt x="158" y="630" on="1"/>
        <pt x="55" y="630" on="1"/>
        <pt x="55" y="730" on="1"/>
        <pt x="172" y="730" on="1"/>
        <pt x="288" y="663" on="1"/>
        <pt x="288" y="315" on="1"/>
        <pt x="373" y="315" on="1"/>
        <pt x="373" y="215" on="1"/>
        <pt x="288" y="215" on="1"/>
        <pt x="288" y="-133" on="1"/>
        <pt x="172" y="-200" on="1"/>
        <pt x="55" y="-200" on="1"/>
        <pt x="55" y="-100" on="1"/>
      </contour>
    </TTGlyph>
    <TTGlyph name="bracketleft" xMin="85" yMin="-200" xMax="318" yMax="730">
      <contour>
        <pt x="215" y="630" on="1"/>
        <pt x="215" y="-100" on="1"/>
        <pt x="318" y="-100" on="1"/>
        <pt x="318" y="-200" on="1"/>
        <pt x="85" y="-200" on="1"/>
        <pt x="85" y="730" on="1"/>
        <pt x="318" y="730" on="1"/>
        <pt x="318" y="630" on="1"/>
      </contour>
    </TTGlyph>
    <TTGlyph name="bracketright" xMin="55" yMin="-200" xMax="288" yMax="730">
      <contour>
        <pt x="158" y="-100" on="1"/>
        <pt x="158" y="630" on="1"/>
        <pt x="55" y="630" on="1"/>
        <pt x="55" y="730" on="1"/>
        <pt x="288" y="730" on="1"/>
        <pt x="288" y="-200" on="1"/>
        <pt x="55" y="-200" on="1"/>
        <pt x="55" y="-100" on="1"/>
      </contour>
    </TTGlyph>
    <TTGlyph name="breve" xMin="102" yMin="580" xMax="427" yMax="756">
      <contour>
        <pt x="322" y="756" on="1"/>
        <pt x="427" y="756" on="1"/>
        <pt x="427" y="627" on="1"/>
        <pt x="345" y="580" on="1"/>
        <pt x="184" y="580" on="1"/>
        <pt x="102" y="627" on="1"/>
        <pt x="102" y="756" on="1"/>
        <pt x="207" y="756" on="1"/>
        <pt x="207" y="665" on="1"/>
        <pt x="322" y="665" on="1"/>
      </contour>
    </TTGlyph>
    <TTGlyph name="brokenbar" xMin="115" yMin="-200" xMax="245" yMax="730">
      <contour>
        <pt x="115" y="-200" on="1"/>
        <pt x="115" y="202" on="1"/>
        <pt x="245" y="202" on="1"/>
        <pt x="245" y="-200" on="1"/>
      </contour>
      <contour>
        <pt x="115" y="328" on="1"/>
        <pt x="115" y="730" on="1"/>
        <pt x="245" y="730" on="1"/>
        <pt x="245" y="328" on="1"/>
      </contour>
    </TTGlyph>
    <TTGlyph name="bullet" xMin="95" yMin="157" xMax="475" yMax="537">
      <contour>
        <pt x="475" y="224" on="1"/>
        <pt x="359" y="157" on="1"/>
        <pt x="211" y="157" on="1"/>
        <pt x="95" y="224" on="1"/>
        <pt x="95" y="470" on="1"/>
        <pt x="211" y="537" on="1"/>
        <pt x="359" y="537" on="1"/>
        <pt x="475" y="470" on="1"/>
      </contour>
    </TTGlyph>
    <TTGlyph name="c" xMin="75" yMin="0" xMax="460" yMax="500">
      <contour>
        <pt x="212" y="383" on="1"/>
        <pt x="212" y="117" on="1"/>
        <pt x="460" y="117" on="1"/>
        <pt x="460" y="0" on="1"/>
        <pt x="191" y="0" on="1"/>
        <pt x="75" y="67" on="1"/>
        <pt x="75" y="433" on="1"/>
        <pt x="191" y="500" on="1"/>
        <pt x="460" y="500" on="1"/>
        <pt x="460" y="383" on="1"/>
      </contour>
    </TTGlyph>
    <TTGlyph name="caron" xMin="71" yMin="590" xMax="462" yMax="738">
      <contour>
        <pt x="362" y="590" on="1"/>
        <pt x="172" y="590" on="1"/>
        <pt x="71" y="738" on="1"/>
        <pt x="186" y="738" on="1"/>
        <pt x="267" y="658" on="1"/>
        <pt x="347" y="738" on="1"/>
        <pt x="462" y="738" on="1"/>
      </contour>
    </TTGlyph>
    <TTGlyph name="caron.cap" xMin="71" yMin="780" xMax="462" yMax="928">
      <contour>
        <pt x="362" y="780" on="1"/>
        <pt x="172" y="780" on="1"/>
        <pt x="71" y="928" on="1"/>
        <pt x="186" y="928" on="1"/>
        <pt x="267" y="848" on="1"/>
        <pt x="347" y="928" on="1"/>
        <pt x="462" y="928" on="1"/>
      </contour>
    </TTGlyph>
    <TTGlyph name="ccedilla" xMin="75" yMin="-229" xMax="460" yMax="500">
      <contour>
        <pt x="262" y="0" on="1"/>
        <pt x="191" y="0" on="1"/>
        <pt x="75" y="67" on="1"/>
        <pt x="75" y="433" on="1"/>
        <pt x="191" y="500" on="1"/>
        <pt x="460" y="500" on="1"/>
        <pt x="460" y="383" on="1"/>
        <pt x="212" y="383" on="1"/>
        <pt x="212" y="117" on="1"/>
        <pt x="460" y="117" on="1"/>
        <pt x="460" y="0" on="1"/>
        <pt x="355" y="0" on="1"/>
        <pt x="328" y="-47" on="1"/>
        <pt x="394" y="-85" on="1"/>
        <pt x="394" y="-179" on="1"/>
        <pt x="308" y="-229" on="1"/>
        <pt x="198" y="-229" on="1"/>
        <pt x="198" y="-149" on="1"/>
        <pt x="297" y="-149" on="1"/>
        <pt x="297" y="-104" on="1"/>
        <pt x="202" y="-104" on="1"/>
      </contour>
    </TTGlyph>
    <TTGlyph name="cedilla" xMin="191" yMin="-229" xMax="387" yMax="0">
      <contour>
        <pt x="255" y="0" on="1"/>
        <pt x="348" y="0" on="1"/>
        <pt x="321" y="-47" on="1"/>
        <pt x="387" y="-85" on="1"/>
        <pt x="387" y="-179" on="1"/>
        <pt x="301" y="-229" on="1"/>
        <pt x="191" y="-229" on="1"/>
        <pt x="191" y="-149" on="1"/>
        <pt x="290" y="-149" on="1"/>
        <pt x="290" y="-104" on="1"/>
        <pt x="195" y="-104" on="1"/>
      </contour>
    </TTGlyph>
    <TTGlyph name="cent" xMin="75" yMin="-118" xMax="470" yMax="618">
      <contour>
        <pt x="378" y="500" on="1"/>
        <pt x="470" y="500" on="1"/>
        <pt x="470" y="383" on="1"/>
        <pt x="212" y="383" on="1"/>
        <pt x="212" y="117" on="1"/>
        <pt x="470" y="117" on="1"/>
        <pt x="470" y="0" on="1"/>
        <pt x="378" y="0" on="1"/>
        <pt x="378" y="-118" on="1"/>
        <pt x="262" y="-118" on="1"/>
        <pt x="262" y="0" on="1"/>
        <pt x="191" y="0" on="1"/>
        <pt x="75" y="67" on="1"/>
        <pt x="75" y="433" on="1"/>
        <pt x="191" y="500" on="1"/>
        <pt x="262" y="500" on="1"/>
        <pt x="262" y="618" on="1"/>
        <pt x="378" y="618" on="1"/>
      </contour>
    </TTGlyph>
    <TTGlyph name="circumflex" xMin="70" yMin="590" xMax="461" yMax="738">
      <contour>
        <pt x="170" y="738" on="1"/>
        <pt x="360" y="738" on="1"/>
        <pt x="461" y="590" on="1"/>
        <pt x="346" y="590" on="1"/>
        <pt x="265" y="670" on="1"/>
        <pt x="185" y="590" on="1"/>
        <pt x="70" y="590" on="1"/>
      </contour>
    </TTGlyph>
    <TTGlyph name="circumflex.cap" xMin="70" yMin="780" xMax="461" yMax="928">
      <contour>
        <pt x="170" y="928" on="1"/>
        <pt x="360" y="928" on="1"/>
        <pt x="461" y="780" on="1"/>
        <pt x="346" y="780" on="1"/>
        <pt x="265" y="860" on="1"/>
        <pt x="185" y="780" on="1"/>
        <pt x="70" y="780" on="1"/>
      </contour>
    </TTGlyph>
    <TTGlyph name="colon" xMin="95" yMin="0" xMax="285" yMax="520">
      <contour>
        <pt x="95" y="0" on="1"/>
        <pt x="95" y="190" on="1"/>
        <pt x="285" y="190" on="1"/>
        <pt x="285" y="0" on="1"/>
      </contour>
      <contour>
        <pt x="95" y="330" on="1"/>
        <pt x="95" y="520" on="1"/>
        <pt x="285" y="520" on="1"/>
        <pt x="285" y="330" on="1"/>
      </contour>
    </TTGlyph>
    <TTGlyph name="comma" xMin="95" yMin="-200" xMax="285" yMax="190">
      <contour>
        <pt x="95" y="-200" on="1"/>
        <pt x="95" y="190" on="1"/>
        <pt x="285" y="190" on="1"/>
        <pt x="285" y="108" on="1"/>
        <pt x="177" y="-200" on="1"/>
      </contour>
    </TTGlyph>
    <TTGlyph name="commaaccent" xMin="100" yMin="-367" xMax="252" yMax="-55">
      <contour>
        <pt x="100" y="-367" on="1"/>
        <pt x="100" y="-55" on="1"/>
        <pt x="252" y="-55" on="1"/>
        <pt x="252" y="-121" on="1"/>
        <pt x="166" y="-367" on="1"/>
      </contour>
    </TTGlyph>
    <TTGlyph name="copyright" xMin="85" yMin="-5" xMax="765" yMax="705">
      <contour>
        <pt x="765" y="62" on="1"/>
        <pt x="649" y="-5" on="1"/>
        <pt x="201" y="-5" on="1"/>
        <pt x="85" y="62" on="1"/>
        <pt x="85" y="638" on="1"/>
        <pt x="201" y="705" on="1"/>
        <pt x="649" y="705" on="1"/>
        <pt x="765" y="638" on="1"/>
      </contour>
      <contour>
        <pt x="205" y="605" on="1"/>
        <pt x="205" y="95" on="1"/>
        <pt x="645" y="95" on="1"/>
        <pt x="645" y="605" on="1"/>
      </contour>
      <contour>
        <pt x="482" y="281" on="1"/>
        <pt x="591" y="281" on="1"/>
        <pt x="591" y="177" on="1"/>
        <pt x="518" y="135" on="1"/>
        <pt x="332" y="135" on="1"/>
        <pt x="258" y="177" on="1"/>
        <pt x="258" y="523" on="1"/>
        <pt x="332" y="565" on="1"/>
        <pt x="518" y="565" on="1"/>
        <pt x="591" y="523" on="1"/>
        <pt x="591" y="419" on="1"/>
        <pt x="482" y="419" on="1"/>
        <pt x="482" y="472" on="1"/>
        <pt x="367" y="472" on="1"/>
        <pt x="367" y="228" on="1"/>
        <pt x="482" y="228" on="1"/>
      </contour>
    </TTGlyph>
    <TTGlyph name="ct" xMin="75" yMin="0" xMax="853" yMax="663">
      <contour>
        <pt x="212" y="383" on="1"/>
        <pt x="212" y="117" on="1"/>
        <pt x="460" y="117" on="1"/>
        <pt x="460" y="0" on="1"/>
        <pt x="191" y="0" on="1"/>
        <pt x="75" y="67" on="1"/>
        <pt x="75" y="433" on="1"/>
        <pt x="191" y="500" on="1"/>
        <pt x="606" y="500" on="1"/>
        <pt x="606" y="584" on="1"/>
        <pt x="743" y="663" on="1"/>
        <pt x="743" y="500" on="1"/>
        <pt x="853" y="500" on="1"/>
        <pt x="853" y="383" on="1"/>
        <pt x="743" y="383" on="1"/>
        <pt x="743" y="117" on="1"/>
        <pt x="853" y="117" on="1"/>
        <pt x="853" y="0" on="1"/>
        <pt x="722" y="0" on="1"/>
        <pt x="606" y="67" on="1"/>
        <pt x="606" y="383" on="1"/>
      </contour>
    </TTGlyph>
    <TTGlyph name="d" xMin="75" yMin="-5" xMax="530" yMax="730">
      <contour>
        <pt x="191" y="505" on="1"/>
        <pt x="322" y="505" on="1"/>
        <pt x="393" y="464" on="1"/>
        <pt x="393" y="730" on="1"/>
        <pt x="530" y="730" on="1"/>
        <pt x="530" y="-5" on="1"/>
        <pt x="417" y="-5" on="1"/>
        <pt x="393" y="36" on="1"/>
        <pt x="322" y="-5" on="1"/>
        <pt x="191" y="-5" on="1"/>
        <pt x="75" y="62" on="1"/>
        <pt x="75" y="438" on="1"/>
      </contour>
      <contour>
        <pt x="393" y="112" on="1"/>
        <pt x="393" y="388" on="1"/>
        <pt x="212" y="388" on="1"/>
        <pt x="212" y="112" on="1"/>
      </contour>
    </TTGlyph>
    <TTGlyph name="dagger" xMin="55" yMin="-200" xMax="558" yMax="731">
      <contour>
        <pt x="359" y="424" on="1"/>
        <pt x="369" y="-200" on="1"/>
        <pt x="244" y="-200" on="1"/>
        <pt x="254" y="424" on="1"/>
        <pt x="55" y="414" on="1"/>
        <pt x="55" y="539" on="1"/>
        <pt x="254" y="529" on="1"/>
        <pt x="244" y="731" on="1"/>
        <pt x="369" y="731" on="1"/>
        <pt x="359" y="529" on="1"/>
        <pt x="558" y="539" on="1"/>
        <pt x="558" y="414" on="1"/>
      </contour>
    </TTGlyph>
    <TTGlyph name="daggerdbl" xMin="55" yMin="-200" xMax="558" yMax="731">
      <contour>
        <pt x="366" y="266" on="1"/>
        <pt x="359" y="107" on="1"/>
        <pt x="558" y="117" on="1"/>
        <pt x="558" y="-8" on="1"/>
        <pt x="359" y="2" on="1"/>
        <pt x="369" y="-200" on="1"/>
        <pt x="244" y="-200" on="1"/>
        <pt x="254" y="2" on="1"/>
        <pt x="55" y="-8" on="1"/>
        <pt x="55" y="117" on="1"/>
        <pt x="254" y="107" on="1"/>
        <pt x="247" y="266" on="1"/>
        <pt x="254" y="424" on="1"/>
        <pt x="55" y="414" on="1"/>
        <pt x="55" y="539" on="1"/>
        <pt x="254" y="529" on="1"/>
        <pt x="244" y="731" on="1"/>
        <pt x="369" y="731" on="1"/>
        <pt x="359" y="529" on="1"/>
        <pt x="558" y="539" on="1"/>
        <pt x="558" y="414" on="1"/>
        <pt x="359" y="424" on="1"/>
      </contour>
    </TTGlyph>
    <TTGlyph name="degree" xMin="65" yMin="357" xMax="430" yMax="710">
      <contour>
        <pt x="430" y="424" on="1"/>
        <pt x="314" y="357" on="1"/>
        <pt x="181" y="357" on="1"/>
        <pt x="65" y="424" on="1"/>
        <pt x="65" y="643" on="1"/>
        <pt x="181" y="710" on="1"/>
        <pt x="314" y="710" on="1"/>
        <pt x="430" y="643" on="1"/>
      </contour>
      <contour>
        <pt x="186" y="599" on="1"/>
        <pt x="186" y="468" on="1"/>
        <pt x="309" y="468" on="1"/>
        <pt x="309" y="599" on="1"/>
      </contour>
    </TTGlyph>
    <TTGlyph name="dieresis" xMin="80" yMin="595" xMax="454" yMax="730">
      <contour>
        <pt x="80" y="595" on="1"/>
        <pt x="80" y="730" on="1"/>
        <pt x="215" y="730" on="1"/>
        <pt x="215" y="595" on="1"/>
      </contour>
      <contour>
        <pt x="319" y="595" on="1"/>
        <pt x="319" y="730" on="1"/>
        <pt x="454" y="730" on="1"/>
        <pt x="454" y="595" on="1"/>
      </contour>
    </TTGlyph>
    <TTGlyph name="dieresis.cap" xMin="80" yMin="785" xMax="454" yMax="920">
      <contour>
        <pt x="80" y="785" on="1"/>
        <pt x="80" y="920" on="1"/>
        <pt x="215" y="920" on="1"/>
        <pt x="215" y="785" on="1"/>
      </contour>
      <contour>
        <pt x="319" y="785" on="1"/>
        <pt x="319" y="920" on="1"/>
        <pt x="454" y="920" on="1"/>
        <pt x="454" y="785" on="1"/>
      </contour>
    </TTGlyph>
    <TTGlyph name="divide" xMin="45" yMin="-31" xMax="565" yMax="561">
      <contour>
        <pt x="565" y="327" on="1"/>
        <pt x="565" y="203" on="1"/>
        <pt x="45" y="203" on="1"/>
        <pt x="45" y="327" on="1"/>
      </contour>
      <contour>
        <pt x="220" y="-31" on="1"/>
        <pt x="220" y="139" on="1"/>
        <pt x="390" y="139" on="1"/>
        <pt x="390" y="-31" on="1"/>
      </contour>
      <contour>
        <pt x="220" y="391" on="1"/>
        <pt x="220" y="561" on="1"/>
        <pt x="390" y="561" on="1"/>
        <pt x="390" y="391" on="1"/>
      </contour>
    </TTGlyph>
    <TTGlyph name="dollar" xMin="75" yMin="-123" xMax="570" yMax="823">
      <contour>
        <pt x="391" y="-123" on="1"/>
        <pt x="271" y="-123" on="1"/>
        <pt x="271" y="-5" on="1"/>
        <pt x="191" y="-5" on="1"/>
        <pt x="75" y="62" on="1"/>
        <pt x="75" y="195" on="1"/>
        <pt x="215" y="195" on="1"/>
        <pt x="215" y="115" on="1"/>
        <pt x="430" y="115" on="1"/>
        <pt x="430" y="288" on="1"/>
        <pt x="201" y="288" on="1"/>
        <pt x="85" y="355" on="1"/>
        <pt x="85" y="638" on="1"/>
        <pt x="201" y="705" on="1"/>
        <pt x="271" y="705" on="1"/>
        <pt x="271" y="823" on="1"/>
        <pt x="391" y="823" on="1"/>
        <pt x="391" y="705" on="1"/>
        <pt x="454" y="705" on="1"/>
        <pt x="570" y="638" on="1"/>
        <pt x="570" y="505" on="1"/>
        <pt x="430" y="505" on="1"/>
        <pt x="430" y="585" on="1"/>
        <pt x="225" y="585" on="1"/>
        <pt x="225" y="418" on="1"/>
        <pt x="454" y="418" on="1"/>
        <pt x="570" y="351" on="1"/>
        <pt x="570" y="62" on="1"/>
        <pt x="454" y="-5" on="1"/>
        <pt x="391" y="-5" on="1"/>
      </contour>
    </TTGlyph>
    <TTGlyph name="dotaccent" xMin="80" yMin="591" xMax="270" yMax="781">
      <contour>
        <pt x="80" y="591" on="1"/>
        <pt x="80" y="781" on="1"/>
        <pt x="270" y="781" on="1"/>
        <pt x="270" y="591" on="1"/>
      </contour>
    </TTGlyph>
    <TTGlyph name="dotlessi" xMin="75" yMin="0" xMax="212" yMax="500">
      <contour>
        <pt x="212" y="500" on="1"/>
        <pt x="212" y="0" on="1"/>
        <pt x="75" y="0" on="1"/>
        <pt x="75" y="500" on="1"/>
      </contour>
    </TTGlyph>
    <TTGlyph name="dotlessj" xMin="-25" yMin="-200" xMax="212" yMax="500">
      <contour>
        <pt x="212" y="500" on="1"/>
        <pt x="212" y="-133" on="1"/>
        <pt x="96" y="-200" on="1"/>
        <pt x="-25" y="-200" on="1"/>
        <pt x="-25" y="-83" on="1"/>
        <pt x="75" y="-83" on="1"/>
        <pt x="75" y="500" on="1"/>
      </contour>
    </TTGlyph>
    <TTGlyph name="e" xMin="75" yMin="0" xMax="490" yMax="505">
      <contour>
        <pt x="490" y="117" on="1"/>
        <pt x="490" y="0" on="1"/>
        <pt x="191" y="0" on="1"/>
        <pt x="75" y="67" on="1"/>
        <pt x="75" y="438" on="1"/>
        <pt x="191" y="505" on="1"/>
        <pt x="374" y="505" on="1"/>
        <pt x="490" y="438" on="1"/>
        <pt x="490" y="199" on="1"/>
        <pt x="212" y="199" on="1"/>
        <pt x="212" y="117" on="1"/>
      </contour>
      <contour>
        <pt x="212" y="388" on="1"/>
        <pt x="212" y="302" on="1"/>
        <pt x="353" y="302" on="1"/>
        <pt x="353" y="388" on="1"/>
      </contour>
    </TTGlyph>
    <TTGlyph name="eacute" xMin="75" yMin="0" xMax="490" yMax="718">
      <contour>
        <pt x="490" y="117" on="1"/>
        <pt x="490" y="0" on="1"/>
        <pt x="191" y="0" on="1"/>
        <pt x="75" y="67" on="1"/>
        <pt x="75" y="438" on="1"/>
        <pt x="191" y="505" on="1"/>
        <pt x="374" y="505" on="1"/>
        <pt x="490" y="438" on="1"/>
        <pt x="490" y="199" on="1"/>
        <pt x="212" y="199" on="1"/>
        <pt x="212" y="117" on="1"/>
      </contour>
      <contour>
        <pt x="212" y="388" on="1"/>
        <pt x="212" y="302" on="1"/>
        <pt x="353" y="302" on="1"/>
        <pt x="353" y="388" on="1"/>
      </contour>
      <contour>
        <pt x="195" y="590" on="1"/>
        <pt x="289" y="718" on="1"/>
        <pt x="459" y="718" on="1"/>
        <pt x="315" y="590" on="1"/>
      </contour>
    </TTGlyph>
    <TTGlyph name="ecircumflex" xMin="75" yMin="0" xMax="490" yMax="738">
      <contour>
        <pt x="490" y="117" on="1"/>
        <pt x="490" y="0" on="1"/>
        <pt x="191" y="0" on="1"/>
        <pt x="75" y="67" on="1"/>
        <pt x="75" y="438" on="1"/>
        <pt x="191" y="505" on="1"/>
        <pt x="374" y="505" on="1"/>
        <pt x="490" y="438" on="1"/>
        <pt x="490" y="199" on="1"/>
        <pt x="212" y="199" on="1"/>
        <pt x="212" y="117" on="1"/>
      </contour>
      <contour>
        <pt x="212" y="388" on="1"/>
        <pt x="212" y="302" on="1"/>
        <pt x="353" y="302" on="1"/>
        <pt x="353" y="388" on="1"/>
      </contour>
      <contour>
        <pt x="192" y="738" on="1"/>
        <pt x="382" y="738" on="1"/>
        <pt x="483" y="590" on="1"/>
        <pt x="368" y="590" on="1"/>
        <pt x="287" y="670" on="1"/>
        <pt x="207" y="590" on="1"/>
        <pt x="92" y="590" on="1"/>
      </contour>
    </TTGlyph>
    <TTGlyph name="edieresis" xMin="75" yMin="0" xMax="490" yMax="730">
      <contour>
        <pt x="490" y="117" on="1"/>
        <pt x="490" y="0" on="1"/>
        <pt x="191" y="0" on="1"/>
        <pt x="75" y="67" on="1"/>
        <pt x="75" y="438" on="1"/>
        <pt x="191" y="505" on="1"/>
        <pt x="374" y="505" on="1"/>
        <pt x="490" y="438" on="1"/>
        <pt x="490" y="199" on="1"/>
        <pt x="212" y="199" on="1"/>
        <pt x="212" y="117" on="1"/>
      </contour>
      <contour>
        <pt x="212" y="388" on="1"/>
        <pt x="212" y="302" on="1"/>
        <pt x="353" y="302" on="1"/>
        <pt x="353" y="388" on="1"/>
      </contour>
      <contour>
        <pt x="103" y="595" on="1"/>
        <pt x="103" y="730" on="1"/>
        <pt x="238" y="730" on="1"/>
        <pt x="238" y="595" on="1"/>
      </contour>
      <contour>
        <pt x="342" y="595" on="1"/>
        <pt x="342" y="730" on="1"/>
        <pt x="477" y="730" on="1"/>
        <pt x="477" y="595" on="1"/>
      </contour>
    </TTGlyph>
    <TTGlyph name="egrave" xMin="75" yMin="0" xMax="490" yMax="718">
      <contour>
        <pt x="490" y="117" on="1"/>
        <pt x="490" y="0" on="1"/>
        <pt x="191" y="0" on="1"/>
        <pt x="75" y="67" on="1"/>
        <pt x="75" y="438" on="1"/>
        <pt x="191" y="505" on="1"/>
        <pt x="374" y="505" on="1"/>
        <pt x="490" y="438" on="1"/>
        <pt x="490" y="199" on="1"/>
        <pt x="212" y="199" on="1"/>
        <pt x="212" y="117" on="1"/>
      </contour>
      <contour>
        <pt x="212" y="388" on="1"/>
        <pt x="212" y="302" on="1"/>
        <pt x="353" y="302" on="1"/>
        <pt x="353" y="388" on="1"/>
      </contour>
      <contour>
        <pt x="305" y="718" on="1"/>
        <pt x="399" y="590" on="1"/>
        <pt x="279" y="590" on="1"/>
        <pt x="135" y="718" on="1"/>
      </contour>
    </TTGlyph>
    <TTGlyph name="eight" xMin="85" yMin="-5" xMax="570" yMax="705">
      <contour>
        <pt x="225" y="115" on="1"/>
        <pt x="430" y="115" on="1"/>
        <pt x="430" y="302" on="1"/>
        <pt x="225" y="302" on="1"/>
      </contour>
      <contour>
        <pt x="225" y="422" on="1"/>
        <pt x="430" y="422" on="1"/>
        <pt x="430" y="585" on="1"/>
        <pt x="225" y="585" on="1"/>
      </contour>
      <contour>
        <pt x="454" y="-5" on="1"/>
        <pt x="185" y="-5" on="1"/>
        <pt x="85" y="62" on="1"/>
        <pt x="85" y="311" on="1"/>
        <pt x="172" y="361" on="1"/>
        <pt x="172" y="363" on="1"/>
        <pt x="85" y="413" on="1"/>
        <pt x="85" y="638" on="1"/>
        <pt x="201" y="705" on="1"/>
        <pt x="454" y="705" on="1"/>
        <pt x="570" y="638" on="1"/>
        <pt x="570" y="413" on="1"/>
        <pt x="483" y="363" on="1"/>
        <pt x="483" y="361" on="1"/>
        <pt x="570" y="311" on="1"/>
        <pt x="570" y="62" on="1"/>
      </contour>
    </TTGlyph>
    <TTGlyph name="ellipsis" xMin="95" yMin="0" xMax="947" yMax="190">
      <contour>
        <pt x="95" y="0" on="1"/>
        <pt x="95" y="190" on="1"/>
        <pt x="285" y="190" on="1"/>
        <pt x="285" y="0" on="1"/>
      </contour>
      <contour>
        <pt x="426" y="0" on="1"/>
        <pt x="426" y="190" on="1"/>
        <pt x="616" y="190" on="1"/>
        <pt x="616" y="0" on="1"/>
      </contour>
      <contour>
        <pt x="757" y="0" on="1"/>
        <pt x="757" y="190" on="1"/>
        <pt x="947" y="190" on="1"/>
        <pt x="947" y="0" on="1"/>
      </contour>
    </TTGlyph>
    <TTGlyph name="emdash" xMin="65" yMin="198" xMax="919" yMax="325">
      <contour>
        <pt x="65" y="198" on="1"/>
        <pt x="65" y="325" on="1"/>
        <pt x="919" y="325" on="1"/>
        <pt x="919" y="198" on="1"/>
      </contour>
    </TTGlyph>
    <TTGlyph name="endash" xMin="65" yMin="198" xMax="641" yMax="325">
      <contour>
        <pt x="65" y="198" on="1"/>
        <pt x="65" y="325" on="1"/>
        <pt x="641" y="325" on="1"/>
        <pt x="641" y="198" on="1"/>
      </contour>
    </TTGlyph>
    <TTGlyph name="equal" xMin="85" yMin="74" xMax="605" yMax="426">
      <contour>
        <pt x="605" y="198" on="1"/>
        <pt x="605" y="74" on="1"/>
        <pt x="85" y="74" on="1"/>
        <pt x="85" y="198" on="1"/>
      </contour>
      <contour>
        <pt x="605" y="426" on="1"/>
        <pt x="605" y="302" on="1"/>
        <pt x="85" y="302" on="1"/>
        <pt x="85" y="426" on="1"/>
      </contour>
    </TTGlyph>
    <TTGlyph name="eth" xMin="85" yMin="-5" xMax="619" yMax="705">
      <contour>
        <pt x="560" y="544" on="1"/>
        <pt x="619" y="544" on="1"/>
        <pt x="619" y="450" on="1"/>
        <pt x="560" y="450" on="1"/>
        <pt x="560" y="62" on="1"/>
        <pt x="444" y="-5" on="1"/>
        <pt x="201" y="-5" on="1"/>
        <pt x="85" y="62" on="1"/>
        <pt x="85" y="348" on="1"/>
        <pt x="201" y="415" on="1"/>
        <pt x="349" y="415" on="1"/>
        <pt x="420" y="374" on="1"/>
        <pt x="420" y="450" on="1"/>
        <pt x="313" y="450" on="1"/>
        <pt x="313" y="544" on="1"/>
        <pt x="420" y="544" on="1"/>
        <pt x="420" y="585" on="1"/>
        <pt x="201" y="585" on="1"/>
        <pt x="201" y="705" on="1"/>
        <pt x="444" y="705" on="1"/>
        <pt x="560" y="638" on="1"/>
      </contour>
      <contour>
        <pt x="420" y="115" on="1"/>
        <pt x="420" y="295" on="1"/>
        <pt x="225" y="295" on="1"/>
        <pt x="225" y="115" on="1"/>
      </contour>
    </TTGlyph>
    <TTGlyph name="exclam" xMin="95" yMin="0" xMax="285" yMax="730">
      <contour>
        <pt x="95" y="0" on="1"/>
        <pt x="95" y="190" on="1"/>
        <pt x="285" y="190" on="1"/>
        <pt x="285" y="0" on="1"/>
      </contour>
      <contour>
        <pt x="130" y="288" on="1"/>
        <pt x="104" y="730" on="1"/>
        <pt x="276" y="730" on="1"/>
        <pt x="250" y="288" on="1"/>
      </contour>
    </TTGlyph>
    <TTGlyph name="exclamdown" xMin="95" yMin="-230" xMax="285" yMax="500">
      <contour>
        <pt x="95" y="310" on="1"/>
        <pt x="95" y="500" on="1"/>
        <pt x="285" y="500" on="1"/>
        <pt x="285" y="310" on="1"/>
      </contour>
      <contour>
        <pt x="104" y="-230" on="1"/>
        <pt x="130" y="212" on="1"/>
        <pt x="250" y="212" on="1"/>
        <pt x="276" y="-230" on="1"/>
      </contour>
    </TTGlyph>
    <TTGlyph name="f" xMin="35" yMin="0" xMax="374" yMax="730">
      <contour>
        <pt x="35" y="383" on="1"/>
        <pt x="35" y="500" on="1"/>
        <pt x="127" y="500" on="1"/>
        <pt x="127" y="663" on="1"/>
        <pt x="243" y="730" on="1"/>
        <pt x="374" y="730" on="1"/>
        <pt x="374" y="613" on="1"/>
        <pt x="264" y="613" on="1"/>
        <pt x="264" y="500" on="1"/>
        <pt x="374" y="500" on="1"/>
        <pt x="374" y="383" on="1"/>
        <pt x="264" y="383" on="1"/>
        <pt x="264" y="0" on="1"/>
        <pt x="127" y="0" on="1"/>
        <pt x="127" y="383" on="1"/>
      </contour>
    </TTGlyph>
    <TTGlyph name="ffi" xMin="35" yMin="0" xMax="1035" yMax="730">
      <contour>
        <pt x="264" y="383" on="1"/>
        <pt x="264" y="0" on="1"/>
        <pt x="127" y="0" on="1"/>
        <pt x="127" y="383" on="1"/>
        <pt x="35" y="383" on="1"/>
        <pt x="35" y="500" on="1"/>
        <pt x="127" y="500" on="1"/>
        <pt x="127" y="663" on="1"/>
        <pt x="243" y="730" on="1"/>
        <pt x="424" y="730" on="1"/>
        <pt x="424" y="613" on="1"/>
        <pt x="264" y="613" on="1"/>
        <pt x="264" y="500" on="1"/>
        <pt x="516" y="500" on="1"/>
        <pt x="516" y="663" on="1"/>
        <pt x="632" y="730" on="1"/>
        <pt x="1035" y="730" on="1"/>
        <pt x="1035" y="613" on="1"/>
        <pt x="653" y="613" on="1"/>
        <pt x="653" y="500" on="1"/>
        <pt x="813" y="500" on="1"/>
        <pt x="813" y="383" on="1"/>
        <pt x="653" y="383" on="1"/>
        <pt x="653" y="0" on="1"/>
        <pt x="516" y="0" on="1"/>
        <pt x="516" y="383" on="1"/>
      </contour>
      <contour>
        <pt x="1030" y="500" on="1"/>
        <pt x="1030" y="0" on="1"/>
        <pt x="893" y="0" on="1"/>
        <pt x="893" y="500" on="1"/>
      </contour>
    </TTGlyph>
    <TTGlyph name="ffl" xMin="35" yMin="0" xMax="1130" yMax="730">
      <contour>
        <pt x="1009" y="0" on="1"/>
        <pt x="893" y="67" on="1"/>
        <pt x="893" y="613" on="1"/>
        <pt x="673" y="613" on="1"/>
        <pt x="673" y="500" on="1"/>
        <pt x="803" y="500" on="1"/>
        <pt x="803" y="383" on="1"/>
        <pt x="673" y="383" on="1"/>
        <pt x="673" y="0" on="1"/>
        <pt x="536" y="0" on="1"/>
        <pt x="536" y="383" on="1"/>
        <pt x="264" y="383" on="1"/>
        <pt x="264" y="0" on="1"/>
        <pt x="127" y="0" on="1"/>
        <pt x="127" y="383" on="1"/>
        <pt x="35" y="383" on="1"/>
        <pt x="35" y="500" on="1"/>
        <pt x="127" y="500" on="1"/>
        <pt x="127" y="663" on="1"/>
        <pt x="243" y="730" on="1"/>
        <pt x="434" y="730" on="1"/>
        <pt x="434" y="613" on="1"/>
        <pt x="264" y="613" on="1"/>
        <pt x="264" y="500" on="1"/>
        <pt x="536" y="500" on="1"/>
        <pt x="536" y="663" on="1"/>
        <pt x="652" y="730" on="1"/>
        <pt x="1030" y="730" on="1"/>
        <pt x="1030" y="117" on="1"/>
        <pt x="1130" y="117" on="1"/>
        <pt x="1130" y="0" on="1"/>
      </contour>
    </TTGlyph>
    <TTGlyph name="fi" xMin="35" yMin="0" xMax="626" yMax="730">
      <contour>
        <pt x="35" y="383" on="1"/>
        <pt x="35" y="500" on="1"/>
        <pt x="127" y="500" on="1"/>
        <pt x="127" y="663" on="1"/>
        <pt x="243" y="730" on="1"/>
        <pt x="626" y="730" on="1"/>
        <pt x="626" y="613" on="1"/>
        <pt x="264" y="613" on="1"/>
        <pt x="264" y="500" on="1"/>
        <pt x="404" y="500" on="1"/>
        <pt x="404" y="383" on="1"/>
        <pt x="264" y="383" on="1"/>
        <pt x="264" y="0" on="1"/>
        <pt x="127" y="0" on="1"/>
        <pt x="127" y="383" on="1"/>
      </contour>
      <contour>
        <pt x="621" y="500" on="1"/>
        <pt x="621" y="0" on="1"/>
        <pt x="484" y="0" on="1"/>
        <pt x="484" y="500" on="1"/>
      </contour>
    </TTGlyph>
    <TTGlyph name="five" xMin="85" yMin="-5" xMax="570" yMax="700">
      <contour>
        <pt x="245" y="580" on="1"/>
        <pt x="245" y="446" on="1"/>
        <pt x="454" y="446" on="1"/>
        <pt x="570" y="379" on="1"/>
        <pt x="570" y="62" on="1"/>
        <pt x="454" y="-5" on="1"/>
        <pt x="201" y="-5" on="1"/>
        <pt x="85" y="62" on="1"/>
        <pt x="85" y="205" on="1"/>
        <pt x="225" y="205" on="1"/>
        <pt x="225" y="115" on="1"/>
        <pt x="430" y="115" on="1"/>
        <pt x="430" y="326" on="1"/>
        <pt x="105" y="326" on="1"/>
        <pt x="105" y="700" on="1"/>
        <pt x="560" y="700" on="1"/>
        <pt x="560" y="580" on="1"/>
      </contour>
    </TTGlyph>
    <TTGlyph name="fj" xMin="35" yMin="-200" xMax="626" yMax="730">
      <contour>
        <pt x="621" y="500" on="1"/>
        <pt x="621" y="-133" on="1"/>
        <pt x="505" y="-200" on="1"/>
        <pt x="384" y="-200" on="1"/>
        <pt x="384" y="-83" on="1"/>
        <pt x="484" y="-83" on="1"/>
        <pt x="484" y="500" on="1"/>
      </contour>
      <contour>
        <pt x="35" y="383" on="1"/>
        <pt x="35" y="500" on="1"/>
        <pt x="127" y="500" on="1"/>
        <pt x="127" y="663" on="1"/>
        <pt x="243" y="730" on="1"/>
        <pt x="626" y="730" on="1"/>
        <pt x="626" y="613" on="1"/>
        <pt x="264" y="613" on="1"/>
        <pt x="264" y="500" on="1"/>
        <pt x="374" y="500" on="1"/>
        <pt x="374" y="383" on="1"/>
        <pt x="264" y="383" on="1"/>
        <pt x="264" y="0" on="1"/>
        <pt x="127" y="0" on="1"/>
        <pt x="127" y="383" on="1"/>
      </contour>
    </TTGlyph>
    <TTGlyph name="fl" xMin="35" yMin="0" xMax="721" yMax="730">
      <contour>
        <pt x="600" y="0" on="1"/>
        <pt x="484" y="67" on="1"/>
        <pt x="484" y="613" on="1"/>
        <pt x="264" y="613" on="1"/>
        <pt x="264" y="500" on="1"/>
        <pt x="404" y="500" on="1"/>
        <pt x="404" y="383" on="1"/>
        <pt x="264" y="383" on="1"/>
        <pt x="264" y="0" on="1"/>
        <pt x="127" y="0" on="1"/>
        <pt x="127" y="383" on="1"/>
        <pt x="35" y="383" on="1"/>
        <pt x="35" y="500" on="1"/>
        <pt x="127" y="500" on="1"/>
        <pt x="127" y="663" on="1"/>
        <pt x="243" y="730" on="1"/>
        <pt x="621" y="730" on="1"/>
        <pt x="621" y="117" on="1"/>
        <pt x="721" y="117" on="1"/>
        <pt x="721" y="0" on="1"/>
      </contour>
    </TTGlyph>
    <TTGlyph name="florin" xMin="17" yMin="-199" xMax="374" yMax="730">
      <contour>
        <pt x="127" y="-82" on="1"/>
        <pt x="127" y="383" on="1"/>
        <pt x="35" y="383" on="1"/>
        <pt x="35" y="500" on="1"/>
        <pt x="127" y="500" on="1"/>
        <pt x="127" y="663" on="1"/>
        <pt x="243" y="730" on="1"/>
        <pt x="374" y="730" on="1"/>
        <pt x="374" y="613" on="1"/>
        <pt x="264" y="613" on="1"/>
        <pt x="264" y="500" on="1"/>
        <pt x="374" y="500" on="1"/>
        <pt x="374" y="383" on="1"/>
        <pt x="264" y="383" on="1"/>
        <pt x="264" y="-132" on="1"/>
        <pt x="148" y="-199" on="1"/>
        <pt x="17" y="-199" on="1"/>
        <pt x="17" y="-82" on="1"/>
      </contour>
    </TTGlyph>
    <TTGlyph name="four" xMin="35" yMin="0" xMax="591" yMax="700">
      <contour>
        <pt x="505" y="155" on="1"/>
        <pt x="505" y="0" on="1"/>
        <pt x="367" y="0" on="1"/>
        <pt x="367" y="155" on="1"/>
        <pt x="35" y="155" on="1"/>
        <pt x="35" y="255" on="1"/>
        <pt x="382" y="700" on="1"/>
        <pt x="505" y="700" on="1"/>
        <pt x="505" y="268" on="1"/>
        <pt x="591" y="268" on="1"/>
        <pt x="591" y="155" on="1"/>
      </contour>
      <contour>
        <pt x="190" y="268" on="1"/>
        <pt x="367" y="268" on="1"/>
        <pt x="367" y="494" on="1"/>
        <pt x="365" y="494" on="1"/>
        <pt x="190" y="270" on="1"/>
      </contour>
    </TTGlyph>
    <TTGlyph name="fraction" xMin="5" yMin="-10" xMax="648" yMax="710">
      <contour>
        <pt x="518" y="710" on="1"/>
        <pt x="648" y="710" on="1"/>
        <pt x="135" y="-10" on="1"/>
        <pt x="5" y="-10" on="1"/>
      </contour>
    </TTGlyph>
    <TTGlyph name="g" xMin="55" yMin="-205" xMax="530" yMax="500">
      <contour>
        <pt x="55" y="-138" on="1"/>
        <pt x="55" y="-68" on="1"/>
        <pt x="171" y="0" on="1"/>
        <pt x="75" y="56" on="1"/>
        <pt x="75" y="146" on="1"/>
        <pt x="146" y="187" on="1"/>
        <pt x="75" y="228" on="1"/>
        <pt x="75" y="433" on="1"/>
        <pt x="191" y="500" on="1"/>
        <pt x="530" y="500" on="1"/>
        <pt x="530" y="436" on="1"/>
        <pt x="439" y="383" on="1"/>
        <pt x="500" y="347" on="1"/>
        <pt x="500" y="239" on="1"/>
        <pt x="384" y="172" on="1"/>
        <pt x="212" y="172" on="1"/>
        <pt x="212" y="107" on="1"/>
        <pt x="414" y="107" on="1"/>
        <pt x="530" y="40" on="1"/>
        <pt x="530" y="-138" on="1"/>
        <pt x="414" y="-205" on="1"/>
        <pt x="171" y="-205" on="1"/>
      </contour>
      <contour>
        <pt x="393" y="0" on="1"/>
        <pt x="192" y="0" on="1"/>
        <pt x="192" y="-90" on="1"/>
        <pt x="393" y="-90" on="1"/>
      </contour>
      <contour>
        <pt x="212" y="388" on="1"/>
        <pt x="212" y="284" on="1"/>
        <pt x="363" y="284" on="1"/>
        <pt x="363" y="388" on="1"/>
      </contour>
    </TTGlyph>
    <TTGlyph name="g.alt" xMin="75" yMin="-200" xMax="530" yMax="505">
      <contour>
        <pt x="530" y="-133" on="1"/>
        <pt x="414" y="-200" on="1"/>
        <pt x="142" y="-200" on="1"/>
        <pt x="142" y="-83" on="1"/>
        <pt x="393" y="-83" on="1"/>
        <pt x="393" y="56" on="1"/>
        <pt x="322" y="15" on="1"/>
        <pt x="191" y="15" on="1"/>
        <pt x="75" y="82" on="1"/>
        <pt x="75" y="438" on="1"/>
        <pt x="191" y="505" on="1"/>
        <pt x="322" y="505" on="1"/>
        <pt x="393" y="464" on="1"/>
        <pt x="464" y="505" on="1"/>
        <pt x="530" y="505" on="1"/>
      </contour>
      <contour>
        <pt x="393" y="132" on="1"/>
        <pt x="393" y="388" on="1"/>
        <pt x="212" y="388" on="1"/>
        <pt x="212" y="132" on="1"/>
      </contour>
    </TTGlyph>
    <TTGlyph name="germandbls" xMin="25" yMin="-200" xMax="600" yMax="700">
      <contour>
        <pt x="25" y="302" on="1"/>
        <pt x="25" y="422" on="1"/>
        <pt x="115" y="422" on="1"/>
        <pt x="115" y="633" on="1"/>
        <pt x="231" y="700" on="1"/>
        <pt x="454" y="700" on="1"/>
        <pt x="570" y="633" on="1"/>
        <pt x="570" y="413" on="1"/>
        <pt x="496" y="370" on="1"/>
        <pt x="600" y="311" on="1"/>
        <pt x="600" y="67" on="1"/>
        <pt x="484" y="0" on="1"/>
        <pt x="318" y="0" on="1"/>
        <pt x="318" y="120" on="1"/>
        <pt x="460" y="120" on="1"/>
        <pt x="460" y="302" on="1"/>
        <pt x="318" y="302" on="1"/>
        <pt x="318" y="422" on="1"/>
        <pt x="430" y="422" on="1"/>
        <pt x="430" y="580" on="1"/>
        <pt x="255" y="580" on="1"/>
        <pt x="255" y="-200" on="1"/>
        <pt x="115" y="-200" on="1"/>
        <pt x="115" y="302" on="1"/>
      </contour>
    </TTGlyph>
    <TTGlyph name="grave" xMin="165" yMin="590" xMax="429" yMax="718">
      <contour>
        <pt x="335" y="718" on="1"/>
        <pt x="429" y="590" on="1"/>
        <pt x="309" y="590" on="1"/>
        <pt x="165" y="718" on="1"/>
      </contour>
    </TTGlyph>
    <TTGlyph name="grave.cap" xMin="165" yMin="780" xMax="429" yMax="908">
      <contour>
        <pt x="335" y="908" on="1"/>
        <pt x="429" y="780" on="1"/>
        <pt x="309" y="780" on="1"/>
        <pt x="165" y="908" on="1"/>
      </contour>
    </TTGlyph>
    <TTGlyph name="greater" xMin="85" yMin="-1" xMax="605" yMax="501">
      <contour>
        <pt x="85" y="367" on="1"/>
        <pt x="85" y="501" on="1"/>
        <pt x="605" y="321" on="1"/>
        <pt x="605" y="179" on="1"/>
        <pt x="85" y="-1" on="1"/>
        <pt x="85" y="133" on="1"/>
        <pt x="440" y="249" on="1"/>
        <pt x="440" y="251" on="1"/>
      </contour>
    </TTGlyph>
    <TTGlyph name="greaterequal" xMin="85" yMin="0" xMax="605" yMax="579">
      <contour>
        <pt x="85" y="451" on="1"/>
        <pt x="85" y="579" on="1"/>
        <pt x="605" y="449" on="1"/>
        <pt x="605" y="291" on="1"/>
        <pt x="85" y="161" on="1"/>
        <pt x="85" y="289" on="1"/>
        <pt x="442" y="369" on="1"/>
        <pt x="442" y="371" on="1"/>
      </contour>
      <contour>
        <pt x="85" y="0" on="1"/>
        <pt x="85" y="124" on="1"/>
        <pt x="605" y="124" on="1"/>
        <pt x="605" y="0" on="1"/>
      </contour>
    </TTGlyph>
    <TTGlyph name="guillemotleft" xMin="85" yMin="0" xMax="605" yMax="502">
      <contour>
        <pt x="345" y="137" on="1"/>
        <pt x="345" y="0" on="1"/>
        <pt x="85" y="190" on="1"/>
        <pt x="85" y="312" on="1"/>
        <pt x="345" y="502" on="1"/>
        <pt x="345" y="365" on="1"/>
        <pt x="182" y="252" on="1"/>
        <pt x="182" y="251" on="1"/>
      </contour>
      <contour>
        <pt x="605" y="137" on="1"/>
        <pt x="605" y="0" on="1"/>
        <pt x="345" y="190" on="1"/>
        <pt x="345" y="312" on="1"/>
        <pt x="605" y="502" on="1"/>
        <pt x="605" y="365" on="1"/>
        <pt x="442" y="252" on="1"/>
        <pt x="442" y="251" on="1"/>
      </contour>
    </TTGlyph>
    <TTGlyph name="guillemotright" xMin="85" yMin="0" xMax="605" yMax="502">
      <contour>
        <pt x="345" y="0" on="1"/>
        <pt x="345" y="137" on="1"/>
        <pt x="508" y="251" on="1"/>
        <pt x="508" y="252" on="1"/>
        <pt x="345" y="365" on="1"/>
        <pt x="345" y="502" on="1"/>
        <pt x="605" y="312" on="1"/>
        <pt x="605" y="190" on="1"/>
      </contour>
      <contour>
        <pt x="85" y="0" on="1"/>
        <pt x="85" y="137" on="1"/>
        <pt x="248" y="251" on="1"/>
        <pt x="248" y="252" on="1"/>
        <pt x="85" y="365" on="1"/>
        <pt x="85" y="502" on="1"/>
        <pt x="345" y="312" on="1"/>
        <pt x="345" y="190" on="1"/>
      </contour>
    </TTGlyph>
    <TTGlyph name="guilsinglleft" xMin="85" yMin="0" xMax="345" yMax="502">
      <contour>
        <pt x="345" y="137" on="1"/>
        <pt x="345" y="0" on="1"/>
        <pt x="85" y="190" on="1"/>
        <pt x="85" y="312" on="1"/>
        <pt x="345" y="502" on="1"/>
        <pt x="345" y="365" on="1"/>
        <pt x="182" y="252" on="1"/>
        <pt x="182" y="251" on="1"/>
      </contour>
    </TTGlyph>
    <TTGlyph name="guilsinglright" xMin="85" yMin="0" xMax="345" yMax="502">
      <contour>
        <pt x="85" y="0" on="1"/>
        <pt x="85" y="137" on="1"/>
        <pt x="248" y="251" on="1"/>
        <pt x="248" y="252" on="1"/>
        <pt x="85" y="365" on="1"/>
        <pt x="85" y="502" on="1"/>
        <pt x="345" y="312" on="1"/>
        <pt x="345" y="190" on="1"/>
      </contour>
    </TTGlyph>
    <TTGlyph name="h" xMin="75" yMin="0" xMax="530" yMax="730">
      <contour>
        <pt x="212" y="0" on="1"/>
        <pt x="75" y="0" on="1"/>
        <pt x="75" y="730" on="1"/>
        <pt x="212" y="730" on="1"/>
        <pt x="212" y="464" on="1"/>
        <pt x="283" y="505" on="1"/>
        <pt x="414" y="505" on="1"/>
        <pt x="530" y="438" on="1"/>
        <pt x="530" y="0" on="1"/>
        <pt x="393" y="0" on="1"/>
        <pt x="393" y="388" on="1"/>
        <pt x="212" y="388" on="1"/>
      </contour>
    </TTGlyph>
    <TTGlyph name="hbar" xMin="10" yMin="0" xMax="530" yMax="730">
      <contour>
        <pt x="212" y="0" on="1"/>
        <pt x="75" y="0" on="1"/>
        <pt x="75" y="565" on="1"/>
        <pt x="10" y="565" on="1"/>
        <pt x="10" y="659" on="1"/>
        <pt x="75" y="659" on="1"/>
        <pt x="75" y="730" on="1"/>
        <pt x="212" y="730" on="1"/>
        <pt x="212" y="659" on="1"/>
        <pt x="360" y="659" on="1"/>
        <pt x="360" y="565" on="1"/>
        <pt x="212" y="565" on="1"/>
        <pt x="212" y="464" on="1"/>
        <pt x="283" y="505" on="1"/>
        <pt x="414" y="505" on="1"/>
        <pt x="530" y="438" on="1"/>
        <pt x="530" y="0" on="1"/>
        <pt x="393" y="0" on="1"/>
        <pt x="393" y="388" on="1"/>
        <pt x="212" y="388" on="1"/>
      </contour>
    </TTGlyph>
    <TTGlyph name="hungarumlaut" xMin="66" yMin="590" xMax="549" yMax="718">
      <contour>
        <pt x="66" y="590" on="1"/>
        <pt x="160" y="718" on="1"/>
        <pt x="330" y="718" on="1"/>
        <pt x="186" y="590" on="1"/>
      </contour>
      <contour>
        <pt x="285" y="590" on="1"/>
        <pt x="379" y="718" on="1"/>
        <pt x="549" y="718" on="1"/>
        <pt x="405" y="590" on="1"/>
      </contour>
    </TTGlyph>
    <TTGlyph name="hyphen" xMin="65" yMin="198" xMax="383" yMax="325">
      <contour>
        <pt x="65" y="198" on="1"/>
        <pt x="65" y="325" on="1"/>
        <pt x="383" y="325" on="1"/>
        <pt x="383" y="198" on="1"/>
      </contour>
    </TTGlyph>
    <TTGlyph name="i" xMin="70" yMin="0" xMax="217" yMax="730">
      <contour>
        <pt x="212" y="500" on="1"/>
        <pt x="212" y="0" on="1"/>
        <pt x="75" y="0" on="1"/>
        <pt x="75" y="500" on="1"/>
      </contour>
      <contour>
        <pt x="70" y="593" on="1"/>
        <pt x="70" y="730" on="1"/>
        <pt x="217" y="730" on="1"/>
        <pt x="217" y="593" on="1"/>
      </contour>
    </TTGlyph>
    <TTGlyph name="iacute" xMin="63" yMin="0" xMax="327" yMax="718">
      <contour>
        <pt x="212" y="500" on="1"/>
        <pt x="212" y="0" on="1"/>
        <pt x="75" y="0" on="1"/>
        <pt x="75" y="500" on="1"/>
      </contour>
      <contour>
        <pt x="63" y="590" on="1"/>
        <pt x="157" y="718" on="1"/>
        <pt x="327" y="718" on="1"/>
        <pt x="183" y="590" on="1"/>
      </contour>
    </TTGlyph>
    <TTGlyph name="icircumflex" xMin="-52" yMin="0" xMax="339" yMax="738">
      <contour>
        <pt x="212" y="500" on="1"/>
        <pt x="212" y="0" on="1"/>
        <pt x="75" y="0" on="1"/>
        <pt x="75" y="500" on="1"/>
      </contour>
      <contour>
        <pt x="48" y="738" on="1"/>
        <pt x="238" y="738" on="1"/>
        <pt x="339" y="590" on="1"/>
        <pt x="224" y="590" on="1"/>
        <pt x="143" y="670" on="1"/>
        <pt x="63" y="590" on="1"/>
        <pt x="-52" y="590" on="1"/>
      </contour>
    </TTGlyph>
    <TTGlyph name="idieresis" xMin="-43" yMin="0" xMax="331" yMax="730">
      <contour>
        <pt x="212" y="500" on="1"/>
        <pt x="212" y="0" on="1"/>
        <pt x="75" y="0" on="1"/>
        <pt x="75" y="500" on="1"/>
      </contour>
      <contour>
        <pt x="-43" y="595" on="1"/>
        <pt x="-43" y="730" on="1"/>
        <pt x="92" y="730" on="1"/>
        <pt x="92" y="595" on="1"/>
      </contour>
      <contour>
        <pt x="196" y="595" on="1"/>
        <pt x="196" y="730" on="1"/>
        <pt x="331" y="730" on="1"/>
        <pt x="331" y="595" on="1"/>
      </contour>
    </TTGlyph>
    <TTGlyph name="igrave" xMin="-40" yMin="0" xMax="224" yMax="718">
      <contour>
        <pt x="212" y="500" on="1"/>
        <pt x="212" y="0" on="1"/>
        <pt x="75" y="0" on="1"/>
        <pt x="75" y="500" on="1"/>
      </contour>
      <contour>
        <pt x="130" y="718" on="1"/>
        <pt x="224" y="590" on="1"/>
        <pt x="104" y="590" on="1"/>
        <pt x="-40" y="718" on="1"/>
      </contour>
    </TTGlyph>
    <TTGlyph name="ij" xMin="70" yMin="-200" xMax="504" yMax="730">
      <contour>
        <pt x="212" y="500" on="1"/>
        <pt x="212" y="0" on="1"/>
        <pt x="75" y="0" on="1"/>
        <pt x="75" y="500" on="1"/>
      </contour>
      <contour>
        <pt x="70" y="593" on="1"/>
        <pt x="70" y="730" on="1"/>
        <pt x="217" y="730" on="1"/>
        <pt x="217" y="593" on="1"/>
      </contour>
      <contour>
        <pt x="357" y="593" on="1"/>
        <pt x="357" y="730" on="1"/>
        <pt x="504" y="730" on="1"/>
        <pt x="504" y="593" on="1"/>
      </contour>
      <contour>
        <pt x="499" y="500" on="1"/>
        <pt x="499" y="-133" on="1"/>
        <pt x="383" y="-200" on="1"/>
        <pt x="262" y="-200" on="1"/>
        <pt x="262" y="-83" on="1"/>
        <pt x="362" y="-83" on="1"/>
        <pt x="362" y="500" on="1"/>
      </contour>
    </TTGlyph>
    <TTGlyph name="infinity" xMin="85" yMin="103" xMax="815" yMax="518">
      <contour>
        <pt x="225" y="398" on="1"/>
        <pt x="225" y="223" on="1"/>
        <pt x="380" y="223" on="1"/>
        <pt x="380" y="398" on="1"/>
      </contour>
      <contour>
        <pt x="520" y="398" on="1"/>
        <pt x="520" y="223" on="1"/>
        <pt x="675" y="223" on="1"/>
        <pt x="675" y="398" on="1"/>
      </contour>
      <contour>
        <pt x="815" y="170" on="1"/>
        <pt x="699" y="103" on="1"/>
        <pt x="566" y="103" on="1"/>
        <pt x="450" y="170" on="1"/>
        <pt x="334" y="103" on="1"/>
        <pt x="201" y="103" on="1"/>
        <pt x="85" y="170" on="1"/>
        <pt x="85" y="451" on="1"/>
        <pt x="201" y="518" on="1"/>
        <pt x="334" y="518" on="1"/>
        <pt x="450" y="451" on="1"/>
        <pt x="566" y="518" on="1"/>
        <pt x="699" y="518" on="1"/>
        <pt x="815" y="451" on="1"/>
      </contour>
    </TTGlyph>
    <TTGlyph name="itilde" xMin="-39" yMin="0" xMax="327" yMax="764">
      <contour>
        <pt x="212" y="500" on="1"/>
        <pt x="212" y="0" on="1"/>
        <pt x="75" y="0" on="1"/>
        <pt x="75" y="500" on="1"/>
      </contour>
      <contour>
        <pt x="63" y="667" on="1"/>
        <pt x="59" y="667" on="1"/>
        <pt x="59" y="585" on="1"/>
        <pt x="-39" y="585" on="1"/>
        <pt x="-39" y="709" on="1"/>
        <pt x="55" y="764" on="1"/>
        <pt x="83" y="764" on="1"/>
        <pt x="225" y="682" on="1"/>
        <pt x="229" y="682" on="1"/>
        <pt x="229" y="764" on="1"/>
        <pt x="327" y="764" on="1"/>
        <pt x="327" y="640" on="1"/>
        <pt x="233" y="585" on="1"/>
        <pt x="205" y="585" on="1"/>
      </contour>
    </TTGlyph>
    <TTGlyph name="j" xMin="-25" yMin="-200" xMax="217" yMax="730">
      <contour>
        <pt x="70" y="593" on="1"/>
        <pt x="70" y="730" on="1"/>
        <pt x="217" y="730" on="1"/>
        <pt x="217" y="593" on="1"/>
      </contour>
      <contour>
        <pt x="212" y="500" on="1"/>
        <pt x="212" y="-133" on="1"/>
        <pt x="96" y="-200" on="1"/>
        <pt x="-25" y="-200" on="1"/>
        <pt x="-25" y="-83" on="1"/>
        <pt x="75" y="-83" on="1"/>
        <pt x="75" y="500" on="1"/>
      </contour>
    </TTGlyph>
    <TTGlyph name="jcircumflex" xMin="-52" yMin="-200" xMax="339" yMax="738">
      <contour>
        <pt x="212" y="500" on="1"/>
        <pt x="212" y="-133" on="1"/>
        <pt x="96" y="-200" on="1"/>
        <pt x="-25" y="-200" on="1"/>
        <pt x="-25" y="-83" on="1"/>
        <pt x="75" y="-83" on="1"/>
        <pt x="75" y="500" on="1"/>
      </contour>
      <contour>
        <pt x="48" y="738" on="1"/>
        <pt x="238" y="738" on="1"/>
        <pt x="339" y="590" on="1"/>
        <pt x="224" y="590" on="1"/>
        <pt x="143" y="670" on="1"/>
        <pt x="63" y="590" on="1"/>
        <pt x="-52" y="590" on="1"/>
      </contour>
    </TTGlyph>
    <TTGlyph name="k" xMin="75" yMin="0" xMax="556" yMax="730">
      <contour>
        <pt x="212" y="730" on="1"/>
        <pt x="212" y="299" on="1"/>
        <pt x="214" y="299" on="1"/>
        <pt x="369" y="500" on="1"/>
        <pt x="526" y="500" on="1"/>
        <pt x="347" y="277" on="1"/>
        <pt x="556" y="0" on="1"/>
        <pt x="397" y="0" on="1"/>
        <pt x="267" y="177" on="1"/>
        <pt x="212" y="108" on="1"/>
        <pt x="212" y="0" on="1"/>
        <pt x="75" y="0" on="1"/>
        <pt x="75" y="730" on="1"/>
      </contour>
    </TTGlyph>
    <TTGlyph name="kcommaaccent" xMin="75" yMin="-367" xMax="556" yMax="730">
      <contour>
        <pt x="212" y="730" on="1"/>
        <pt x="212" y="299" on="1"/>
        <pt x="214" y="299" on="1"/>
        <pt x="369" y="500" on="1"/>
        <pt x="526" y="500" on="1"/>
        <pt x="347" y="277" on="1"/>
        <pt x="556" y="0" on="1"/>
        <pt x="397" y="0" on="1"/>
        <pt x="267" y="177" on="1"/>
        <pt x="212" y="108" on="1"/>
        <pt x="212" y="0" on="1"/>
        <pt x="75" y="0" on="1"/>
        <pt x="75" y="730" on="1"/>
      </contour>
      <contour>
        <pt x="209" y="-367" on="1"/>
        <pt x="209" y="-55" on="1"/>
        <pt x="361" y="-55" on="1"/>
        <pt x="361" y="-121" on="1"/>
        <pt x="275" y="-367" on="1"/>
      </contour>
    </TTGlyph>
    <TTGlyph name="kgreenlandic" xMin="75" yMin="0" xMax="556" yMax="500">
      <contour>
        <pt x="212" y="500" on="1"/>
        <pt x="212" y="299" on="1"/>
        <pt x="214" y="299" on="1"/>
        <pt x="369" y="500" on="1"/>
        <pt x="526" y="500" on="1"/>
        <pt x="347" y="277" on="1"/>
        <pt x="556" y="0" on="1"/>
        <pt x="397" y="0" on="1"/>
        <pt x="267" y="177" on="1"/>
        <pt x="212" y="108" on="1"/>
        <pt x="212" y="0" on="1"/>
        <pt x="75" y="0" on="1"/>
        <pt x="75" y="500" on="1"/>
      </contour>
    </TTGlyph>
    <TTGlyph name="l" xMin="75" yMin="0" xMax="312" yMax="730">
      <contour>
        <pt x="191" y="0" on="1"/>
        <pt x="75" y="67" on="1"/>
        <pt x="75" y="730" on="1"/>
        <pt x="212" y="730" on="1"/>
        <pt x="212" y="117" on="1"/>
        <pt x="312" y="117" on="1"/>
        <pt x="312" y="0" on="1"/>
      </contour>
    </TTGlyph>
    <TTGlyph name="l.alt" xMin="75" yMin="0" xMax="212" yMax="730">
      <contour>
        <pt x="212" y="0" on="1"/>
        <pt x="75" y="0" on="1"/>
        <pt x="75" y="730" on="1"/>
        <pt x="212" y="730" on="1"/>
      </contour>
    </TTGlyph>
    <TTGlyph name="ldot" xMin="75" yMin="0" xMax="443" yMax="730">
      <contour>
        <pt x="191" y="0" on="1"/>
        <pt x="75" y="67" on="1"/>
        <pt x="75" y="730" on="1"/>
        <pt x="212" y="730" on="1"/>
        <pt x="212" y="117" on="1"/>
        <pt x="312" y="117" on="1"/>
        <pt x="312" y="0" on="1"/>
      </contour>
      <contour>
        <pt x="309" y="234" on="1"/>
        <pt x="309" y="368" on="1"/>
        <pt x="443" y="368" on="1"/>
        <pt x="443" y="234" on="1"/>
      </contour>
    </TTGlyph>
    <TTGlyph name="less" xMin="55" yMin="-1" xMax="575" yMax="501">
      <contour>
        <pt x="575" y="501" on="1"/>
        <pt x="575" y="367" on="1"/>
        <pt x="220" y="251" on="1"/>
        <pt x="220" y="249" on="1"/>
        <pt x="575" y="133" on="1"/>
        <pt x="575" y="-1" on="1"/>
        <pt x="55" y="179" on="1"/>
        <pt x="55" y="321" on="1"/>
      </contour>
    </TTGlyph>
    <TTGlyph name="lessequal" xMin="85" yMin="0" xMax="605" yMax="579">
      <contour>
        <pt x="605" y="579" on="1"/>
        <pt x="605" y="451" on="1"/>
        <pt x="248" y="371" on="1"/>
        <pt x="248" y="369" on="1"/>
        <pt x="605" y="289" on="1"/>
        <pt x="605" y="161" on="1"/>
        <pt x="85" y="291" on="1"/>
        <pt x="85" y="449" on="1"/>
      </contour>
      <contour>
        <pt x="605" y="124" on="1"/>
        <pt x="605" y="0" on="1"/>
        <pt x="85" y="0" on="1"/>
        <pt x="85" y="124" on="1"/>
      </contour>
    </TTGlyph>
    <TTGlyph name="lslash" xMin="15" yMin="0" xMax="312" yMax="730">
      <contour>
        <pt x="15" y="378" on="1"/>
        <pt x="75" y="394" on="1"/>
        <pt x="75" y="730" on="1"/>
        <pt x="212" y="730" on="1"/>
        <pt x="212" y="431" on="1"/>
        <pt x="301" y="455" on="1"/>
        <pt x="301" y="355" on="1"/>
        <pt x="212" y="331" on="1"/>
        <pt x="212" y="117" on="1"/>
        <pt x="312" y="117" on="1"/>
        <pt x="312" y="0" on="1"/>
        <pt x="191" y="0" on="1"/>
        <pt x="75" y="67" on="1"/>
        <pt x="75" y="294" on="1"/>
        <pt x="15" y="278" on="1"/>
      </contour>
    </TTGlyph>
    <TTGlyph name="m" xMin="75" yMin="0" xMax="778" yMax="505">
      <contour>
        <pt x="778" y="438" on="1"/>
        <pt x="778" y="0" on="1"/>
        <pt x="641" y="0" on="1"/>
        <pt x="641" y="388" on="1"/>
        <pt x="495" y="388" on="1"/>
        <pt x="495" y="0" on="1"/>
        <pt x="358" y="0" on="1"/>
        <pt x="358" y="388" on="1"/>
        <pt x="212" y="388" on="1"/>
        <pt x="212" y="0" on="1"/>
        <pt x="75" y="0" on="1"/>
        <pt x="75" y="505" on="1"/>
        <pt x="188" y="505" on="1"/>
        <pt x="212" y="464" on="1"/>
        <pt x="283" y="505" on="1"/>
        <pt x="379" y="505" on="1"/>
        <pt x="472" y="451" on="1"/>
        <pt x="566" y="505" on="1"/>
        <pt x="662" y="505" on="1"/>
      </contour>
    </TTGlyph>
    <TTGlyph name="macron" xMin="144" yMin="600" xMax="455" yMax="697">
      <contour>
        <pt x="144" y="600" on="1"/>
        <pt x="144" y="697" on="1"/>
        <pt x="455" y="697" on="1"/>
        <pt x="455" y="600" on="1"/>
      </contour>
    </TTGlyph>
    <TTGlyph name="madslug" xMin="80" yMin="-9" xMax="816" yMax="730">
      <contour>
        <pt x="650" y="51" on="1"/>
        <pt x="554" y="-9" on="0"/>
        <pt x="447" y="-9" on="1"/>
        <pt x="295" y="-9" on="0"/>
        <pt x="80" y="207" on="0"/>
        <pt x="80" y="361" on="1"/>
        <pt x="80" y="458" on="0"/>
        <pt x="167" y="611" on="0"/>
        <pt x="263" y="611" on="0"/>
        <pt x="263" y="560" on="1"/>
        <pt x="263" y="527" on="0"/>
        <pt x="204" y="267" on="0"/>
        <pt x="204" y="265" on="1"/>
        <pt x="204" y="254" on="0"/>
        <pt x="240" y="254" on="0"/>
        <pt x="317" y="272" on="0"/>
        <pt x="321" y="280" on="1"/>
        <pt x="321" y="282" on="0"/>
        <pt x="351" y="414" on="0"/>
        <pt x="360" y="456" on="1"/>
        <pt x="380" y="557" on="0"/>
        <pt x="380" y="628" on="0"/>
        <pt x="316" y="669" on="0"/>
        <pt x="267" y="669" on="1"/>
        <pt x="248" y="667" on="1"/>
        <pt x="246" y="670" on="1"/>
        <pt x="340" y="730" on="0"/>
        <pt x="447" y="730" on="1"/>
        <pt x="601" y="730" on="0"/>
        <pt x="816" y="514" on="0"/>
        <pt x="816" y="360" on="1"/>
        <pt x="816" y="263" on="0"/>
        <pt x="729" y="110" on="0"/>
        <pt x="633" y="110" on="0"/>
        <pt x="633" y="161" on="1"/>
        <pt x="633" y="194" on="0"/>
        <pt x="692" y="454" on="0"/>
        <pt x="692" y="455" on="1"/>
        <pt x="692" y="467" on="0"/>
        <pt x="656" y="467" on="0"/>
        <pt x="579" y="449" on="0"/>
        <pt x="575" y="441" on="1"/>
        <pt x="575" y="439" on="0"/>
        <pt x="545" y="307" on="0"/>
        <pt x="536" y="265" on="1"/>
        <pt x="516" y="164" on="0"/>
        <pt x="516" y="93" on="0"/>
        <pt x="580" y="52" on="0"/>
        <pt x="629" y="52" on="1"/>
        <pt x="648" y="53" on="1"/>
      </contour>
      <contour>
        <pt x="476" y="234" on="1"/>
        <pt x="489" y="287" on="0"/>
        <pt x="533" y="494" on="0"/>
        <pt x="533" y="511" on="0"/>
        <pt x="498" y="511" on="0"/>
        <pt x="433" y="497" on="0"/>
        <pt x="420" y="487" on="1"/>
        <pt x="407" y="434" on="0"/>
        <pt x="363" y="227" on="0"/>
        <pt x="363" y="209" on="0"/>
        <pt x="397" y="209" on="0"/>
        <pt x="463" y="224" on="0"/>
      </contour>
    </TTGlyph>
    <TTGlyph name="minus" xMin="45" yMin="193" xMax="565" yMax="327">
      <contour>
        <pt x="565" y="327" on="1"/>
        <pt x="565" y="193" on="1"/>
        <pt x="45" y="193" on="1"/>
        <pt x="45" y="327" on="1"/>
      </contour>
    </TTGlyph>
    <TTGlyph name="mu" xMin="75" yMin="-188" xMax="603" yMax="500">
      <contour>
        <pt x="212" y="-188" on="1"/>
        <pt x="75" y="-188" on="1"/>
        <pt x="75" y="500" on="1"/>
        <pt x="212" y="500" on="1"/>
        <pt x="212" y="117" on="1"/>
        <pt x="383" y="117" on="1"/>
        <pt x="383" y="500" on="1"/>
        <pt x="520" y="500" on="1"/>
        <pt x="520" y="117" on="1"/>
        <pt x="603" y="117" on="1"/>
        <pt x="603" y="0" on="1"/>
        <pt x="407" y="0" on="1"/>
        <pt x="383" y="41" on="1"/>
        <pt x="312" y="0" on="1"/>
        <pt x="212" y="0" on="1"/>
      </contour>
    </TTGlyph>
    <TTGlyph name="multiply" xMin="55" yMin="0" xMax="575" yMax="520">
      <contour>
        <pt x="150" y="520" on="1"/>
        <pt x="315" y="355" on="1"/>
        <pt x="480" y="520" on="1"/>
        <pt x="575" y="425" on="1"/>
        <pt x="410" y="260" on="1"/>
        <pt x="575" y="95" on="1"/>
        <pt x="480" y="0" on="1"/>
        <pt x="315" y="165" on="1"/>
        <pt x="150" y="0" on="1"/>
        <pt x="55" y="95" on="1"/>
        <pt x="220" y="260" on="1"/>
        <pt x="55" y="425" on="1"/>
      </contour>
    </TTGlyph>
    <TTGlyph name="n" xMin="75" yMin="0" xMax="520" yMax="505">
      <contour>
        <pt x="520" y="438" on="1"/>
        <pt x="520" y="0" on="1"/>
        <pt x="383" y="0" on="1"/>
        <pt x="383" y="388" on="1"/>
        <pt x="212" y="388" on="1"/>
        <pt x="212" y="0" on="1"/>
        <pt x="75" y="0" on="1"/>
        <pt x="75" y="505" on="1"/>
        <pt x="188" y="505" on="1"/>
        <pt x="212" y="464" on="1"/>
        <pt x="283" y="505" on="1"/>
        <pt x="404" y="505" on="1"/>
      </contour>
    </TTGlyph>
    <TTGlyph name="nacute" xMin="75" yMin="0" xMax="520" yMax="718">
      <contour>
        <pt x="520" y="438" on="1"/>
        <pt x="520" y="0" on="1"/>
        <pt x="383" y="0" on="1"/>
        <pt x="383" y="388" on="1"/>
        <pt x="212" y="388" on="1"/>
        <pt x="212" y="0" on="1"/>
        <pt x="75" y="0" on="1"/>
        <pt x="75" y="505" on="1"/>
        <pt x="188" y="505" on="1"/>
        <pt x="212" y="464" on="1"/>
        <pt x="283" y="505" on="1"/>
        <pt x="404" y="505" on="1"/>
      </contour>
      <contour>
        <pt x="165" y="590" on="1"/>
        <pt x="259" y="718" on="1"/>
        <pt x="429" y="718" on="1"/>
        <pt x="285" y="590" on="1"/>
      </contour>
    </TTGlyph>
    <TTGlyph name="nine" xMin="85" yMin="-5" xMax="560" yMax="705">
      <contour>
        <pt x="420" y="115" on="1"/>
        <pt x="420" y="316" on="1"/>
        <pt x="349" y="275" on="1"/>
        <pt x="201" y="275" on="1"/>
        <pt x="85" y="342" on="1"/>
        <pt x="85" y="638" on="1"/>
        <pt x="201" y="705" on="1"/>
        <pt x="444" y="705" on="1"/>
        <pt x="560" y="638" on="1"/>
        <pt x="560" y="62" on="1"/>
        <pt x="444" y="-5" on="1"/>
        <pt x="201" y="-5" on="1"/>
        <pt x="85" y="62" on="1"/>
        <pt x="85" y="205" on="1"/>
        <pt x="225" y="205" on="1"/>
        <pt x="225" y="115" on="1"/>
      </contour>
      <contour>
        <pt x="420" y="395" on="1"/>
        <pt x="420" y="585" on="1"/>
        <pt x="225" y="585" on="1"/>
        <pt x="225" y="395" on="1"/>
      </contour>
    </TTGlyph>
    <TTGlyph name="notequal" xMin="85" yMin="-11" xMax="605" yMax="511">
      <contour>
        <pt x="605" y="426" on="1"/>
        <pt x="605" y="302" on="1"/>
        <pt x="441" y="302" on="1"/>
        <pt x="359" y="198" on="1"/>
        <pt x="605" y="198" on="1"/>
        <pt x="605" y="74" on="1"/>
        <pt x="262" y="74" on="1"/>
        <pt x="195" y="-11" on="1"/>
        <pt x="85" y="-11" on="1"/>
        <pt x="152" y="74" on="1"/>
        <pt x="85" y="74" on="1"/>
        <pt x="85" y="198" on="1"/>
        <pt x="249" y="198" on="1"/>
        <pt x="331" y="302" on="1"/>
        <pt x="85" y="302" on="1"/>
        <pt x="85" y="426" on="1"/>
        <pt x="428" y="426" on="1"/>
        <pt x="495" y="511" on="1"/>
        <pt x="605" y="511" on="1"/>
        <pt x="538" y="426" on="1"/>
      </contour>
    </TTGlyph>
    <TTGlyph name="ntilde" xMin="75" yMin="0" xMax="520" yMax="764">
      <contour>
        <pt x="520" y="438" on="1"/>
        <pt x="520" y="0" on="1"/>
        <pt x="383" y="0" on="1"/>
        <pt x="383" y="388" on="1"/>
        <pt x="212" y="388" on="1"/>
        <pt x="212" y="0" on="1"/>
        <pt x="75" y="0" on="1"/>
        <pt x="75" y="505" on="1"/>
        <pt x="188" y="505" on="1"/>
        <pt x="212" y="464" on="1"/>
        <pt x="283" y="505" on="1"/>
        <pt x="404" y="505" on="1"/>
      </contour>
      <contour>
        <pt x="222" y="667" on="1"/>
        <pt x="218" y="667" on="1"/>
        <pt x="218" y="585" on="1"/>
        <pt x="120" y="585" on="1"/>
        <pt x="120" y="709" on="1"/>
        <pt x="214" y="764" on="1"/>
        <pt x="242" y="764" on="1"/>
        <pt x="384" y="682" on="1"/>
        <pt x="388" y="682" on="1"/>
        <pt x="388" y="764" on="1"/>
        <pt x="486" y="764" on="1"/>
        <pt x="486" y="640" on="1"/>
        <pt x="392" y="585" on="1"/>
        <pt x="364" y="585" on="1"/>
      </contour>
    </TTGlyph>
    <TTGlyph name="numbersign" xMin="55" yMin="-19" xMax="709" yMax="719">
      <contour>
        <pt x="545" y="165" on="1"/>
        <pt x="538" y="72" on="0"/>
        <pt x="529" y="-19" on="1"/>
        <pt x="405" y="-19" on="1"/>
        <pt x="422" y="165" on="1"/>
        <pt x="297" y="165" on="1"/>
        <pt x="281" y="-19" on="1"/>
        <pt x="157" y="-19" on="1"/>
        <pt x="173" y="165" on="1"/>
        <pt x="55" y="165" on="1"/>
        <pt x="55" y="267" on="1"/>
        <pt x="182" y="267" on="1"/>
        <pt x="193" y="378" on="0"/>
        <pt x="198" y="441" on="1"/>
        <pt x="55" y="441" on="1"/>
        <pt x="55" y="543" on="1"/>
        <pt x="207" y="543" on="1"/>
        <pt x="222" y="700" on="0"/>
        <pt x="223" y="719" on="1"/>
        <pt x="347" y="719" on="1"/>
        <pt x="331" y="543" on="1"/>
        <pt x="455" y="543" on="1"/>
        <pt x="472" y="719" on="1"/>
        <pt x="595" y="719" on="1"/>
        <pt x="579" y="543" on="1"/>
        <pt x="709" y="543" on="1"/>
        <pt x="709" y="441" on="1"/>
        <pt x="570" y="441" on="1"/>
        <pt x="565" y="384" on="0"/>
        <pt x="554" y="267" on="1"/>
        <pt x="709" y="267" on="1"/>
        <pt x="709" y="165" on="1"/>
      </contour>
      <contour>
        <pt x="322" y="441" on="1"/>
        <pt x="306" y="267" on="1"/>
        <pt x="430" y="267" on="1"/>
        <pt x="440" y="369" on="0"/>
        <pt x="447" y="441" on="1"/>
      </contour>
    </TTGlyph>
    <TTGlyph name="o" xMin="75" yMin="-5" xMax="520" yMax="505">
      <contour>
        <pt x="520" y="62" on="1"/>
        <pt x="404" y="-5" on="1"/>
        <pt x="191" y="-5" on="1"/>
        <pt x="75" y="62" on="1"/>
        <pt x="75" y="438" on="1"/>
        <pt x="191" y="505" on="1"/>
        <pt x="404" y="505" on="1"/>
        <pt x="520" y="438" on="1"/>
      </contour>
      <contour>
        <pt x="212" y="388" on="1"/>
        <pt x="212" y="112" on="1"/>
        <pt x="383" y="112" on="1"/>
        <pt x="383" y="388" on="1"/>
      </contour>
    </TTGlyph>
    <TTGlyph name="oacute" xMin="75" yMin="-5" xMax="520" yMax="718">
      <contour>
        <pt x="520" y="62" on="1"/>
        <pt x="404" y="-5" on="1"/>
        <pt x="191" y="-5" on="1"/>
        <pt x="75" y="62" on="1"/>
        <pt x="75" y="438" on="1"/>
        <pt x="191" y="505" on="1"/>
        <pt x="404" y="505" on="1"/>
        <pt x="520" y="438" on="1"/>
      </contour>
      <contour>
        <pt x="212" y="388" on="1"/>
        <pt x="212" y="112" on="1"/>
        <pt x="383" y="112" on="1"/>
        <pt x="383" y="388" on="1"/>
      </contour>
      <contour>
        <pt x="195" y="590" on="1"/>
        <pt x="289" y="718" on="1"/>
        <pt x="459" y="718" on="1"/>
        <pt x="315" y="590" on="1"/>
      </contour>
    </TTGlyph>
    <TTGlyph name="ocircumflex" xMin="75" yMin="-5" xMax="520" yMax="738">
      <contour>
        <pt x="520" y="62" on="1"/>
        <pt x="404" y="-5" on="1"/>
        <pt x="191" y="-5" on="1"/>
        <pt x="75" y="62" on="1"/>
        <pt x="75" y="438" on="1"/>
        <pt x="191" y="505" on="1"/>
        <pt x="404" y="505" on="1"/>
        <pt x="520" y="438" on="1"/>
      </contour>
      <contour>
        <pt x="212" y="388" on="1"/>
        <pt x="212" y="112" on="1"/>
        <pt x="383" y="112" on="1"/>
        <pt x="383" y="388" on="1"/>
      </contour>
      <contour>
        <pt x="208" y="738" on="1"/>
        <pt x="398" y="738" on="1"/>
        <pt x="499" y="590" on="1"/>
        <pt x="384" y="590" on="1"/>
        <pt x="303" y="670" on="1"/>
        <pt x="223" y="590" on="1"/>
        <pt x="108" y="590" on="1"/>
      </contour>
    </TTGlyph>
    <TTGlyph name="odieresis" xMin="75" yMin="-5" xMax="520" yMax="730">
      <contour>
        <pt x="520" y="62" on="1"/>
        <pt x="404" y="-5" on="1"/>
        <pt x="191" y="-5" on="1"/>
        <pt x="75" y="62" on="1"/>
        <pt x="75" y="438" on="1"/>
        <pt x="191" y="505" on="1"/>
        <pt x="404" y="505" on="1"/>
        <pt x="520" y="438" on="1"/>
      </contour>
      <contour>
        <pt x="212" y="388" on="1"/>
        <pt x="212" y="112" on="1"/>
        <pt x="383" y="112" on="1"/>
        <pt x="383" y="388" on="1"/>
      </contour>
      <contour>
        <pt x="115" y="595" on="1"/>
        <pt x="115" y="730" on="1"/>
        <pt x="250" y="730" on="1"/>
        <pt x="250" y="595" on="1"/>
      </contour>
      <contour>
        <pt x="354" y="595" on="1"/>
        <pt x="354" y="730" on="1"/>
        <pt x="489" y="730" on="1"/>
        <pt x="489" y="595" on="1"/>
      </contour>
    </TTGlyph>
    <TTGlyph name="oe" xMin="75" yMin="-5" xMax="798" yMax="505">
      <contour>
        <pt x="798" y="117" on="1"/>
        <pt x="798" y="0" on="1"/>
        <pt x="519" y="0" on="1"/>
        <pt x="456" y="36" on="1"/>
        <pt x="384" y="-5" on="1"/>
        <pt x="191" y="-5" on="1"/>
        <pt x="75" y="62" on="1"/>
        <pt x="75" y="438" on="1"/>
        <pt x="191" y="505" on="1"/>
        <pt x="384" y="505" on="1"/>
        <pt x="451" y="466" on="1"/>
        <pt x="519" y="505" on="1"/>
        <pt x="682" y="505" on="1"/>
        <pt x="798" y="438" on="1"/>
        <pt x="798" y="199" on="1"/>
        <pt x="520" y="199" on="1"/>
        <pt x="520" y="117" on="1"/>
      </contour>
      <contour>
        <pt x="212" y="388" on="1"/>
        <pt x="212" y="112" on="1"/>
        <pt x="383" y="112" on="1"/>
        <pt x="383" y="388" on="1"/>
      </contour>
      <contour>
        <pt x="520" y="388" on="1"/>
        <pt x="520" y="302" on="1"/>
        <pt x="661" y="302" on="1"/>
        <pt x="661" y="388" on="1"/>
      </contour>
    </TTGlyph>
    <TTGlyph name="ogonek" xMin="160" yMin="-213" xMax="360" yMax="0">
      <contour>
        <pt x="267" y="0" on="1"/>
        <pt x="267" y="-116" on="1"/>
        <pt x="360" y="-116" on="1"/>
        <pt x="360" y="-213" on="1"/>
        <pt x="276" y="-213" on="1"/>
        <pt x="160" y="-146" on="1"/>
        <pt x="160" y="0" on="1"/>
      </contour>
    </TTGlyph>
    <TTGlyph name="ograve" xMin="75" yMin="-5" xMax="520" yMax="718">
      <contour>
        <pt x="520" y="62" on="1"/>
        <pt x="404" y="-5" on="1"/>
        <pt x="191" y="-5" on="1"/>
        <pt x="75" y="62" on="1"/>
        <pt x="75" y="438" on="1"/>
        <pt x="191" y="505" on="1"/>
        <pt x="404" y="505" on="1"/>
        <pt x="520" y="438" on="1"/>
      </contour>
      <contour>
        <pt x="212" y="388" on="1"/>
        <pt x="212" y="112" on="1"/>
        <pt x="383" y="112" on="1"/>
        <pt x="383" y="388" on="1"/>
      </contour>
      <contour>
        <pt x="315" y="718" on="1"/>
        <pt x="409" y="590" on="1"/>
        <pt x="289" y="590" on="1"/>
        <pt x="145" y="718" on="1"/>
      </contour>
    </TTGlyph>
    <TTGlyph name="one" xMin="85" yMin="0" xMax="545" yMax="700">
      <contour>
        <pt x="85" y="466" on="1"/>
        <pt x="85" y="597" on="1"/>
        <pt x="265" y="700" on="1"/>
        <pt x="385" y="700" on="1"/>
        <pt x="385" y="120" on="1"/>
        <pt x="545" y="120" on="1"/>
        <pt x="545" y="0" on="1"/>
        <pt x="85" y="0" on="1"/>
        <pt x="85" y="120" on="1"/>
        <pt x="245" y="120" on="1"/>
        <pt x="245" y="558" on="1"/>
      </contour>
    </TTGlyph>
    <TTGlyph name="ordfeminine" xMin="75" yMin="0" xMax="490" yMax="700">
      <contour>
        <pt x="212" y="397" on="1"/>
        <pt x="212" y="310" on="1"/>
        <pt x="353" y="310" on="1"/>
        <pt x="353" y="397" on="1"/>
      </contour>
      <contour>
        <pt x="191" y="195" on="1"/>
        <pt x="75" y="262" on="1"/>
        <pt x="75" y="435" on="1"/>
        <pt x="191" y="502" on="1"/>
        <pt x="353" y="502" on="1"/>
        <pt x="353" y="583" on="1"/>
        <pt x="125" y="583" on="1"/>
        <pt x="125" y="700" on="1"/>
        <pt x="374" y="700" on="1"/>
        <pt x="490" y="633" on="1"/>
        <pt x="490" y="195" on="1"/>
        <pt x="424" y="195" on="1"/>
        <pt x="353" y="236" on="1"/>
        <pt x="282" y="195" on="1"/>
      </contour>
      <contour>
        <pt x="75" y="0" on="1"/>
        <pt x="75" y="117" on="1"/>
        <pt x="490" y="117" on="1"/>
        <pt x="490" y="0" on="1"/>
      </contour>
    </TTGlyph>
    <TTGlyph name="ordmasculine" xMin="75" yMin="0" xMax="520" yMax="705">
      <contour>
        <pt x="520" y="262" on="1"/>
        <pt x="404" y="195" on="1"/>
        <pt x="191" y="195" on="1"/>
        <pt x="75" y="262" on="1"/>
        <pt x="75" y="638" on="1"/>
        <pt x="191" y="705" on="1"/>
        <pt x="404" y="705" on="1"/>
        <pt x="520" y="638" on="1"/>
      </contour>
      <contour>
        <pt x="212" y="588" on="1"/>
        <pt x="212" y="312" on="1"/>
        <pt x="383" y="312" on="1"/>
        <pt x="383" y="588" on="1"/>
      </contour>
      <contour>
        <pt x="75" y="0" on="1"/>
        <pt x="75" y="117" on="1"/>
        <pt x="520" y="117" on="1"/>
        <pt x="520" y="0" on="1"/>
      </contour>
    </TTGlyph>
    <TTGlyph name="oslash" xMin="75" yMin="-5" xMax="520" yMax="505">
      <contour>
        <pt x="520" y="62" on="1"/>
        <pt x="404" y="-5" on="1"/>
        <pt x="191" y="-5" on="1"/>
        <pt x="75" y="62" on="1"/>
        <pt x="75" y="438" on="1"/>
        <pt x="191" y="505" on="1"/>
        <pt x="404" y="505" on="1"/>
        <pt x="520" y="438" on="1"/>
      </contour>
      <contour>
        <pt x="253" y="112" on="1"/>
        <pt x="383" y="112" on="1"/>
        <pt x="383" y="301" on="1"/>
      </contour>
      <contour>
        <pt x="212" y="388" on="1"/>
        <pt x="212" y="198" on="1"/>
        <pt x="342" y="388" on="1"/>
      </contour>
    </TTGlyph>
    <TTGlyph name="otilde" xMin="75" yMin="-5" xMax="520" yMax="764">
      <contour>
        <pt x="520" y="62" on="1"/>
        <pt x="404" y="-5" on="1"/>
        <pt x="191" y="-5" on="1"/>
        <pt x="75" y="62" on="1"/>
        <pt x="75" y="438" on="1"/>
        <pt x="191" y="505" on="1"/>
        <pt x="404" y="505" on="1"/>
        <pt x="520" y="438" on="1"/>
      </contour>
      <contour>
        <pt x="212" y="388" on="1"/>
        <pt x="212" y="112" on="1"/>
        <pt x="383" y="112" on="1"/>
        <pt x="383" y="388" on="1"/>
      </contour>
      <contour>
        <pt x="222" y="667" on="1"/>
        <pt x="218" y="667" on="1"/>
        <pt x="218" y="585" on="1"/>
        <pt x="120" y="585" on="1"/>
        <pt x="120" y="709" on="1"/>
        <pt x="214" y="764" on="1"/>
        <pt x="242" y="764" on="1"/>
        <pt x="384" y="682" on="1"/>
        <pt x="388" y="682" on="1"/>
        <pt x="388" y="764" on="1"/>
        <pt x="486" y="764" on="1"/>
        <pt x="486" y="640" on="1"/>
        <pt x="392" y="585" on="1"/>
        <pt x="364" y="585" on="1"/>
      </contour>
    </TTGlyph>
    <TTGlyph name="p" xMin="75" yMin="-200" xMax="530" yMax="505">
      <contour>
        <pt x="414" y="-5" on="1"/>
        <pt x="283" y="-5" on="1"/>
        <pt x="212" y="36" on="1"/>
        <pt x="212" y="-200" on="1"/>
        <pt x="75" y="-200" on="1"/>
        <pt x="75" y="505" on="1"/>
        <pt x="188" y="505" on="1"/>
        <pt x="212" y="464" on="1"/>
        <pt x="283" y="505" on="1"/>
        <pt x="414" y="505" on="1"/>
        <pt x="530" y="438" on="1"/>
        <pt x="530" y="62" on="1"/>
      </contour>
      <contour>
        <pt x="212" y="388" on="1"/>
        <pt x="212" y="112" on="1"/>
        <pt x="393" y="112" on="1"/>
        <pt x="393" y="388" on="1"/>
      </contour>
    </TTGlyph>
    <TTGlyph name="paragraph" xMin="55" yMin="-200" xMax="650" yMax="700">
      <contour>
        <pt x="513" y="-200" on="1"/>
        <pt x="513" y="583" on="1"/>
        <pt x="426" y="583" on="1"/>
        <pt x="426" y="-200" on="1"/>
        <pt x="289" y="-200" on="1"/>
        <pt x="289" y="219" on="1"/>
        <pt x="171" y="219" on="1"/>
        <pt x="55" y="286" on="1"/>
        <pt x="55" y="633" on="1"/>
        <pt x="171" y="700" on="1"/>
        <pt x="650" y="700" on="1"/>
        <pt x="650" y="-200" on="1"/>
      </contour>
    </TTGlyph>
    <TTGlyph name="parenleft" xMin="85" yMin="-200" xMax="328" yMax="730">
      <contour>
        <pt x="215" y="630" on="1"/>
        <pt x="215" y="-100" on="1"/>
        <pt x="328" y="-100" on="1"/>
        <pt x="328" y="-200" on="1"/>
        <pt x="201" y="-200" on="1"/>
        <pt x="85" y="-133" on="1"/>
        <pt x="85" y="663" on="1"/>
        <pt x="201" y="730" on="1"/>
        <pt x="328" y="730" on="1"/>
        <pt x="328" y="630" on="1"/>
      </contour>
    </TTGlyph>
    <TTGlyph name="parenright" xMin="55" yMin="-200" xMax="298" yMax="730">
      <contour>
        <pt x="168" y="-100" on="1"/>
        <pt x="168" y="630" on="1"/>
        <pt x="55" y="630" on="1"/>
        <pt x="55" y="730" on="1"/>
        <pt x="182" y="730" on="1"/>
        <pt x="298" y="663" on="1"/>
        <pt x="298" y="-133" on="1"/>
        <pt x="182" y="-200" on="1"/>
        <pt x="55" y="-200" on="1"/>
        <pt x="55" y="-100" on="1"/>
      </contour>
    </TTGlyph>
    <TTGlyph name="partialdiff" xMin="85" yMin="-5" xMax="560" yMax="705">
      <contour>
        <pt x="420" y="585" on="1"/>
        <pt x="201" y="585" on="1"/>
        <pt x="201" y="705" on="1"/>
        <pt x="444" y="705" on="1"/>
        <pt x="560" y="638" on="1"/>
        <pt x="560" y="62" on="1"/>
        <pt x="444" y="-5" on="1"/>
        <pt x="201" y="-5" on="1"/>
        <pt x="85" y="62" on="1"/>
        <pt x="85" y="348" on="1"/>
        <pt x="201" y="415" on="1"/>
        <pt x="349" y="415" on="1"/>
        <pt x="420" y="374" on="1"/>
      </contour>
      <contour>
        <pt x="420" y="115" on="1"/>
        <pt x="420" y="295" on="1"/>
        <pt x="225" y="295" on="1"/>
        <pt x="225" y="115" on="1"/>
      </contour>
    </TTGlyph>
    <TTGlyph name="percent" xMin="75" yMin="-10" xMax="926" yMax="710">
      <contour>
        <pt x="440" y="424" on="1"/>
        <pt x="324" y="357" on="1"/>
        <pt x="191" y="357" on="1"/>
        <pt x="75" y="424" on="1"/>
        <pt x="75" y="643" on="1"/>
        <pt x="191" y="710" on="1"/>
        <pt x="324" y="710" on="1"/>
        <pt x="440" y="643" on="1"/>
      </contour>
      <contour>
        <pt x="196" y="599" on="1"/>
        <pt x="196" y="468" on="1"/>
        <pt x="319" y="468" on="1"/>
        <pt x="319" y="599" on="1"/>
      </contour>
      <contour>
        <pt x="692" y="710" on="1"/>
        <pt x="822" y="710" on="1"/>
        <pt x="309" y="-10" on="1"/>
        <pt x="179" y="-10" on="1"/>
      </contour>
      <contour>
        <pt x="561" y="276" on="1"/>
        <pt x="677" y="343" on="1"/>
        <pt x="810" y="343" on="1"/>
        <pt x="926" y="276" on="1"/>
        <pt x="926" y="57" on="1"/>
        <pt x="810" y="-10" on="1"/>
        <pt x="677" y="-10" on="1"/>
        <pt x="561" y="57" on="1"/>
      </contour>
      <contour>
        <pt x="805" y="101" on="1"/>
        <pt x="805" y="232" on="1"/>
        <pt x="682" y="232" on="1"/>
        <pt x="682" y="101" on="1"/>
      </contour>
    </TTGlyph>
    <TTGlyph name="period" xMin="95" yMin="0" xMax="285" yMax="190">
      <contour>
        <pt x="95" y="0" on="1"/>
        <pt x="95" y="190" on="1"/>
        <pt x="285" y="190" on="1"/>
        <pt x="285" y="0" on="1"/>
      </contour>
    </TTGlyph>
    <TTGlyph name="periodcentered" xMin="95" yMin="264" xMax="285" yMax="454">
      <contour>
        <pt x="95" y="264" on="1"/>
        <pt x="95" y="454" on="1"/>
        <pt x="285" y="454" on="1"/>
        <pt x="285" y="264" on="1"/>
      </contour>
    </TTGlyph>
    <TTGlyph name="perthousand" xMin="75" yMin="-10" xMax="1361" yMax="710">
      <contour>
        <pt x="440" y="424" on="1"/>
        <pt x="324" y="357" on="1"/>
        <pt x="191" y="357" on="1"/>
        <pt x="75" y="424" on="1"/>
        <pt x="75" y="643" on="1"/>
        <pt x="191" y="710" on="1"/>
        <pt x="324" y="710" on="1"/>
        <pt x="440" y="643" on="1"/>
      </contour>
      <contour>
        <pt x="196" y="599" on="1"/>
        <pt x="196" y="468" on="1"/>
        <pt x="319" y="468" on="1"/>
        <pt x="319" y="599" on="1"/>
      </contour>
      <contour>
        <pt x="692" y="710" on="1"/>
        <pt x="822" y="710" on="1"/>
        <pt x="309" y="-10" on="1"/>
        <pt x="179" y="-10" on="1"/>
      </contour>
      <contour>
        <pt x="561" y="276" on="1"/>
        <pt x="677" y="343" on="1"/>
        <pt x="810" y="343" on="1"/>
        <pt x="926" y="276" on="1"/>
        <pt x="926" y="57" on="1"/>
        <pt x="810" y="-10" on="1"/>
        <pt x="677" y="-10" on="1"/>
        <pt x="561" y="57" on="1"/>
      </contour>
      <contour>
        <pt x="805" y="101" on="1"/>
        <pt x="805" y="232" on="1"/>
        <pt x="682" y="232" on="1"/>
        <pt x="682" y="101" on="1"/>
      </contour>
      <contour>
        <pt x="996" y="276" on="1"/>
        <pt x="1112" y="343" on="1"/>
        <pt x="1245" y="343" on="1"/>
        <pt x="1361" y="276" on="1"/>
        <pt x="1361" y="57" on="1"/>
        <pt x="1245" y="-10" on="1"/>
        <pt x="1112" y="-10" on="1"/>
        <pt x="996" y="57" on="1"/>
      </contour>
      <contour>
        <pt x="1240" y="101" on="1"/>
        <pt x="1240" y="232" on="1"/>
        <pt x="1117" y="232" on="1"/>
        <pt x="1117" y="101" on="1"/>
      </contour>
    </TTGlyph>
    <TTGlyph name="plus" xMin="45" yMin="0" xMax="565" yMax="520">
      <contour>
        <pt x="45" y="327" on="1"/>
        <pt x="238" y="327" on="1"/>
        <pt x="238" y="520" on="1"/>
        <pt x="372" y="520" on="1"/>
        <pt x="372" y="327" on="1"/>
        <pt x="565" y="327" on="1"/>
        <pt x="565" y="193" on="1"/>
        <pt x="372" y="193" on="1"/>
        <pt x="372" y="0" on="1"/>
        <pt x="238" y="0" on="1"/>
        <pt x="238" y="193" on="1"/>
        <pt x="45" y="193" on="1"/>
      </contour>
    </TTGlyph>
    <TTGlyph name="plusminus" xMin="85" yMin="0" xMax="605" yMax="580">
      <contour>
        <pt x="85" y="447" on="1"/>
        <pt x="278" y="447" on="1"/>
        <pt x="278" y="580" on="1"/>
        <pt x="412" y="580" on="1"/>
        <pt x="412" y="447" on="1"/>
        <pt x="605" y="447" on="1"/>
        <pt x="605" y="313" on="1"/>
        <pt x="412" y="313" on="1"/>
        <pt x="412" y="180" on="1"/>
        <pt x="278" y="180" on="1"/>
        <pt x="278" y="313" on="1"/>
        <pt x="85" y="313" on="1"/>
      </contour>
      <contour>
        <pt x="605" y="134" on="1"/>
        <pt x="605" y="0" on="1"/>
        <pt x="85" y="0" on="1"/>
        <pt x="85" y="134" on="1"/>
      </contour>
    </TTGlyph>
    <TTGlyph name="q" xMin="75" yMin="-200" xMax="530" yMax="505">
      <contour>
        <pt x="322" y="-5" on="1"/>
        <pt x="191" y="-5" on="1"/>
        <pt x="75" y="62" on="1"/>
        <pt x="75" y="438" on="1"/>
        <pt x="191" y="505" on="1"/>
        <pt x="322" y="505" on="1"/>
        <pt x="393" y="464" on="1"/>
        <pt x="464" y="505" on="1"/>
        <pt x="530" y="505" on="1"/>
        <pt x="530" y="-200" on="1"/>
        <pt x="393" y="-200" on="1"/>
        <pt x="393" y="36" on="1"/>
      </contour>
      <contour>
        <pt x="393" y="112" on="1"/>
        <pt x="393" y="388" on="1"/>
        <pt x="212" y="388" on="1"/>
        <pt x="212" y="112" on="1"/>
      </contour>
    </TTGlyph>
    <TTGlyph name="question" xMin="85" yMin="0" xMax="505" yMax="730">
      <contour>
        <pt x="317" y="376" on="1"/>
        <pt x="308" y="288" on="1"/>
        <pt x="198" y="288" on="1"/>
        <pt x="188" y="429" on="1"/>
        <pt x="304" y="496" on="1"/>
        <pt x="365" y="496" on="1"/>
        <pt x="365" y="610" on="1"/>
        <pt x="225" y="610" on="1"/>
        <pt x="225" y="520" on="1"/>
        <pt x="85" y="520" on="1"/>
        <pt x="85" y="663" on="1"/>
        <pt x="201" y="730" on="1"/>
        <pt x="389" y="730" on="1"/>
        <pt x="505" y="663" on="1"/>
        <pt x="505" y="443" on="1"/>
        <pt x="389" y="376" on="1"/>
      </contour>
      <contour>
        <pt x="158" y="0" on="1"/>
        <pt x="158" y="190" on="1"/>
        <pt x="348" y="190" on="1"/>
        <pt x="348" y="0" on="1"/>
      </contour>
    </TTGlyph>
    <TTGlyph name="questiondown" xMin="85" yMin="-230" xMax="505" yMax="500">
      <contour>
        <pt x="273" y="124" on="1"/>
        <pt x="282" y="212" on="1"/>
        <pt x="392" y="212" on="1"/>
        <pt x="402" y="71" on="1"/>
        <pt x="286" y="4" on="1"/>
        <pt x="225" y="4" on="1"/>
        <pt x="225" y="-110" on="1"/>
        <pt x="365" y="-110" on="1"/>
        <pt x="365" y="-20" on="1"/>
        <pt x="505" y="-20" on="1"/>
        <pt x="505" y="-163" on="1"/>
        <pt x="389" y="-230" on="1"/>
        <pt x="201" y="-230" on="1"/>
        <pt x="85" y="-163" on="1"/>
        <pt x="85" y="57" on="1"/>
        <pt x="201" y="124" on="1"/>
      </contour>
      <contour>
        <pt x="432" y="500" on="1"/>
        <pt x="432" y="310" on="1"/>
        <pt x="242" y="310" on="1"/>
        <pt x="242" y="500" on="1"/>
      </contour>
    </TTGlyph>
    <TTGlyph name="quotedbl" xMin="65" yMin="418" xMax="435" yMax="730">
      <contour>
        <pt x="85" y="418" on="1"/>
        <pt x="65" y="730" on="1"/>
        <pt x="215" y="730" on="1"/>
        <pt x="195" y="418" on="1"/>
      </contour>
      <contour>
        <pt x="305" y="418" on="1"/>
        <pt x="285" y="730" on="1"/>
        <pt x="435" y="730" on="1"/>
        <pt x="415" y="418" on="1"/>
      </contour>
    </TTGlyph>
    <TTGlyph name="quotedblbase" xMin="95" yMin="-200" xMax="565" yMax="190">
      <contour>
        <pt x="95" y="-200" on="1"/>
        <pt x="95" y="190" on="1"/>
        <pt x="285" y="190" on="1"/>
        <pt x="285" y="108" on="1"/>
        <pt x="177" y="-200" on="1"/>
      </contour>
      <contour>
        <pt x="375" y="-200" on="1"/>
        <pt x="375" y="190" on="1"/>
        <pt x="565" y="190" on="1"/>
        <pt x="565" y="108" on="1"/>
        <pt x="457" y="-200" on="1"/>
      </contour>
    </TTGlyph>
    <TTGlyph name="quotedblleft" xMin="85" yMin="340" xMax="555" yMax="730">
      <contour>
        <pt x="555" y="730" on="1"/>
        <pt x="555" y="340" on="1"/>
        <pt x="365" y="340" on="1"/>
        <pt x="365" y="422" on="1"/>
        <pt x="473" y="730" on="1"/>
      </contour>
      <contour>
        <pt x="275" y="730" on="1"/>
        <pt x="275" y="340" on="1"/>
        <pt x="85" y="340" on="1"/>
        <pt x="85" y="422" on="1"/>
        <pt x="193" y="730" on="1"/>
      </contour>
    </TTGlyph>
    <TTGlyph name="quotedblright" xMin="85" yMin="340" xMax="555" yMax="730">
      <contour>
        <pt x="85" y="340" on="1"/>
        <pt x="85" y="730" on="1"/>
        <pt x="275" y="730" on="1"/>
        <pt x="275" y="648" on="1"/>
        <pt x="167" y="340" on="1"/>
      </contour>
      <contour>
        <pt x="365" y="340" on="1"/>
        <pt x="365" y="730" on="1"/>
        <pt x="555" y="730" on="1"/>
        <pt x="555" y="648" on="1"/>
        <pt x="447" y="340" on="1"/>
      </contour>
    </TTGlyph>
    <TTGlyph name="quoteleft" xMin="85" yMin="340" xMax="275" yMax="730">
      <contour>
        <pt x="275" y="730" on="1"/>
        <pt x="275" y="340" on="1"/>
        <pt x="85" y="340" on="1"/>
        <pt x="85" y="422" on="1"/>
        <pt x="193" y="730" on="1"/>
      </contour>
    </TTGlyph>
    <TTGlyph name="quoteright" xMin="85" yMin="340" xMax="275" yMax="730">
      <contour>
        <pt x="85" y="340" on="1"/>
        <pt x="85" y="730" on="1"/>
        <pt x="275" y="730" on="1"/>
        <pt x="275" y="648" on="1"/>
        <pt x="167" y="340" on="1"/>
      </contour>
    </TTGlyph>
    <TTGlyph name="quotesinglbase" xMin="95" yMin="-200" xMax="285" yMax="190">
      <contour>
        <pt x="95" y="-200" on="1"/>
        <pt x="95" y="190" on="1"/>
        <pt x="285" y="190" on="1"/>
        <pt x="285" y="108" on="1"/>
        <pt x="177" y="-200" on="1"/>
      </contour>
    </TTGlyph>
    <TTGlyph name="quotesingle" xMin="65" yMin="418" xMax="215" yMax="730">
      <contour>
        <pt x="85" y="418" on="1"/>
        <pt x="65" y="730" on="1"/>
        <pt x="215" y="730" on="1"/>
        <pt x="195" y="418" on="1"/>
      </contour>
    </TTGlyph>
    <TTGlyph name="r" xMin="75" yMin="0" xMax="384" yMax="500">
      <contour>
        <pt x="384" y="383" on="1"/>
        <pt x="212" y="383" on="1"/>
        <pt x="212" y="0" on="1"/>
        <pt x="75" y="0" on="1"/>
        <pt x="75" y="500" on="1"/>
        <pt x="188" y="500" on="1"/>
        <pt x="212" y="459" on="1"/>
        <pt x="283" y="500" on="1"/>
        <pt x="384" y="500" on="1"/>
      </contour>
    </TTGlyph>
    <TTGlyph name="rcaron" xMin="9" yMin="0" xMax="400" yMax="738">
      <contour>
        <pt x="384" y="383" on="1"/>
        <pt x="212" y="383" on="1"/>
        <pt x="212" y="0" on="1"/>
        <pt x="75" y="0" on="1"/>
        <pt x="75" y="500" on="1"/>
        <pt x="188" y="500" on="1"/>
        <pt x="212" y="459" on="1"/>
        <pt x="283" y="500" on="1"/>
        <pt x="384" y="500" on="1"/>
      </contour>
      <contour>
        <pt x="300" y="590" on="1"/>
        <pt x="110" y="590" on="1"/>
        <pt x="9" y="738" on="1"/>
        <pt x="124" y="738" on="1"/>
        <pt x="205" y="658" on="1"/>
        <pt x="285" y="738" on="1"/>
        <pt x="400" y="738" on="1"/>
      </contour>
    </TTGlyph>
    <TTGlyph name="rcommaaccent" xMin="75" yMin="-367" xMax="384" yMax="500">
      <contour>
        <pt x="384" y="383" on="1"/>
        <pt x="212" y="383" on="1"/>
        <pt x="212" y="0" on="1"/>
        <pt x="75" y="0" on="1"/>
        <pt x="75" y="500" on="1"/>
        <pt x="188" y="500" on="1"/>
        <pt x="212" y="459" on="1"/>
        <pt x="283" y="500" on="1"/>
        <pt x="384" y="500" on="1"/>
      </contour>
      <contour>
        <pt x="128" y="-367" on="1"/>
        <pt x="128" y="-55" on="1"/>
        <pt x="280" y="-55" on="1"/>
        <pt x="280" y="-121" on="1"/>
        <pt x="194" y="-367" on="1"/>
      </contour>
    </TTGlyph>
    <TTGlyph name="registered" xMin="85" yMin="-5" xMax="765" yMax="705">
      <contour>
        <pt x="601" y="138" on="1"/>
        <pt x="482" y="138" on="1"/>
        <pt x="399" y="283" on="1"/>
        <pt x="376" y="283" on="1"/>
        <pt x="376" y="138" on="1"/>
        <pt x="267" y="138" on="1"/>
        <pt x="267" y="562" on="1"/>
        <pt x="508" y="562" on="1"/>
        <pt x="582" y="520" on="1"/>
        <pt x="582" y="326" on="1"/>
        <pt x="514" y="286" on="1"/>
      </contour>
      <contour>
        <pt x="376" y="469" on="1"/>
        <pt x="376" y="376" on="1"/>
        <pt x="473" y="376" on="1"/>
        <pt x="473" y="469" on="1"/>
      </contour>
      <contour>
        <pt x="765" y="62" on="1"/>
        <pt x="649" y="-5" on="1"/>
        <pt x="201" y="-5" on="1"/>
        <pt x="85" y="62" on="1"/>
        <pt x="85" y="638" on="1"/>
        <pt x="201" y="705" on="1"/>
        <pt x="649" y="705" on="1"/>
        <pt x="765" y="638" on="1"/>
      </contour>
      <contour>
        <pt x="205" y="605" on="1"/>
        <pt x="205" y="95" on="1"/>
        <pt x="645" y="95" on="1"/>
        <pt x="645" y="605" on="1"/>
      </contour>
    </TTGlyph>
    <TTGlyph name="ring" xMin="102" yMin="570" xMax="427" yMax="873">
      <contour>
        <pt x="427" y="617" on="1"/>
        <pt x="345" y="570" on="1"/>
        <pt x="184" y="570" on="1"/>
        <pt x="102" y="617" on="1"/>
        <pt x="102" y="826" on="1"/>
        <pt x="184" y="873" on="1"/>
        <pt x="345" y="873" on="1"/>
        <pt x="427" y="826" on="1"/>
      </contour>
      <contour>
        <pt x="207" y="778" on="1"/>
        <pt x="207" y="665" on="1"/>
        <pt x="322" y="665" on="1"/>
        <pt x="322" y="778" on="1"/>
      </contour>
    </TTGlyph>
    <TTGlyph name="ring.cap" xMin="102" yMin="760" xMax="427" yMax="1063">
      <contour>
        <pt x="427" y="807" on="1"/>
        <pt x="345" y="760" on="1"/>
        <pt x="184" y="760" on="1"/>
        <pt x="102" y="807" on="1"/>
        <pt x="102" y="1016" on="1"/>
        <pt x="184" y="1063" on="1"/>
        <pt x="345" y="1063" on="1"/>
        <pt x="427" y="1016" on="1"/>
      </contour>
      <contour>
        <pt x="207" y="968" on="1"/>
        <pt x="207" y="855" on="1"/>
        <pt x="322" y="855" on="1"/>
        <pt x="322" y="968" on="1"/>
      </contour>
    </TTGlyph>
    <TTGlyph name="s" xMin="75" yMin="0" xMax="471" yMax="500">
      <contour>
        <pt x="471" y="246" on="1"/>
        <pt x="471" y="67" on="1"/>
        <pt x="355" y="0" on="1"/>
        <pt x="75" y="0" on="1"/>
        <pt x="75" y="117" on="1"/>
        <pt x="334" y="117" on="1"/>
        <pt x="334" y="194" on="1"/>
        <pt x="191" y="194" on="1"/>
        <pt x="75" y="261" on="1"/>
        <pt x="75" y="433" on="1"/>
        <pt x="191" y="500" on="1"/>
        <pt x="461" y="500" on="1"/>
        <pt x="461" y="383" on="1"/>
        <pt x="212" y="383" on="1"/>
        <pt x="212" y="313" on="1"/>
        <pt x="355" y="313" on="1"/>
      </contour>
    </TTGlyph>
    <TTGlyph name="scaron" xMin="75" yMin="0" xMax="477" yMax="738">
      <contour>
        <pt x="471" y="246" on="1"/>
        <pt x="471" y="67" on="1"/>
        <pt x="355" y="0" on="1"/>
        <pt x="75" y="0" on="1"/>
        <pt x="75" y="117" on="1"/>
        <pt x="334" y="117" on="1"/>
        <pt x="334" y="194" on="1"/>
        <pt x="191" y="194" on="1"/>
        <pt x="75" y="261" on="1"/>
        <pt x="75" y="433" on="1"/>
        <pt x="191" y="500" on="1"/>
        <pt x="461" y="500" on="1"/>
        <pt x="461" y="383" on="1"/>
        <pt x="212" y="383" on="1"/>
        <pt x="212" y="313" on="1"/>
        <pt x="355" y="313" on="1"/>
      </contour>
      <contour>
        <pt x="377" y="590" on="1"/>
        <pt x="187" y="590" on="1"/>
        <pt x="86" y="738" on="1"/>
        <pt x="201" y="738" on="1"/>
        <pt x="282" y="658" on="1"/>
        <pt x="362" y="738" on="1"/>
        <pt x="477" y="738" on="1"/>
      </contour>
    </TTGlyph>
    <TTGlyph name="section" xMin="85" yMin="-200" xMax="578" yMax="705">
      <contour>
        <pt x="420" y="178" on="1"/>
        <pt x="420" y="327" on="1"/>
        <pt x="253" y="327" on="1"/>
        <pt x="253" y="178" on="1"/>
      </contour>
      <contour>
        <pt x="113" y="336" on="1"/>
        <pt x="200" y="386" on="1"/>
        <pt x="200" y="388" on="1"/>
        <pt x="113" y="438" on="1"/>
        <pt x="113" y="638" on="1"/>
        <pt x="229" y="705" on="1"/>
        <pt x="462" y="705" on="1"/>
        <pt x="578" y="638" on="1"/>
        <pt x="578" y="505" on="1"/>
        <pt x="438" y="505" on="1"/>
        <pt x="438" y="585" on="1"/>
        <pt x="253" y="585" on="1"/>
        <pt x="253" y="447" on="1"/>
        <pt x="444" y="447" on="1"/>
        <pt x="560" y="380" on="1"/>
        <pt x="560" y="169" on="1"/>
        <pt x="473" y="119" on="1"/>
        <pt x="473" y="117" on="1"/>
        <pt x="560" y="67" on="1"/>
        <pt x="560" y="-133" on="1"/>
        <pt x="444" y="-200" on="1"/>
        <pt x="201" y="-200" on="1"/>
        <pt x="85" y="-133" on="1"/>
        <pt x="85" y="0" on="1"/>
        <pt x="225" y="0" on="1"/>
        <pt x="225" y="-80" on="1"/>
        <pt x="420" y="-80" on="1"/>
        <pt x="420" y="58" on="1"/>
        <pt x="229" y="58" on="1"/>
        <pt x="113" y="125" on="1"/>
      </contour>
    </TTGlyph>
    <TTGlyph name="semicolon" xMin="95" yMin="-200" xMax="285" yMax="520">
      <contour>
        <pt x="95" y="-200" on="1"/>
        <pt x="95" y="190" on="1"/>
        <pt x="285" y="190" on="1"/>
        <pt x="285" y="108" on="1"/>
        <pt x="177" y="-200" on="1"/>
      </contour>
      <contour>
        <pt x="95" y="330" on="1"/>
        <pt x="95" y="520" on="1"/>
        <pt x="285" y="520" on="1"/>
        <pt x="285" y="330" on="1"/>
      </contour>
    </TTGlyph>
    <TTGlyph name="seven" xMin="55" yMin="0" xMax="580" yMax="700">
      <contour>
        <pt x="298" y="0" on="1"/>
        <pt x="151" y="0" on="1"/>
        <pt x="420" y="578" on="1"/>
        <pt x="420" y="580" on="1"/>
        <pt x="195" y="580" on="1"/>
        <pt x="195" y="490" on="1"/>
        <pt x="55" y="490" on="1"/>
        <pt x="55" y="700" on="1"/>
        <pt x="580" y="700" on="1"/>
        <pt x="580" y="610" on="1"/>
      </contour>
    </TTGlyph>
    <TTGlyph name="six" xMin="85" yMin="-5" xMax="560" yMax="705">
      <contour>
        <pt x="225" y="585" on="1"/>
        <pt x="225" y="384" on="1"/>
        <pt x="296" y="425" on="1"/>
        <pt x="444" y="425" on="1"/>
        <pt x="560" y="358" on="1"/>
        <pt x="560" y="62" on="1"/>
        <pt x="444" y="-5" on="1"/>
        <pt x="201" y="-5" on="1"/>
        <pt x="85" y="62" on="1"/>
        <pt x="85" y="638" on="1"/>
        <pt x="201" y="705" on="1"/>
        <pt x="444" y="705" on="1"/>
        <pt x="560" y="638" on="1"/>
        <pt x="560" y="495" on="1"/>
        <pt x="420" y="495" on="1"/>
        <pt x="420" y="585" on="1"/>
      </contour>
      <contour>
        <pt x="225" y="305" on="1"/>
        <pt x="225" y="115" on="1"/>
        <pt x="420" y="115" on="1"/>
        <pt x="420" y="305" on="1"/>
      </contour>
    </TTGlyph>
    <TTGlyph name="slash" xMin="25" yMin="-20" xMax="391" yMax="720">
      <contour>
        <pt x="25" y="-20" on="1"/>
        <pt x="261" y="720" on="1"/>
        <pt x="391" y="720" on="1"/>
        <pt x="155" y="-20" on="1"/>
      </contour>
    </TTGlyph>
    <TTGlyph name="st" xMin="75" yMin="0" xMax="885" yMax="663">
      <contour>
        <pt x="471" y="246" on="1"/>
        <pt x="471" y="67" on="1"/>
        <pt x="355" y="0" on="1"/>
        <pt x="75" y="0" on="1"/>
        <pt x="75" y="117" on="1"/>
        <pt x="334" y="117" on="1"/>
        <pt x="334" y="194" on="1"/>
        <pt x="191" y="194" on="1"/>
        <pt x="75" y="261" on="1"/>
        <pt x="75" y="433" on="1"/>
        <pt x="191" y="500" on="1"/>
        <pt x="638" y="500" on="1"/>
        <pt x="638" y="584" on="1"/>
        <pt x="775" y="663" on="1"/>
        <pt x="775" y="500" on="1"/>
        <pt x="885" y="500" on="1"/>
        <pt x="885" y="383" on="1"/>
        <pt x="775" y="383" on="1"/>
        <pt x="775" y="117" on="1"/>
        <pt x="885" y="117" on="1"/>
        <pt x="885" y="0" on="1"/>
        <pt x="754" y="0" on="1"/>
        <pt x="638" y="67" on="1"/>
        <pt x="638" y="383" on="1"/>
        <pt x="212" y="383" on="1"/>
        <pt x="212" y="313" on="1"/>
        <pt x="355" y="313" on="1"/>
      </contour>
    </TTGlyph>
    <TTGlyph name="sterling" xMin="35" yMin="0" xMax="607" yMax="705">
      <contour>
        <pt x="371" y="380" on="1"/>
        <pt x="371" y="276" on="1"/>
        <pt x="252" y="276" on="1"/>
        <pt x="252" y="120" on="1"/>
        <pt x="467" y="120" on="1"/>
        <pt x="467" y="210" on="1"/>
        <pt x="607" y="210" on="1"/>
        <pt x="607" y="67" on="1"/>
        <pt x="491" y="0" on="1"/>
        <pt x="112" y="0" on="1"/>
        <pt x="112" y="276" on="1"/>
        <pt x="35" y="276" on="1"/>
        <pt x="35" y="380" on="1"/>
        <pt x="112" y="380" on="1"/>
        <pt x="112" y="638" on="1"/>
        <pt x="228" y="705" on="1"/>
        <pt x="441" y="705" on="1"/>
        <pt x="557" y="638" on="1"/>
        <pt x="557" y="495" on="1"/>
        <pt x="417" y="495" on="1"/>
        <pt x="417" y="585" on="1"/>
        <pt x="252" y="585" on="1"/>
        <pt x="252" y="380" on="1"/>
      </contour>
    </TTGlyph>
    <TTGlyph name="t" xMin="35" yMin="0" xMax="374" yMax="663">
      <contour>
        <pt x="35" y="383" on="1"/>
        <pt x="35" y="500" on="1"/>
        <pt x="127" y="500" on="1"/>
        <pt x="127" y="584" on="1"/>
        <pt x="264" y="663" on="1"/>
        <pt x="264" y="500" on="1"/>
        <pt x="374" y="500" on="1"/>
        <pt x="374" y="383" on="1"/>
        <pt x="264" y="383" on="1"/>
        <pt x="264" y="117" on="1"/>
        <pt x="374" y="117" on="1"/>
        <pt x="374" y="0" on="1"/>
        <pt x="243" y="0" on="1"/>
        <pt x="127" y="67" on="1"/>
        <pt x="127" y="383" on="1"/>
      </contour>
    </TTGlyph>
    <TTGlyph name="thorn" xMin="65" yMin="-200" xMax="520" yMax="730">
      <contour>
        <pt x="65" y="730" on="1"/>
        <pt x="202" y="730" on="1"/>
        <pt x="202" y="464" on="1"/>
        <pt x="273" y="505" on="1"/>
        <pt x="404" y="505" on="1"/>
        <pt x="520" y="438" on="1"/>
        <pt x="520" y="62" on="1"/>
        <pt x="404" y="-5" on="1"/>
        <pt x="273" y="-5" on="1"/>
        <pt x="202" y="36" on="1"/>
        <pt x="202" y="-200" on="1"/>
        <pt x="65" y="-200" on="1"/>
      </contour>
      <contour>
        <pt x="202" y="388" on="1"/>
        <pt x="202" y="112" on="1"/>
        <pt x="383" y="112" on="1"/>
        <pt x="383" y="388" on="1"/>
      </contour>
    </TTGlyph>
    <TTGlyph name="three" xMin="85" yMin="-5" xMax="576" yMax="705">
      <contour>
        <pt x="460" y="-5" on="1"/>
        <pt x="201" y="-5" on="1"/>
        <pt x="85" y="62" on="1"/>
        <pt x="85" y="205" on="1"/>
        <pt x="225" y="205" on="1"/>
        <pt x="225" y="115" on="1"/>
        <pt x="436" y="115" on="1"/>
        <pt x="436" y="302" on="1"/>
        <pt x="261" y="302" on="1"/>
        <pt x="261" y="422" on="1"/>
        <pt x="436" y="422" on="1"/>
        <pt x="436" y="585" on="1"/>
        <pt x="225" y="585" on="1"/>
        <pt x="225" y="495" on="1"/>
        <pt x="85" y="495" on="1"/>
        <pt x="85" y="638" on="1"/>
        <pt x="201" y="705" on="1"/>
        <pt x="460" y="705" on="1"/>
        <pt x="576" y="638" on="1"/>
        <pt x="576" y="413" on="1"/>
        <pt x="489" y="363" on="1"/>
        <pt x="489" y="361" on="1"/>
        <pt x="576" y="311" on="1"/>
        <pt x="576" y="62" on="1"/>
      </contour>
    </TTGlyph>
    <TTGlyph name="tilde" xMin="70" yMin="585" xMax="436" yMax="764">
      <contour>
        <pt x="172" y="667" on="1"/>
        <pt x="168" y="667" on="1"/>
        <pt x="168" y="585" on="1"/>
        <pt x="70" y="585" on="1"/>
        <pt x="70" y="709" on="1"/>
        <pt x="164" y="764" on="1"/>
        <pt x="192" y="764" on="1"/>
        <pt x="334" y="682" on="1"/>
        <pt x="338" y="682" on="1"/>
        <pt x="338" y="764" on="1"/>
        <pt x="436" y="764" on="1"/>
        <pt x="436" y="640" on="1"/>
        <pt x="342" y="585" on="1"/>
        <pt x="314" y="585" on="1"/>
      </contour>
    </TTGlyph>
    <TTGlyph name="tilde.cap" xMin="70" yMin="775" xMax="436" yMax="954">
      <contour>
        <pt x="172" y="857" on="1"/>
        <pt x="168" y="857" on="1"/>
        <pt x="168" y="775" on="1"/>
        <pt x="70" y="775" on="1"/>
        <pt x="70" y="899" on="1"/>
        <pt x="164" y="954" on="1"/>
        <pt x="192" y="954" on="1"/>
        <pt x="334" y="872" on="1"/>
        <pt x="338" y="872" on="1"/>
        <pt x="338" y="954" on="1"/>
        <pt x="436" y="954" on="1"/>
        <pt x="436" y="830" on="1"/>
        <pt x="342" y="775" on="1"/>
        <pt x="314" y="775" on="1"/>
      </contour>
    </TTGlyph>
    <TTGlyph name="trademark" xMin="65" yMin="326" xMax="766" yMax="700">
      <contour>
        <pt x="678" y="326" on="1"/>
        <pt x="678" y="497" on="1"/>
        <pt x="676" y="497" on="1"/>
        <pt x="607" y="326" on="1"/>
        <pt x="531" y="326" on="1"/>
        <pt x="464" y="497" on="1"/>
        <pt x="462" y="497" on="1"/>
        <pt x="462" y="326" on="1"/>
        <pt x="373" y="326" on="1"/>
        <pt x="373" y="700" on="1"/>
        <pt x="478" y="700" on="1"/>
        <pt x="570" y="469" on="1"/>
        <pt x="572" y="469" on="1"/>
        <pt x="662" y="700" on="1"/>
        <pt x="766" y="700" on="1"/>
        <pt x="766" y="326" on="1"/>
      </contour>
      <contour>
        <pt x="248" y="611" on="1"/>
        <pt x="248" y="326" on="1"/>
        <pt x="158" y="326" on="1"/>
        <pt x="158" y="611" on="1"/>
        <pt x="65" y="611" on="1"/>
        <pt x="65" y="700" on="1"/>
        <pt x="340" y="700" on="1"/>
        <pt x="340" y="611" on="1"/>
      </contour>
    </TTGlyph>
    <TTGlyph name="two" xMin="85" yMin="0" xMax="555" yMax="700">
      <contour>
        <pt x="225" y="120" on="1"/>
        <pt x="555" y="120" on="1"/>
        <pt x="555" y="0" on="1"/>
        <pt x="85" y="0" on="1"/>
        <pt x="85" y="329" on="1"/>
        <pt x="201" y="396" on="1"/>
        <pt x="415" y="396" on="1"/>
        <pt x="415" y="580" on="1"/>
        <pt x="225" y="580" on="1"/>
        <pt x="225" y="490" on="1"/>
        <pt x="85" y="490" on="1"/>
        <pt x="85" y="633" on="1"/>
        <pt x="201" y="700" on="1"/>
        <pt x="439" y="700" on="1"/>
        <pt x="555" y="633" on="1"/>
        <pt x="555" y="343" on="1"/>
        <pt x="439" y="276" on="1"/>
        <pt x="225" y="276" on="1"/>
      </contour>
    </TTGlyph>
    <TTGlyph name="u" xMin="75" yMin="-5" xMax="520" yMax="500">
      <contour>
        <pt x="75" y="62" on="1"/>
        <pt x="75" y="500" on="1"/>
        <pt x="212" y="500" on="1"/>
        <pt x="212" y="112" on="1"/>
        <pt x="383" y="112" on="1"/>
        <pt x="383" y="500" on="1"/>
        <pt x="520" y="500" on="1"/>
        <pt x="520" y="-5" on="1"/>
        <pt x="407" y="-5" on="1"/>
        <pt x="383" y="36" on="1"/>
        <pt x="312" y="-5" on="1"/>
        <pt x="191" y="-5" on="1"/>
      </contour>
    </TTGlyph>
    <TTGlyph name="uacute" xMin="75" yMin="-5" xMax="520" yMax="718">
      <contour>
        <pt x="75" y="62" on="1"/>
        <pt x="75" y="500" on="1"/>
        <pt x="212" y="500" on="1"/>
        <pt x="212" y="112" on="1"/>
        <pt x="383" y="112" on="1"/>
        <pt x="383" y="500" on="1"/>
        <pt x="520" y="500" on="1"/>
        <pt x="520" y="-5" on="1"/>
        <pt x="407" y="-5" on="1"/>
        <pt x="383" y="36" on="1"/>
        <pt x="312" y="-5" on="1"/>
        <pt x="191" y="-5" on="1"/>
      </contour>
      <contour>
        <pt x="205" y="590" on="1"/>
        <pt x="299" y="718" on="1"/>
        <pt x="469" y="718" on="1"/>
        <pt x="325" y="590" on="1"/>
      </contour>
    </TTGlyph>
    <TTGlyph name="ucircumflex" xMin="75" yMin="-5" xMax="520" yMax="738">
      <contour>
        <pt x="75" y="62" on="1"/>
        <pt x="75" y="500" on="1"/>
        <pt x="212" y="500" on="1"/>
        <pt x="212" y="112" on="1"/>
        <pt x="383" y="112" on="1"/>
        <pt x="383" y="500" on="1"/>
        <pt x="520" y="500" on="1"/>
        <pt x="520" y="-5" on="1"/>
        <pt x="407" y="-5" on="1"/>
        <pt x="383" y="36" on="1"/>
        <pt x="312" y="-5" on="1"/>
        <pt x="191" y="-5" on="1"/>
      </contour>
      <contour>
        <pt x="208" y="738" on="1"/>
        <pt x="398" y="738" on="1"/>
        <pt x="499" y="590" on="1"/>
        <pt x="384" y="590" on="1"/>
        <pt x="303" y="670" on="1"/>
        <pt x="223" y="590" on="1"/>
        <pt x="108" y="590" on="1"/>
      </contour>
    </TTGlyph>
    <TTGlyph name="udieresis" xMin="75" yMin="-5" xMax="520" yMax="730">
      <contour>
        <pt x="75" y="62" on="1"/>
        <pt x="75" y="500" on="1"/>
        <pt x="212" y="500" on="1"/>
        <pt x="212" y="112" on="1"/>
        <pt x="383" y="112" on="1"/>
        <pt x="383" y="500" on="1"/>
        <pt x="520" y="500" on="1"/>
        <pt x="520" y="-5" on="1"/>
        <pt x="407" y="-5" on="1"/>
        <pt x="383" y="36" on="1"/>
        <pt x="312" y="-5" on="1"/>
        <pt x="191" y="-5" on="1"/>
      </contour>
      <contour>
        <pt x="115" y="595" on="1"/>
        <pt x="115" y="730" on="1"/>
        <pt x="250" y="730" on="1"/>
        <pt x="250" y="595" on="1"/>
      </contour>
      <contour>
        <pt x="354" y="595" on="1"/>
        <pt x="354" y="730" on="1"/>
        <pt x="489" y="730" on="1"/>
        <pt x="489" y="595" on="1"/>
      </contour>
    </TTGlyph>
    <TTGlyph name="ugrave" xMin="75" yMin="-5" xMax="520" yMax="718">
      <contour>
        <pt x="75" y="62" on="1"/>
        <pt x="75" y="500" on="1"/>
        <pt x="212" y="500" on="1"/>
        <pt x="212" y="112" on="1"/>
        <pt x="383" y="112" on="1"/>
        <pt x="383" y="500" on="1"/>
        <pt x="520" y="500" on="1"/>
        <pt x="520" y="-5" on="1"/>
        <pt x="407" y="-5" on="1"/>
        <pt x="383" y="36" on="1"/>
        <pt x="312" y="-5" on="1"/>
        <pt x="191" y="-5" on="1"/>
      </contour>
      <contour>
        <pt x="335" y="718" on="1"/>
        <pt x="429" y="590" on="1"/>
        <pt x="309" y="590" on="1"/>
        <pt x="165" y="718" on="1"/>
      </contour>
    </TTGlyph>
    <TTGlyph name="underscore" xMin="-25" yMin="-200" xMax="627" yMax="-86">
      <contour>
        <pt x="627" y="-86" on="1"/>
        <pt x="627" y="-200" on="1"/>
        <pt x="-25" y="-200" on="1"/>
        <pt x="-25" y="-86" on="1"/>
      </contour>
    </TTGlyph>
    <TTGlyph name="v" xMin="15" yMin="0" xMax="522" yMax="500">
      <contour>
        <pt x="152" y="500" on="1"/>
        <pt x="267" y="172" on="1"/>
        <pt x="269" y="172" on="1"/>
        <pt x="385" y="500" on="1"/>
        <pt x="522" y="500" on="1"/>
        <pt x="337" y="0" on="1"/>
        <pt x="200" y="0" on="1"/>
        <pt x="15" y="500" on="1"/>
      </contour>
    </TTGlyph>
    <TTGlyph name="w" xMin="25" yMin="0" xMax="743" yMax="500">
      <contour>
        <pt x="385" y="316" on="1"/>
        <pt x="383" y="316" on="1"/>
        <pt x="295" y="0" on="1"/>
        <pt x="153" y="0" on="1"/>
        <pt x="25" y="500" on="1"/>
        <pt x="152" y="500" on="1"/>
        <pt x="230" y="181" on="1"/>
        <pt x="232" y="181" on="1"/>
        <pt x="321" y="500" on="1"/>
        <pt x="447" y="500" on="1"/>
        <pt x="536" y="181" on="1"/>
        <pt x="538" y="181" on="1"/>
        <pt x="616" y="500" on="1"/>
        <pt x="743" y="500" on="1"/>
        <pt x="615" y="0" on="1"/>
        <pt x="473" y="0" on="1"/>
      </contour>
    </TTGlyph>
    <TTGlyph name="x" xMin="15" yMin="0" xMax="521" yMax="500">
      <contour>
        <pt x="15" y="0" on="1"/>
        <pt x="197" y="255" on="1"/>
        <pt x="21" y="500" on="1"/>
        <pt x="170" y="500" on="1"/>
        <pt x="268" y="359" on="1"/>
        <pt x="366" y="500" on="1"/>
        <pt x="515" y="500" on="1"/>
        <pt x="338" y="255" on="1"/>
        <pt x="521" y="0" on="1"/>
        <pt x="374" y="0" on="1"/>
        <pt x="268" y="150" on="1"/>
        <pt x="162" y="0" on="1"/>
      </contour>
    </TTGlyph>
    <TTGlyph name="y" xMin="15" yMin="-200" xMax="530" yMax="500">
      <contour>
        <pt x="114" y="-200" on="1"/>
        <pt x="206" y="35" on="1"/>
        <pt x="15" y="500" on="1"/>
        <pt x="152" y="500" on="1"/>
        <pt x="275" y="206" on="1"/>
        <pt x="277" y="206" on="1"/>
        <pt x="393" y="500" on="1"/>
        <pt x="530" y="500" on="1"/>
        <pt x="249" y="-200" on="1"/>
      </contour>
    </TTGlyph>
    <TTGlyph name="yacute" xMin="15" yMin="-200" xMax="530" yMax="718">
      <contour>
        <pt x="114" y="-200" on="1"/>
        <pt x="206" y="35" on="1"/>
        <pt x="15" y="500" on="1"/>
        <pt x="152" y="500" on="1"/>
        <pt x="275" y="206" on="1"/>
        <pt x="277" y="206" on="1"/>
        <pt x="393" y="500" on="1"/>
        <pt x="530" y="500" on="1"/>
        <pt x="249" y="-200" on="1"/>
      </contour>
      <contour>
        <pt x="185" y="590" on="1"/>
        <pt x="279" y="718" on="1"/>
        <pt x="449" y="718" on="1"/>
        <pt x="305" y="590" on="1"/>
      </contour>
    </TTGlyph>
    <TTGlyph name="ydieresis" xMin="15" yMin="-200" xMax="530" yMax="730">
      <contour>
        <pt x="114" y="-200" on="1"/>
        <pt x="206" y="35" on="1"/>
        <pt x="15" y="500" on="1"/>
        <pt x="152" y="500" on="1"/>
        <pt x="275" y="206" on="1"/>
        <pt x="277" y="206" on="1"/>
        <pt x="393" y="500" on="1"/>
        <pt x="530" y="500" on="1"/>
        <pt x="249" y="-200" on="1"/>
      </contour>
      <contour>
        <pt x="95" y="595" on="1"/>
        <pt x="95" y="730" on="1"/>
        <pt x="230" y="730" on="1"/>
        <pt x="230" y="595" on="1"/>
      </contour>
      <contour>
        <pt x="334" y="595" on="1"/>
        <pt x="334" y="730" on="1"/>
        <pt x="469" y="730" on="1"/>
        <pt x="469" y="595" on="1"/>
      </contour>
    </TTGlyph>
    <TTGlyph name="yen" xMin="35" yMin="0" xMax="626" yMax="700">
      <contour>
        <pt x="260" y="0" on="1"/>
        <pt x="260" y="128" on="1"/>
        <pt x="62" y="128" on="1"/>
        <pt x="62" y="232" on="1"/>
        <pt x="260" y="232" on="1"/>
        <pt x="260" y="293" on="1"/>
        <pt x="62" y="293" on="1"/>
        <pt x="62" y="397" on="1"/>
        <pt x="205" y="397" on="1"/>
        <pt x="35" y="700" on="1"/>
        <pt x="187" y="700" on="1"/>
        <pt x="329" y="438" on="1"/>
        <pt x="331" y="438" on="1"/>
        <pt x="474" y="700" on="1"/>
        <pt x="626" y="700" on="1"/>
        <pt x="455" y="397" on="1"/>
        <pt x="598" y="397" on="1"/>
        <pt x="598" y="293" on="1"/>
        <pt x="400" y="293" on="1"/>
        <pt x="400" y="232" on="1"/>
        <pt x="598" y="232" on="1"/>
        <pt x="598" y="128" on="1"/>
        <pt x="400" y="128" on="1"/>
        <pt x="400" y="0" on="1"/>
      </contour>
    </TTGlyph>
    <TTGlyph name="z" xMin="35" yMin="0" xMax="431" yMax="500">
      <contour>
        <pt x="35" y="96" on="1"/>
        <pt x="251" y="381" on="1"/>
        <pt x="251" y="383" on="1"/>
        <pt x="45" y="383" on="1"/>
        <pt x="45" y="500" on="1"/>
        <pt x="431" y="500" on="1"/>
        <pt x="431" y="404" on="1"/>
        <pt x="215" y="119" on="1"/>
        <pt x="215" y="117" on="1"/>
        <pt x="431" y="117" on="1"/>
        <pt x="431" y="0" on="1"/>
        <pt x="35" y="0" on="1"/>
      </contour>
    </TTGlyph>
    <TTGlyph name="zcaron" xMin="35" yMin="0" xMax="441" yMax="738">
      <contour>
        <pt x="35" y="96" on="1"/>
        <pt x="251" y="381" on="1"/>
        <pt x="251" y="383" on="1"/>
        <pt x="45" y="383" on="1"/>
        <pt x="45" y="500" on="1"/>
        <pt x="431" y="500" on="1"/>
        <pt x="431" y="404" on="1"/>
        <pt x="215" y="119" on="1"/>
        <pt x="215" y="117" on="1"/>
        <pt x="431" y="117" on="1"/>
        <pt x="431" y="0" on="1"/>
        <pt x="35" y="0" on="1"/>
      </contour>
      <contour>
        <pt x="341" y="590" on="1"/>
        <pt x="151" y="590" on="1"/>
        <pt x="50" y="738" on="1"/>
        <pt x="165" y="738" on="1"/>
        <pt x="246" y="658" on="1"/>
        <pt x="326" y="738" on="1"/>
        <pt x="441" y="738" on="1"/>
      </contour>
    </TTGlyph>
    <TTGlyph name="zero" xMin="85" yMin="-5" xMax="590" yMax="705">
      <contour>
        <pt x="590" y="62" on="1"/>
        <pt x="474" y="-5" on="1"/>
        <pt x="201" y="-5" on="1"/>
        <pt x="85" y="62" on="1"/>
        <pt x="85" y="638" on="1"/>
        <pt x="201" y="705" on="1"/>
        <pt x="474" y="705" on="1"/>
        <pt x="590" y="638" on="1"/>
      </contour>
      <contour>
        <pt x="225" y="585" on="1"/>
        <pt x="225" y="115" on="1"/>
        <pt x="450" y="115" on="1"/>
        <pt x="450" y="585" on="1"/>
      </contour>
    </TTGlyph>
</ttFont>
